<?xml version="1.0" standalone="no"?>
<!DOCTYPE svg PUBLIC "-//W3C//DTD SVG 1.1//EN" "http://www.w3.org/Graphics/SVG/1.1/DTD/svg11.dtd" >
<svg>
<metadata>
Created by FontForge 20120731 at Sun Aug 21 13:34:09 2016
 By ,,,
Copyright (c) 2010, Sebastian Kosch (sebastian@aldusleaf.org),
with Reserved Font Name "Crimson Text".
This Font Software is licensed under the SIL Open Font License, Version 1.1.
This license is available with a FAQ at: http://scripts.sil.org/OFL
</metadata>
<defs>
<font id="CrimsonText-Semibold" horiz-adv-x="0" >
  <font-face 
    font-family="Crimson Text"
    font-weight="600"
    font-stretch="normal"
    units-per-em="1024"
    panose-1="2 0 7 3 0 0 0 0 0 0"
    ascent="717"
    descent="-307"
    x-height="432"
    cap-height="662"
    bbox="-19 -248 1158 1050"
    underline-thickness="50"
    underline-position="-100"
    unicode-range="U+0020-F89F"
  />
<missing-glyph horiz-adv-x="374" 
d="M34 0v682h272v-682h-272zM68 34h204v614h-204v-614z" />
    <glyph glyph-name=".notdef" horiz-adv-x="374" 
d="M34 0v682h272v-682h-272zM68 34h204v614h-204v-614z" />
    <glyph glyph-name=".null" 
 />
    <glyph glyph-name="nonmarkingreturn" horiz-adv-x="341" 
 />
    <glyph glyph-name="space" unicode=" " horiz-adv-x="209" 
 />
    <glyph glyph-name="exclam" unicode="!" horiz-adv-x="178" 
d="M92 642q23 0 38 -19t15 -47q0 -11 -6 -66t-15 -145t-15 -164q-1 -15 -7.5 -22t-20.5 -10q-4 -1 -7.5 5.5t-5.5 16.5q-6 76 -15 166t-14.5 144t-5.5 76q0 28 17 46.5t42 18.5zM23 56q0 27 19.5 45.5t46.5 18.5q28 0 47 -18.5t19 -45.5t-18.5 -47.5t-45.5 -20.5
q-26 0 -47 20t-21 48z" />
    <glyph glyph-name="quotedbl" unicode="&#x22;" horiz-adv-x="321" 
d="M83 698h16q15 0 22.5 -12.5t7.5 -52.5q0 -30 -14 -92t-17 -92q-2 -15 -18 -15t-18 13q-5 47 -19.5 108t-14.5 80q0 15 18.5 39t36.5 24zM246 698h17q14 0 21.5 -12.5t7.5 -52.5q0 -30 -15 -91.5t-18 -92.5q-1 -15 -18 -15q-13 0 -15 13q-5 47 -19.5 108t-14.5 80
q0 16 18 39.5t36 23.5z" />
    <glyph glyph-name="numbersign" unicode="#" horiz-adv-x="472" 
d="M305 24l-3 -4q-6 -5 -27 -5h-18q-6 0 -9.5 2.5t-3.5 4.5v2l22 149h-88l-22 -149q0 -2 -0.5 -3t-8 -3.5t-22.5 -2.5h-18q-6 0 -9.5 2.5t-3.5 4.5l-1 2l23 149h-84q-6 0 -6 10q0 19 8 46q1 3 2.5 4t3.5 1h1h84l12 80h-105q-6 1 -6 11q0 19 8 46q1 3 2.5 4t3.5 1h1h105
l24 154q0 9 52 9q6 0 8.5 -2.5t1.5 -4.5v-2l-23 -154h88l24 154q0 9 52 9q6 0 8.5 -2.5t2.5 -4.5l-1 -2l-24 -154h80q1 0 2 0.5t3 -1.5t2 -6q0 -19 -9 -48l-6 -7h-81l-13 -80h102q1 0 2 0.5t3 -1.5t2 -6q0 -19 -9 -48q-1 -3 -2.5 -4.5t-2.5 -1.5h-1h-102zM276 234l12 80h-88
l-13 -80h89z" />
    <glyph glyph-name="dollar" unicode="$" horiz-adv-x="457" 
d="M266 676q36 0 36 -8l-116 -714q-38 0 -38 9zM230 644q28 0 58.5 -5t58 -12t32.5 -7q17 -88 17 -149q-3 -9 -19 -9q-21 1 -22 9q-1 10 -9.5 29t-23 41t-40 38.5t-54.5 16.5q-45 0 -69.5 -23.5t-24.5 -66.5q0 -39 30.5 -69.5t89.5 -66.5q7 -4 26 -15.5t26.5 -16t24 -15
t24 -16.5t20.5 -17.5t19 -19.5t15 -20.5t13 -24t7 -25.5t3 -30q0 -77 -65 -127.5t-149 -50.5q-18 0 -36.5 1.5t-40 5t-33 5.5t-34.5 6.5t-24 5.5q-20 66 -25 154q-1 10 17 10t26 -6q5 -20 14.5 -39.5t26.5 -43t46.5 -38.5t66.5 -15q42 0 72 28.5t30 76.5q0 22 -8.5 40
t-28 34.5t-32.5 25.5t-40 25q-4 2 -13 7q-34 19 -51.5 29.5t-44 31t-39.5 37.5t-23.5 42.5t-10.5 54.5q0 74 60.5 124t136.5 50z" />
    <glyph glyph-name="percent" unicode="%" horiz-adv-x="645" 
d="M169 613q-34 0 -50 -33t-16 -77q0 -54 21 -97t59 -43q34 0 49 31.5t15 76.5q0 56 -19.5 99t-58.5 43zM176 643q65 0 109 -46t44 -111q0 -63 -43.5 -109t-109.5 -46q-64 0 -108.5 45t-44.5 110t44 111t109 46zM463 278q-34 0 -51 -33t-17 -76q0 -54 21 -97.5t59 -43.5
q34 0 49 32t15 77q0 56 -18.5 98.5t-57.5 42.5zM469 309q65 0 108.5 -46t43.5 -111q0 -63 -43 -109t-109 -46q-64 0 -109 45t-45 110t44.5 111t109.5 46zM593 626l-482 -622q-8 -12 -34 -12q-25 0 -28 12l482 624q11 13 19 13q24 0 43 -15z" />
    <glyph glyph-name="ampersand" unicode="&#x26;" horiz-adv-x="681" 
d="M359 98q-21 22 -57.5 73t-62.5 91l-26 39q-36 -25 -55.5 -54.5t-19.5 -78.5q0 -60 34 -90t84 -30q28 0 56.5 14.5t46.5 35.5zM288 612q-32 0 -50 -23t-18 -55q0 -48 50 -138q45 28 65.5 55.5t20.5 75.5q0 32 -18.5 58.5t-49.5 26.5zM286 656q72 0 114.5 -32t42.5 -86
q0 -61 -37.5 -103.5t-107.5 -84.5q51 -84 130 -178q55 76 55 94q0 10 -9.5 13.5t-22 4t-13.5 0.5q-3 6 -3 16t3 12h92q19 0 110 4q5 -3 5 -16q0 -16 -7 -18q-12 0 -35 -5.5t-33 -12.5q-4 -2 -21 -25.5t-42 -57t-43 -54.5q2 -3 12.5 -14t14.5 -15t13 -12.5t15 -12t13.5 -6.5
t14.5 -3q17 0 34.5 17t24.5 31q8 0 17 -7t9 -13q-3 -7 -11.5 -20t-23 -30.5t-38 -30.5t-49.5 -13q-30 0 -59 16t-43 32l-14 16q-75 -66 -172 -66q-85 0 -140.5 42t-55.5 122q0 35 13.5 65t39.5 54t48 39.5t55 33.5q-1 1 -8 13t-8.5 14.5t-7.5 13.5t-8 15t-7 15t-6.5 17
t-5 16t-4.5 17.5t-2 17t-1 19.5q0 66 46.5 106t115.5 40z" />
    <glyph glyph-name="quotesingle" unicode="'" horiz-adv-x="201" 
d="M105 698h17q15 0 22.5 -12.5t7.5 -52.5q0 -30 -15.5 -91.5t-18.5 -92.5q-2 -15 -18 -15q-13 0 -15 13q-5 47 -19.5 108t-14.5 80q0 16 18 39.5t36 23.5z" />
    <glyph glyph-name="parenleft" unicode="(" horiz-adv-x="281" 
d="M121 305q0 -147 49 -266.5t87 -138.5q2 -1 2 -6q0 -6 -3.5 -14.5t-8.5 -8.5q-19 0 -54.5 33t-73 87.5t-65 139.5t-27.5 174q0 90 26.5 176t63 142.5t72.5 90.5t58 34q5 0 8.5 -9.5t3.5 -16.5q0 -2 -1 -2q-49 -28 -93 -150t-44 -265z" />
    <glyph glyph-name="parenright" unicode=")" horiz-adv-x="282" 
d="M160 305q0 143 -44 265t-92 150q-2 0 -2 2q0 6 4 16t9 10q23 0 59 -35t72.5 -91.5t62.5 -142t26 -174.5q0 -87 -27 -171t-64 -139.5t-72.5 -89.5t-56.5 -34q-5 0 -9 8.5t-4 14.5q0 5 2 6q38 19 87 139.5t49 265.5z" />
    <glyph glyph-name="asterisk" unicode="*" horiz-adv-x="415" 
d="M294 618q13 13 29.5 15t27.5 -9q11 -12 9.5 -28t-14.5 -29q-16 -15 -49.5 -33.5t-47.5 -31.5q-6 -3 -4 -11q1 -6 8 -8q16 -8 53 -14.5t57 -16.5q17 -8 23.5 -23t-0.5 -29q-8 -14 -23.5 -18t-32.5 5q-18 10 -46 36.5t-46 36.5q-7 4 -11 1q-6 -3 -6 -9q-2 -18 3 -55t2 -59
q-3 -18 -15.5 -30t-27.5 -9q-16 3 -24 17t-5 32q4 21 20.5 56t19.5 54q0 10 -1 11q-4 4 -12 1q-18 -3 -51 -19t-55 -20q-18 -3 -33.5 5.5t-17.5 23.5q-2 16 8.5 28.5t29.5 14.5q21 3 59.5 -2t57.5 -3q9 0 10 6q1 5 -2 11q-9 16 -34.5 43t-35.5 47q-9 16 -5.5 32.5t17.5 23.5
q15 7 30 0.5t22 -23.5q9 -20 16.5 -57t15.5 -55q0 -2 2.5 -5.5t5.5 -3.5q4 0 10 6q12 13 29.5 46t33.5 49z" />
    <glyph glyph-name="plus" unicode="+" horiz-adv-x="531" 
d="M297 211v-188q-7 -10 -52 -16q-2 0 -3.5 -0.5t-2.5 -0.5q-6 0 -6 8v195q0 5 -6 5h-195q-6 0 -6 10q0 22 8 49q1 3 2.5 4t3.5 1h1h187q5 0 5 6v186q-1 5 5 7q27 8 49 8l10 -6v-196q0 -5 4 -5h196q8 0 8 -6q0 -15 -10 -52q-1 -3 -2.5 -4.5t-2.5 -1.5h-2h-187q-4 0 -4 -3z
" />
    <glyph glyph-name="comma" unicode="," horiz-adv-x="213" 
d="M92 -16q0 16 -15 41.5t-15 43.5q0 21 21 42t55 21q22 0 32 -6q14 -28 14 -70q0 -20 -8 -48q-16 -56 -43 -92.5t-85 -81.5h-1q-5 0 -14 10.5t-9 17.5q0 1 17 16t34 43.5t17 62.5z" />
    <glyph glyph-name="hyphen" unicode="-" horiz-adv-x="324" 
d="M31 207q0 57 12 57h1l241 12h1q6 0 6 -9q0 -22 -3 -37t-7 -19l-3 -4l-241 -11h-2t-3 3t-2 8z" />
    <glyph glyph-name="period" unicode="." horiz-adv-x="191" 
d="M163 56q0 -27 -19.5 -47.5t-46.5 -20.5q-28 0 -48 20.5t-20 47.5t20 47t48 20q27 0 46.5 -20t19.5 -47z" />
    <glyph glyph-name="slash" unicode="/" horiz-adv-x="416" 
d="M395 755l-296 -767q-2 -7 -19.5 -15t-40.5 -8q-7 0 -11.5 1.5t-5.5 3.5l-1 2l296 767q10 22 49 22q17 0 29 -6z" />
    <glyph glyph-name="zero" unicode="0" horiz-adv-x="503" 
d="M143 316q0 -117 32 -196t79 -79q50 0 78.5 79t28.5 201q0 118 -29.5 193.5t-77.5 75.5q-49 0 -80 -77.5t-31 -196.5zM27 315q0 130 67.5 224t158.5 94q90 0 156.5 -94t66.5 -224t-66.5 -224t-156.5 -94q-91 0 -158.5 94t-67.5 224z" />
    <glyph glyph-name="one" unicode="1" horiz-adv-x="400" 
d="M76 482q-6 3 -11 11.5t-5 13.5q0 7 2 9q49 33 97 63.5t75 46.5t28 16h2q8 0 12 -18q-9 -32 -9 -94v-398q0 -50 8 -80q2 -8 27 -15t35 -7q3 0 3 -20q0 -10 -1 -14q-2 1 -52 4t-74 3t-72 -3t-52 -4q-4 4 -4 19t4 15q11 0 37 7.5t28 14.5q6 24 6 58v348q0 24 -2.5 37.5
t-5.5 17t-9 3.5q-3 0 -9.5 -2.5t-14.5 -7t-14.5 -8t-16 -9t-12.5 -7.5z" />
    <glyph glyph-name="two" unicode="2" horiz-adv-x="465" 
d="M236 642q71 0 115 -48.5t44 -119.5q0 -29 -10 -61.5t-22 -58.5t-37 -60t-42 -54.5t-50 -54t-46.5 -46.5t-46.5 -44q-3 -2 -2 -5t5 -3h182q23 0 38.5 12.5t21.5 27t14 43.5q3 9 16 9t20 -5q-28 -133 -33 -159q-2 -15 -16 -15h-347q-11 6 -12 32q103 108 178.5 227
t75.5 196q0 49 -25.5 80t-66.5 31q-13 0 -26 -3t-23 -7.5t-19.5 -11t-16 -12t-13.5 -13.5t-10 -12.5t-7.5 -11t-4.5 -7.5q-7 0 -15.5 7t-8.5 14q6 15 19 34.5t35.5 43t58.5 39.5t77 16z" />
    <glyph glyph-name="three" unicode="3" horiz-adv-x="455" 
d="M244 642q43 0 81.5 -32.5t38.5 -89.5q0 -82 -84 -142q19 -3 42 -15.5t46 -33t38.5 -52t15.5 -67.5q0 -65 -37.5 -115t-94.5 -74.5t-123 -24.5q-75 0 -123 32q-8 10 -8 28q0 23 9.5 38.5t29.5 15.5q8 0 17 -4.5t13.5 -8.5t14.5 -14.5t12 -12.5q29 -28 74 -28q44 0 75 35.5
t31 106.5q0 58 -33.5 97t-82.5 39q-26 0 -60 -6q-8 9 -8 28q0 8 3 12q63 11 100 47t37 93q0 38 -23 61t-51 23q-14 0 -27 -3.5t-22 -7.5t-18 -10t-13.5 -10.5l-10 -10l-5.5 -5.5q-5 0 -11.5 9.5t-6.5 17.5q61 84 164 84z" />
    <glyph glyph-name="four" unicode="4" horiz-adv-x="473" 
d="M369 644q16 0 16 -10v-396h51q16 0 16 -54q0 -5 -8 -10h-59v-172q-14 -8 -54 -8q-48 0 -48 11v169h-251q-11 13 -11 40q34 40 168.5 216.5t154.5 201.5q11 12 25 12zM283 238v234q0 8 -4 8l-2 -2l-173 -228q-1 -1 -1 -3q0 -9 7 -9h173z" />
    <glyph glyph-name="five" unicode="5" horiz-adv-x="451" 
d="M118 630q215 4 244 10q7 -9 7 -28q0 -40 -9 -64q-52 -5 -125.5 -7t-76.5 -2q-8 -1 -10 -9q-7 -40 -24 -135q37 11 88 11q79 0 142 -55t63 -131q0 -97 -72.5 -160.5t-179.5 -63.5q-77 0 -125 32q-8 11 -8 29q0 22 9.5 37.5t29.5 15.5q8 0 17 -4t13.5 -8.5l14.5 -14.5
t12 -13q29 -28 76 -28q45 0 73.5 39t28.5 101q0 61 -33.5 102.5t-94.5 41.5q-51 0 -94 -13q-11 5 -18 14q6 36 27.5 159.5t24.5 143.5z" />
    <glyph glyph-name="six" unicode="6" horiz-adv-x="457" 
d="M139 200q0 -70 26 -115t70 -45q40 0 63 35t23 101q0 67 -26 106.5t-81 39.5q-21 0 -40 -10.5t-24 -25.5q-10 -30 -11 -86zM229 -6q-83 0 -142 61t-59 150q0 79 32 151t85.5 127t115 95.5t129.5 67.5q8 -1 13.5 -11t6.5 -19q-91 -40 -157.5 -103.5t-91.5 -148.5
q-4 -12 1 -15q1 0 2 1q13 7 39 15.5t48 8.5q74 0 126.5 -56t52.5 -128q0 -79 -60.5 -137.5t-140.5 -58.5z" />
    <glyph glyph-name="seven" unicode="7" horiz-adv-x="462" 
d="M132 544q-12 0 -22.5 -6t-16 -11.5t-12.5 -21t-9 -20.5t-8 -23q-1 -5 -17 -6t-22 3q34 144 37 165q3 12 18 12h292q15 0 40.5 1t26.5 1q7 0 7 -8q0 -12 -28 -68l-269 -568q-3 -2 -9 -2q-12 0 -23.5 10t-11.5 20l260 522h-233z" />
    <glyph glyph-name="eight" unicode="8" horiz-adv-x="459" 
d="M230 36q41 0 65.5 28t24.5 72q0 70 -110 144q-3 2 -4 2q-6 4 -10 4h-4q-54 -33 -54 -128q0 -51 26.5 -86.5t65.5 -35.5zM229 594q-33 0 -52.5 -27t-19.5 -74q0 -28 16.5 -53t31 -36t39.5 -28q5 -3 10 -3q3 0 6 2q50 38 50 109q0 47 -21.5 78.5t-59.5 31.5zM230 638
q74 0 127 -40t53 -108q0 -79 -110 -148q-3 0 -2.5 -2.5t2.5 -3.5q19 -12 38 -27t41 -37t35.5 -49.5t13.5 -54.5q0 -75 -61 -125.5t-141 -50.5q-84 0 -139 43t-55 121q0 26 10.5 50.5t21.5 39t33.5 32t30 22.5t27.5 16q2 2 2 4t-3 4q-18 13 -32 25t-31 32t-26.5 46t-9.5 56
q0 64 53.5 109.5t121.5 45.5z" />
    <glyph glyph-name="nine" unicode="9" horiz-adv-x="454" 
d="M317 440q0 70 -26 115t-72 45q-39 0 -61.5 -35.5t-22.5 -102.5q0 -65 26.5 -104.5t80.5 -39.5q21 0 40 10.5t24 25.5q10 29 11 86zM227 646q83 0 141.5 -61t58.5 -150q0 -79 -32 -152.5t-84.5 -128.5t-112 -95.5t-121.5 -64.5q-8 1 -14 13t-6 19q80 33 146 99t91 151
q4 12 -1 15q-1 0 -2 -1q-10 -8 -35.5 -15.5t-46.5 -7.5q-76 0 -129 54t-53 128q0 79 60 138t140 59z" />
    <glyph glyph-name="colon" unicode=":" horiz-adv-x="190" 
d="M163 365q0 -27 -19.5 -48t-46.5 -21q-28 0 -48 21t-20 48t20 46.5t48 19.5q27 0 46.5 -19.5t19.5 -46.5zM163 56q0 -27 -19.5 -47.5t-46.5 -20.5q-28 0 -48 20.5t-20 47.5t20 47t48 20q27 0 46.5 -20t19.5 -47z" />
    <glyph glyph-name="semicolon" unicode=";" horiz-adv-x="215" 
d="M90 -16q0 16 -15 41.5t-15 43.5q0 21 21 42t55 21q22 0 32 -6q14 -28 14 -70q0 -20 -8 -48q-16 -56 -43 -92.5t-85 -81.5h-1q-5 0 -14 10.5t-9 17.5q0 1 17 16t34 43.5t17 62.5zM188 365q0 -27 -19.5 -48t-46.5 -21q-28 0 -48 21t-20 48t20 46.5t48 19.5q27 0 46.5 -19.5
t19.5 -46.5z" />
    <glyph glyph-name="less" unicode="&#x3c;" horiz-adv-x="464" 
d="M439 40q0 -7 -6 -31t-10 -24q-1 0 -5 2l-375 190q-18 10 -18 40q0 15 18 24l371 187q4 2 5 2q7 0 17 -52l-3 -9l-322 -160l325 -163q3 -1 3 -6z" />
    <glyph glyph-name="equal" unicode="=" horiz-adv-x="528" 
d="M499 172q0 -16 -10 -53q-1 -3 -2.5 -4.5t-2.5 -1.5h-1h-445q-7 0 -7 10q0 18 9 49q1 3 2.5 4t3.5 1h1h444q8 0 8 -5zM31 265q5 54 15 54h449q4 0 4 -5q0 -16 -10 -53q-1 -3 -2.5 -4.5t-2.5 -1.5h-1h-445q-7 0 -7 10z" />
    <glyph glyph-name="greater" unicode="&#x3e;" horiz-adv-x="466" 
d="M26 40l3 6l325 163l-322 160l-3 9q10 52 17 52q1 0 5 -2l371 -187q18 -9 18 -24q0 -30 -18 -40l-375 -190q-4 -2 -5 -2q-4 0 -10 24t-6 31z" />
    <glyph glyph-name="question" unicode="?" horiz-adv-x="326" 
d="M76 644q90 0 158.5 -51t68.5 -133q0 -64 -27 -99t-83 -63q-4 -2 -14.5 -7t-15.5 -7.5t-13.5 -7.5t-13.5 -8.5t-10.5 -8t-8.5 -8.5t-4 -9q-3 -8 -3 -29t-2 -26q-7 -11 -26 -11q-14 0 -14 86q0 50 11.5 70.5t45.5 43.5q7 5 30 17t38.5 22t29 28t13.5 39q0 29 -21 49t-50 20
q-15 0 -40 -5t-40 -5q-24 0 -42 15t-18 38q0 18 6 38q26 12 45 12zM158 56q0 -27 -19.5 -47.5t-46.5 -20.5q-28 0 -48 20.5t-20 47.5t20 47t48 20q27 0 46.5 -20t19.5 -47z" />
    <glyph glyph-name="at" unicode="@" horiz-adv-x="781" 
d="M698 214q0 130 -76 220t-201 90q-138 0 -232.5 -85.5t-94.5 -215.5q0 -158 85.5 -253.5t264.5 -95.5q10 0 23 2.5t21 5.5t17 6l9 4q2 -9 2 -10q0 -20 -33.5 -36.5t-93.5 -16.5q-78 0 -147 33t-115.5 84.5t-73 114.5t-26.5 124q0 180 116 286t289 106q72 0 134 -31.5
t102.5 -81.5t63 -110.5t22.5 -120.5q0 -69 -17 -119.5t-45 -76.5t-58 -38t-62 -12q-49 0 -82.5 30t-33.5 63q0 1 -2 0t-3 -2q-14 -27 -57 -56t-84 -29q-53 0 -83.5 46t-30.5 102q0 107 76.5 188t203.5 81l95 -9q-5 -32 -7 -53l-23 -214q-2 -20 -2 -28q-1 -76 43 -76
q35 0 60 20.5t36 52.5t15.5 59t4.5 52zM472 334q0 8 -2 12.5t-12 8.5t-28 4q-54 0 -97 -58.5t-43 -157.5q0 -90 48 -90q36 0 76 49.5t42 73.5l14 146q2 6 2 12z" />
    <glyph glyph-name="A" unicode="A" horiz-adv-x="736" 
d="M391 660l210 -524q15 -40 30 -73q6 -15 32 -24t38 -9q4 0 4 -18q0 -12 -2 -15q-120 6 -126 6q-7 0 -130 -6q-4 4 -4 18.5t4 14.5q12 0 33 6t25 14q3 6 3 13q0 20 -19 69l-35 93q-4 4 -7 4q-32 2 -86 2t-114 -3q-6 0 -6 -4l-38 -93q-19 -52 -19 -65t11 -20q9 -6 31.5 -11
t30.5 -5q3 -1 3 -14t-2 -19q-5 0 -47 3t-68 3t-61.5 -2.5t-50.5 -3.5q-4 4 -4 15q0 18 2 18q12 0 38.5 8.5t33.5 19.5q19 30 38 78l186 450q23 60 37 72q8 7 17 7q7 0 12 -5zM271 288q35 -3 72 -3q35 0 82 3l2 4l-76 200l-82 -200q0 -4 2 -4z" />
    <glyph glyph-name="B" unicode="B" horiz-adv-x="586" 
d="M437 176q0 64 -35.5 105.5t-114.5 41.5q-29 0 -62 -5q-8 -5 -8 -20v-186q0 -42 12 -52q13 -10 64 -10q22 0 43 4.5t45.5 16t40 39t15.5 66.5zM104 143v378q0 60 -7 82q-3 11 -28 18t-40 7q-4 0 -4 15q0 14 4 18q66 -3 133 -3q51 0 86 0.5t60 0.5q36 0 72 -9t70 -27.5
t55.5 -53.5t21.5 -81q0 -36 -21 -67t-39.5 -43.5t-31.5 -17.5q-8 -3 -4 -6q37 -6 82.5 -52.5t45.5 -114.5q0 -86 -69.5 -137t-184.5 -50l-142 1l-133 -4q-3 3 -3 16q0 17 3 17q13 0 38 6.5t29 15.5q7 21 7 91zM333 378q73 16 73 98q0 135 -115 135q-47 0 -64 -5
q-8 -2 -8 -11l-2 -96v-117q0 -10 60 -10q37 0 56 6z" />
    <glyph glyph-name="C" unicode="C" horiz-adv-x="639" 
d="M613 182q0 -13 -15 -77.5t-23 -68.5q-87 -42 -232 -42q-132 0 -225 97t-93 231q0 142 95 243.5t234 101.5q113 0 236 -27q3 -1 6 -65.5t3 -80.5q0 -15 -24 -15q-6 0 -14 4q-4 18 -14.5 37t-31.5 43t-62 39.5t-95 15.5q-98 0 -152.5 -81t-54.5 -194q0 -126 61.5 -213.5
t173.5 -87.5q89 0 141 56q13 14 23.5 37.5t16 39.5t7.5 16q35 0 39 -9z" />
    <glyph glyph-name="D" unicode="D" horiz-adv-x="708" 
d="M162 658h173q163 0 254.5 -96t91.5 -226q0 -144 -92.5 -241.5t-254.5 -97.5q-21 0 -82.5 2t-88.5 2l-133 -4q-3 3 -3 16q0 17 3 17q13 0 38 6.5t29 15.5q7 21 7 91v378q0 60 -7 82q-3 11 -28 18t-40 7q-4 0 -4 15q0 14 4 18q66 -3 133 -3zM217 530v-392q0 -56 11 -74
q16 -16 122 -16q203 0 203 292q0 112 -54.5 190t-155.5 78h-5q-96 0 -108 -16q-13 -18 -13 -62z" />
    <glyph glyph-name="E" unicode="E" horiz-adv-x="584" 
d="M162 657q44 0 155 3.5t168 3.5q4 -30 16 -83.5t13 -58.5q-5 -5 -21 -5q-11 0 -14 7q-33 89 -128 89h-52q-74 0 -76 -13q-6 -28 -6 -81v-157q0 -6 44 -6h52h4q58 0 69 5t17 35q3 15 6 25q1 7 16 7q14 0 19 -5v-189q-4 -4 -19 -4q-13 0 -16 8q-7 27 -12.5 40t-7 14t-8.5 6
q-13 8 -92 8q-72 0 -72 -8v-155q0 -55 9 -81q5 -13 68 -13h37q78 0 119 21q16 8 36 35t31 61q1 6 14 6q22 0 28 -6q-3 -9 -14.5 -41t-17.5 -48.5t-13 -40.5t-9 -39q-40 0 -165.5 3t-176.5 1l-133 -4q-3 3 -3 16q0 17 3 17q13 0 38 6.5t29 15.5q7 21 7 91v378q0 60 -7 82
q-3 11 -28 18t-40 7q-4 0 -4 15q0 14 4 18q66 -4 133 -4z" />
    <glyph glyph-name="F" unicode="F" horiz-adv-x="538" 
d="M167 3q-30 0 -64 -1.5t-53 -3.5l-20 -1q-3 3 -3 16q0 17 3 17q13 0 38 6.5t29 15.5q7 21 7 91v378q0 60 -7 82q-3 11 -28 18t-40 7q-4 0 -4 15q0 14 4 18q65 -4 132 -4q47 -1 158.5 3t164.5 4q4 -30 16 -83.5t13 -58.5q-5 -5 -21 -5q-11 0 -14 7q-33 89 -128 89h-52
q-74 0 -76 -13q-5 -24 -5 -81v-157q0 -6 44 -6h51h4q58 0 69 5t17 35q3 15 6 25q1 7 16 7q14 0 19 -5v-189q-4 -4 -19 -4q-13 0 -16 8q-7 27 -12.5 40t-7 14t-8.5 6q-13 8 -92 8q-71 0 -71 -8v-157q0 -54 11 -83q4 -10 36 -19t43 -9q5 0 5 -17q0 -12 -3 -16q-120 6 -142 6z
" />
    <glyph glyph-name="G" unicode="G" horiz-adv-x="702" 
d="M25 322q0 141 96 243t233 102q88 0 232 -37q3 -1 8.5 -66.5t5.5 -77.5t-20 -12q-14 0 -22 6q-3 14 -8.5 28t-20 35.5t-35 36.5t-56 26.5t-80.5 11.5q-98 0 -153 -78t-55 -200q0 -72 25.5 -138.5t81 -113t129.5 -46.5q63 0 96 19q10 7 10 23l-1 72v7q0 60 -7 81
q-4 13 -29.5 19t-42.5 6q-4 0 -4 14.5t4 18.5q11 0 60.5 -3t79.5 -3q1 0 121 6q3 -9 3 -17q0 -17 -4 -17q-6 0 -26.5 -6t-29.5 -10q-13 -8 -13 -73q0 -21 0.5 -42t0.5 -23q0 -18 5 -31t5 -15q0 -14 -22 -24q-40 -18 -59 -25t-72.5 -17t-118.5 -10q-132 0 -224.5 98
t-92.5 232z" />
    <glyph glyph-name="H" unicode="H" horiz-adv-x="708" 
d="M673 30q4 0 4 -19q0 -8 -2 -14q-120 6 -127 6q-20 0 -42 -1t-48.5 -2.5t-42.5 -2.5q-4 4 -4 14q0 19 4 19q12 0 37.5 7t28.5 15q8 31 8 84v172l-2 4q-94 2 -132 2q-138 -2 -138 -5v-167q0 -55 9 -90q2 -7 27.5 -14.5t34.5 -7.5q4 0 4 -19q0 -8 -2 -14q-120 6 -127 6
q-20 0 -42 -1t-48.5 -2.5t-42.5 -2.5q-4 4 -4 14q0 19 4 19q12 0 37.5 7t28.5 15q8 31 8 84v386q0 60 -8 84q-4 8 -28 15.5t-36 7.5q-4 0 -4 15q0 16 2 18q5 0 55.5 -3t77.5 -3q8 0 128 6q3 -9 3 -16q0 -17 -4 -17q-9 0 -36 -8t-29 -15q-8 -31 -8 -88v-146l2 -3
q98 -2 136 -2q42 0 132 2q2 2 2 4v149q0 60 -8 84q-4 8 -28 15.5t-36 7.5q-4 0 -4 15q0 16 2 18q5 0 55.5 -3t77.5 -3q8 0 128 6q3 -9 3 -16q0 -17 -4 -17q-9 0 -36 -8t-29 -15q-8 -31 -8 -88v-376q0 -55 9 -90q2 -7 27.5 -14.5t34.5 -7.5z" />
    <glyph glyph-name="I" unicode="I" horiz-adv-x="323" 
d="M104 522q0 60 -8 84q-4 8 -28 15.5t-36 7.5q-4 0 -4 15q0 16 2 18q5 0 55.5 -3t77.5 -3q8 0 128 6q3 -9 3 -16q0 -17 -4 -17q-9 0 -36 -8t-29 -15q-8 -31 -8 -88v-376q0 -55 9 -90q2 -7 27.5 -14.5t34.5 -7.5q4 0 4 -19q0 -8 -2 -14q-120 6 -127 6q-20 0 -42 -1
t-48.5 -2.5t-42.5 -2.5q-4 4 -4 14q0 19 4 19q12 0 37.5 7t28.5 15q8 31 8 84v386z" />
    <glyph glyph-name="J" unicode="J" horiz-adv-x="466" 
d="M364 518v-404q0 -148 -75 -242t-198 -94q-15 0 -33 6t-22 10q-13 17 -13 45q0 23 19 39t44 16q21 0 45.5 -26t38.5 -26q37 0 58.5 68.5t21.5 195.5v418q0 56 -7 82q-3 12 -27.5 17.5t-40.5 5.5q-4 0 -4 15q0 16 2 18q15 -1 43 -2.5t51 -2.5t43 -1q7 0 127 6q3 -9 3 -16
q0 -17 -4 -17q-9 0 -35.5 -8t-28.5 -15q-8 -31 -8 -88z" />
    <glyph glyph-name="K" unicode="K" horiz-adv-x="722" 
d="M217 518v-161q0 -3 1.5 -4.5t3.5 -2.5h1h8q21 0 52 34q80 86 176 200q16 19 16 30q0 10 -22 14t-37 4q-4 0 -5 11.5t1 18.5q111 -6 121 -6q19 0 37.5 1t40 2.5t35.5 2.5q2 -4 1.5 -17t-3.5 -13q-70 -8 -101 -42l-186 -212q-11 -13 2 -28l234 -278q18 -22 48.5 -32
t44.5 -10q5 0 5 -19q0 -8 -3 -14q-120 6 -137 6q-32 0 -76.5 -2.5t-62.5 -3.5q-4 4 -4 18.5t4 14.5q11 0 28 7t17 15q0 5 -28 42t-77 94.5t-97 107.5q-4 4 -22 4q-16 0 -16 -12v-148q0 -53 9 -88q2 -7 27.5 -14.5t34.5 -7.5q4 0 4 -19q0 -8 -2 -14q-120 6 -127 6
q-20 0 -42 -1t-48.5 -2.5t-42.5 -2.5q-4 4 -4 14q0 19 4 19q12 0 37.5 7t28.5 15q8 31 8 84v386q0 60 -8 84q-4 8 -28 15.5t-36 7.5q-4 0 -4 15q0 16 2 18q5 0 55.5 -3t77.5 -3q8 0 128 6q3 -9 3 -16q0 -17 -4 -17q-9 0 -36 -8t-29 -15q-8 -31 -8 -88z" />
    <glyph glyph-name="L" unicode="L" horiz-adv-x="584" 
d="M217 518v-376q0 -49 9 -80q5 -13 68 -13h37q78 0 119 21q16 8 36 35t31 61q1 6 14 6q22 0 28 -6q-3 -9 -14.5 -41t-17.5 -48.5t-13 -40.5t-9 -39q-40 0 -165.5 3t-176.5 1l-133 -4q-3 3 -3 16q0 17 3 17q13 0 38 6.5t29 15.5q7 21 7 91v378q0 61 -8 85q-4 8 -28 15.5
t-36 7.5q-4 0 -4 15q0 16 2 18q5 0 55.5 -3t77.5 -3q8 0 128 6q3 -9 3 -16q0 -17 -4 -17q-9 0 -36 -8t-29 -15q-8 -31 -8 -88z" />
    <glyph glyph-name="M" unicode="M" horiz-adv-x="913" 
d="M178 656q5 0 98 6q9 -28 41 -103.5t78.5 -184t74.5 -178.5q0 -2 3 -2t3 3q88 211 140 347l36 116q30 -3 82 -3q39 0 119 5q3 -4 3 -16q0 -17 -4 -17h-2q-27 0 -49 -16q-15 -11 -13 -54q4 -89 14 -413q1 -54 16 -92q4 -9 28 -16.5t34 -7.5q4 0 4 -18q0 -9 -2 -15
q-120 6 -123 6q-20 0 -42 -1t-48.5 -2.5t-42.5 -2.5q-4 4 -4 15q0 18 4 18q11 0 32 6.5t28 14.5q10 13 10 35v56l-10 304q-4 62 -12 62q-3 0 -5 -6l-191 -466q-17 -38 -38 -38q-4 0 -10 2l-224 538q-7 -249 -16 -446q0 -22 3 -31q5 -11 40 -21t47 -10q4 0 4 -18q0 -9 -2 -15
q-120 6 -126 6q-27 0 -71.5 -3t-54.5 -3q-4 4 -4 16q0 17 4 17q16 0 50 10t39 26q9 18 11 67q2 76 5.5 179.5t6 176.5t2.5 91q0 19 -3 28q-3 8 -33.5 15t-43.5 7q-4 0 -4 17q0 11 4 15q15 -1 51.5 -3.5t62.5 -2.5z" />
    <glyph glyph-name="N" unicode="N" horiz-adv-x="753" 
d="M571 523q0 53 -10 80q-5 12 -33.5 19t-44.5 7q-4 0 -4.5 14.5t2.5 18.5q107 -7 126 -7q26 0 67 3.5t51 3.5q2 -4 2 -16q0 -17 -4 -17q-14 0 -43 -7.5t-38 -20.5q-11 -27 -11 -83v-379q0 -36 4 -140q-4 -4 -22 -4q-16 0 -32 23l-398 528v-405q0 -60 8 -82q5 -12 37 -20.5
t45 -8.5q3 0 3.5 -14t-1.5 -19q-120 6 -125 6q-27 0 -66.5 -2.5t-52.5 -3.5q-4 4 -4 17q0 16 4 16q17 0 45.5 7.5t36.5 22.5q10 21 10 84v392q0 54 -11 73q-4 7 -34.5 13t-44.5 6q-4 0 -4.5 15t3.5 19q105 -5 119 -5q33 0 90 5q19 -36 69.5 -106.5t138.5 -186t120 -159.5
q2 12 2 41v272z" />
    <glyph glyph-name="O" unicode="O" horiz-adv-x="693" 
d="M330 618q-86 0 -131.5 -78.5t-45.5 -189.5q0 -75 20.5 -143t69.5 -117.5t118 -49.5q85 0 131.5 79.5t46.5 189.5q0 77 -20 144.5t-69 116t-120 48.5zM25 328q0 140 94 239.5t226 99.5t226.5 -99.5t94.5 -239.5t-94.5 -239t-226.5 -99t-226 99t-94 239z" />
    <glyph glyph-name="P" unicode="P" horiz-adv-x="546" 
d="M163 658q29 0 67 1.5t68 1.5t59.5 -5.5t59 -19.5t52 -34.5t37 -52.5t14.5 -71q0 -47 -24.5 -92t-74 -76.5t-111.5 -31.5q-21 0 -42 7.5t-29 18.5q-2 2 -3.5 10t-0.5 15t3 7q23 -10 56 -10q48 0 76 39.5t28 99.5q0 67 -27 106t-83 39q-42 0 -58 -7q-12 -6 -12 -104v-357
q0 -60 8 -85q3 -12 33.5 -19.5t44.5 -7.5q4 0 4 -17q0 -11 -2 -17q-110 6 -142 6q-27 0 -60.5 -1.5t-53.5 -2.5l-20 -2q-3 4 -3 18q0 16 3 16q13 0 38.5 6.5t29.5 15.5q6 18 6 91v378q0 57 -6 82q-3 8 -29.5 16.5t-38.5 8.5q-4 0 -4 15t4 18q105 -3 133 -3z" />
    <glyph glyph-name="Q" unicode="Q" horiz-adv-x="744" 
d="M328 614q-86 0 -132.5 -77.5t-46.5 -186.5q0 -74 21 -142t70.5 -117t119.5 -49q85 0 132 78.5t47 188.5q0 57 -12 109t-36.5 97t-66.5 72t-96 27zM667 -79q18 0 34 2.5t26 4.5t12 2q12 0 12 -20v-5q-84 -45 -183 -45q-37 0 -79.5 17.5t-75.5 40t-77 47t-78 35.5
q-36 11 -74.5 37t-75 66t-60.5 99.5t-24 125.5q0 92 43 170t116.5 123.5t160 45.5t160.5 -45.5t117 -123.5t43 -170q0 -67 -23 -126.5t-57.5 -99.5t-72 -65t-71.5 -32q26 -13 60 -32t52 -28t48 -16.5t67 -7.5z" />
    <glyph glyph-name="R" unicode="R" horiz-adv-x="685" 
d="M288 610q-42 0 -58 -7q-11 -5 -12 -104v-115q0 -22 17 -29t47 -7h26q37 0 66.5 35t29.5 91q0 136 -116 136zM304 660q26 0 54.5 -5.5t59 -18.5t54.5 -32t39 -50t15 -70q0 -54 -35 -102t-85 -68q-8 -3 -4 -10q56 -101 112 -170q35 -43 75.5 -73.5t74.5 -30.5q4 -6 4 -16
t-4 -18q-12 -2 -31 -2q-51 0 -92.5 12t-72 35.5t-50.5 45.5t-42 56q-14 20 -32 47t-27.5 41.5t-21.5 30.5t-20.5 24t-16.5 11q-6 3 -24 3q-16 0 -16 -17v-141q0 -60 8 -85q3 -12 33.5 -19.5t44.5 -7.5q4 0 4 -17q0 -11 -2 -17q-110 6 -142 6q-27 0 -60.5 -1.5t-53.5 -2.5
l-20 -2q-3 4 -3 18q0 16 3 16q13 0 38.5 6.5t29.5 15.5q6 18 6 91v378q0 57 -6 82q-3 8 -29.5 16.5t-38.5 8.5q-4 0 -4 15t4 18q106 -3 133 -3q28 0 69.5 1t71.5 1z" />
    <glyph glyph-name="S" unicode="S" horiz-adv-x="474" 
d="M38 490q0 75 63 126.5t142 51.5q28 0 49 -3t58.5 -12.5t51.5 -12.5q12 -68 12 -154q-2 -9 -12 -9q-27 0 -29 9q-6 46 -43 90t-90 44q-46 0 -70.5 -26t-24.5 -70q0 -15 3.5 -28.5t14 -26.5t17 -21.5t25 -21.5t25 -18t30 -19.5t28.5 -16.5q6 -5 33.5 -21.5t38.5 -24
t32 -25.5t30.5 -34t17.5 -40.5t8 -52.5q0 -80 -64.5 -132t-149.5 -52q-60 0 -184 28q-9 36 -16.5 90.5t-7.5 71.5q1 8 16 8q26 0 29 -8q4 -18 14 -39.5t27.5 -46t47 -40t66.5 -15.5q47 0 78 28t31 84q0 17 -6.5 33t-15 27t-25 24t-27.5 20t-32.5 19.5t-30.5 17.5q-3 3 -11 8
q-29 18 -44 28t-38.5 29.5t-35.5 36.5t-21.5 42t-9.5 54z" />
    <glyph glyph-name="T" unicode="T" horiz-adv-x="664" 
d="M331 656q43 0 111 2.5t109 3.5q25 0 69 10l19 -153q-7 -7 -27 -7q-8 0 -10 5q-14 55 -37 74.5t-72 19.5q-93 0 -97 -17q-9 -29 -9 -94v-361q0 -54 9 -87q1 -7 27 -14.5t35 -7.5q4 0 4 -18q0 -10 -2 -16q-13 1 -38.5 3t-47 3t-41.5 1q-27 0 -74.5 -3t-58.5 -4q-4 4 -4 16
q0 18 4 18q12 0 37.5 7t28.5 15q8 27 8 83v362q0 83 -9 97q-8 17 -95 17q-49 0 -72 -19.5t-38 -73.5q-1 -6 -10 -6q-19 0 -26 8l19 152q44 -10 69 -10q41 -1 108.5 -3.5t110.5 -2.5z" />
    <glyph glyph-name="U" unicode="U" horiz-adv-x="733" 
d="M160 656q18 0 128 6q2 -8 2 -16q0 -17 -4 -17q-9 0 -36 -7.5t-28 -15.5q-8 -30 -8 -88v-230q0 -103 44.5 -164.5t123.5 -61.5q77 0 123.5 50.5t46.5 167.5v244q0 61 -10 80q-6 9 -35.5 17.5t-42.5 8.5q-4 0 -4.5 14t2.5 18q108 -7 126 -7q25 0 66.5 3.5t51.5 3.5
q2 -7 2 -16q0 -16 -4 -16q-14 0 -43 -7.5t-38 -20.5q-11 -25 -11 -83v-235q0 -78 -19 -134.5t-54 -89t-79.5 -47.5t-101.5 -15q-120 0 -189 72.5t-69 233.5v218q0 64 -8 84q-4 8 -28 15.5t-36 7.5q-4 0 -4 15t3 18q127 -6 133 -6z" />
    <glyph glyph-name="V" unicode="V" horiz-adv-x="715" 
d="M148 656q14 0 137 6q3 -4 3 -18.5t-4 -14.5q-8 0 -21 -2.5t-27 -11t-14 -21.5q0 -19 76 -205q12 -32 20 -49q12 -31 30 -71.5t31 -66.5t13 -24l146 345q20 47 20 69q0 18 -23.5 27.5t-47.5 9.5q-4 0 -3.5 14.5t2.5 18.5q9 0 48 -3t63 -3q26 0 60 2.5t49 3.5q2 -5 2 -15
q0 -17 -2 -17q-13 0 -34.5 -7.5t-33.5 -21.5q-15 -24 -43 -88l-208 -487q-15 -36 -39 -36q-10 0 -16 10l-206 512q-23 60 -38 89q-7 13 -31 20.5t-38 7.5q-4 0 -4 15q0 14 3 18q7 0 55 -3t75 -3z" />
    <glyph glyph-name="W" unicode="W" horiz-adv-x="1078" 
d="M141 656q11 0 121 6q1 -6 1.5 -19t-3.5 -14q-7 0 -16 -1.5t-20.5 -9t-11.5 -20.5q0 -19 18 -53l196 -387q3 -5 7.5 -2.5t6.5 6.5l73 142l-107 216q-30 61 -51 85q-9 10 -26.5 17t-31.5 7q-4 0 -4 17q0 13 3 16q126 -6 132 -6q8 0 118 6q2 -6 2.5 -19t-2.5 -14
q-9 0 -18.5 -2t-19.5 -9.5t-10 -19.5q0 -16 18 -52l61 -125l59 121q18 36 18 55q0 18 -24.5 25.5t-42.5 7.5q-4 0 -4 14t3 18q88 -6 110 -6q23 0 41.5 1t39.5 2.5t34 2.5q2 -6 2 -18.5t-3 -13.5q-12 0 -36.5 -9t-34.5 -21q-22 -25 -57 -94l-73 -148l97 -198q6 -10 13 5
q20 47 94 203t81 172q18 38 18 56t-24 26t-40 8q-4 0 -4.5 14t3.5 18q88 -6 110.5 -6t40.5 1t38 2.5t34 2.5q2 -7 2 -20q0 -12 -4 -12q-12 0 -34.5 -8.5t-33.5 -19.5q-27 -31 -58 -95l-229 -485q-8 -16 -18.5 -24t-18.5 -8q-6 0 -10 4l-122 246l-114 -218
q-8 -16 -18.5 -24.5t-17.5 -7.5q-6 0 -10 4l-265 526q-28 56 -52 87q-8 10 -27.5 16t-31.5 6q-4 0 -4 16q0 14 3 17q127 -6 134 -6z" />
    <glyph glyph-name="X" unicode="X" horiz-adv-x="752" 
d="M202 656q26 0 136 6q1 -4 1 -18.5t-3 -14.5q-17 0 -37 -6.5t-20 -20.5q0 -10 10 -26l113 -171q9 12 33 42t38.5 48.5t31.5 41.5t26 38.5t9 22.5q0 11 -22.5 21t-49.5 10q-4 0 -4.5 14.5t3.5 18.5q102 -6 125 -6q13 0 123 6q2 -4 2 -18.5t-3 -14.5q-15 0 -47.5 -8.5
t-45.5 -25.5l-188 -238q187 -280 191 -286q16 -21 43.5 -31t48.5 -10q4 0 4 -20q0 -8 -2 -14q-110 6 -126 6q-25 0 -49 -1t-54 -2.5t-49 -2.5q-4 4 -3.5 19t4.5 15q13 0 35 7.5t22 20.5q0 5 -4 11l-140 213q-152 -203 -152 -222q0 -11 20.5 -20.5t50.5 -9.5q5 0 5 -19
q0 -11 -2 -15q-97 6 -123 6q-15 0 -125 -6q-4 9 -4 14q0 20 4 20q14 0 44.5 7.5t43.5 22.5l204 273l-137 209q-36 57 -60 72t-55 15q-3 0 -3 14.5t3 18.5q18 -1 43.5 -2.5t47 -2.5t43.5 -1z" />
    <glyph glyph-name="Y" unicode="Y" horiz-adv-x="657" 
d="M156 656q18 0 138 6q2 -4 1.5 -18t-3.5 -14q-16 0 -36 -7t-20 -21q0 -9 9 -26l106 -194q5 -5 10 2q43 64 83 132t40 86q0 11 -18.5 19.5t-48.5 8.5q-4 0 -4 14t3 18q101 -6 120 -6q23 0 41.5 1t38 2.5t30.5 2.5q2 -8 2 -16q0 -16 -4 -16q-15 0 -41.5 -9t-38.5 -24
q-29 -43 -104 -164.5t-75 -134.5v-156q0 -59 8 -90q2 -7 27.5 -15.5t33.5 -8.5q4 0 4 -16q0 -10 -2 -16q-13 1 -38 3t-46 3t-41 1q-27 0 -73.5 -3t-57.5 -4q-4 4 -4 16q0 16 3 16q12 0 37 8t28 16q8 29 8 88v148q0 5 -6.5 19.5t-22.5 44t-28 51t-39 69.5t-40 71
q-29 54 -52 69q-10 7 -29.5 12.5t-28.5 5.5q-3 0 -3.5 10t1.5 14q24 2 132 2z" />
    <glyph glyph-name="Z" unicode="Z" horiz-adv-x="622" 
d="M224 656h109q81 0 221 10q3 -1 6.5 -13t3.5 -20q-1 -4 -93.5 -142.5t-184.5 -274.5l-92 -137q-6 -11 -6 -15q0 -10 14 -10h192q118 0 161 119q2 5 13 5q20 0 28 -8q-43 -135 -49 -170h-507q-8 9 -8 26q0 12 4 17l376 561h-192q-36 -1 -60 -8t-39 -25.5t-23 -36t-18 -50.5
q-2 -5 -12 -5q-26 0 -32 7q25 125 31 178q10 -3 73.5 -5.5t83.5 -2.5z" />
    <glyph glyph-name="bracketleft" unicode="[" horiz-adv-x="275" 
d="M53 756q97 0 195 15q6 0 6 -13q0 -22 -14 -29q-13 -7 -46 -14t-61 -7q-7 0 -7 -9v-749q0 -8 7 -8q50 0 108 -25q10 -4 10 -23q0 -18 -6 -18q-114 18 -192 18q-18 0 -18 23v815q0 24 18 24z" />
    <glyph glyph-name="backslash" unicode="\" horiz-adv-x="409" 
d="M387 -6q0 -17 -10 -25t-18 -8l-24 2l-314 792q8 6 22 6q44 0 54 -22l286 -726q4 -6 4 -19z" />
    <glyph glyph-name="bracketright" unicode="]" horiz-adv-x="276" 
d="M222 756q19 0 19 -24v-815q0 -23 -19 -23q-78 0 -192 -18q-6 0 -6 18q0 19 11 23q58 25 107 25q8 0 8 8v749q0 9 -8 9q-28 0 -60.5 7t-45.5 14q-14 7 -14 29q0 13 6 13q98 -15 194 -15z" />
    <glyph glyph-name="asciicircum" unicode="^" horiz-adv-x="388" 
d="M347 472q-13 0 -59 38.5t-81 79.5q-31 -40 -78 -79t-60 -39q-4 0 -7.5 7t-4.5 13l-1 7q1 3 25 25.5t57 63.5t55 89q1 2 2 5.5t1.5 4.5t2 2t4.5 1q9 0 14.5 -5.5t9.5 -15t18 -32.5t33 -49q10 -13 30 -34t35.5 -36.5t16.5 -17.5q0 -5 -4 -16.5t-9 -11.5z" />
    <glyph glyph-name="underscore" unicode="_" horiz-adv-x="585" 
d="M61 -33q5 46 15 46h449q4 0 4 -5q0 -8 -10 -45q-1 -3 -2.5 -4.5t-2.5 -1.5h-1h-445q-7 0 -7 10z" />
    <glyph glyph-name="grave" unicode="`" horiz-adv-x="247" 
d="M44 660q0 4 3.5 9.5t14 11.5t26.5 6q25 0 34 -9q17 -20 40 -53t38 -57.5t15 -27.5q0 -5 -5 -10.5t-10 -5.5q-13 0 -84.5 55.5t-71.5 80.5z" />
    <glyph glyph-name="a" unicode="a" horiz-adv-x="452" 
d="M192 58q27 0 46.5 14t19.5 32v102q-7 -3 -29.5 -10t-34.5 -12t-28 -14t-23.5 -22t-7.5 -28q0 -32 16 -47t41 -15zM237 442q62 0 93 -32.5t31 -111.5v-197q0 -20 9 -30.5t24 -10.5t34 13q6 -2 6 -11q0 -20 -6 -30q-15 -12 -40 -25t-48 -13t-45 17t-29 37q-1 -1 -7.5 -6.5
t-18 -13.5t-26 -16t-34 -13.5t-39.5 -5.5q-50 0 -81.5 27.5t-31.5 75.5q0 24 11.5 45t27.5 34.5t43 26.5t46.5 19.5t50 15.5t42.5 13q9 4 9 16v55q0 35 -16 55t-43 20q-30 0 -47 -18.5t-17 -52.5q0 -20 -15 -29.5t-34 -9.5q-37 0 -52 24q0 48 65.5 90t137.5 42z" />
    <glyph glyph-name="b" unicode="b" horiz-adv-x="525" 
d="M282 442q62 0 111.5 -31.5t75 -80t25.5 -100.5q0 -98 -69.5 -167.5t-160.5 -69.5q-42 0 -73 7.5t-47 7.5q-9 0 -26 -7t-20 -7t-14.5 6t-11.5 10q0 3 2 18t5 43t3 61v408q0 38 -6 68q-5 16 -52 16h-9q-6 0 -6 16t6 16q31 3 59 8t46.5 10t32 10t21 7.5l7.5 2.5h2
q4 0 8 -5.5t5 -10.5q-11 -39 -11 -94v-160v-1v-4.5t0.5 -4.5t2 -3t3.5 1q14 10 40.5 20t50.5 10zM260 388q-33 0 -54 -19t-21 -45v-212q0 -35 26.5 -53t62.5 -18q52 0 78.5 47t26.5 114q0 86 -31 136t-88 50z" />
    <glyph glyph-name="c" unicode="c" horiz-adv-x="435" 
d="M242 442q53 0 94.5 -17.5t59.5 -38.5q0 -34 -11.5 -56.5t-34.5 -22.5q-19 0 -30.5 10t-23.5 33q-23 46 -67 46q-43 0 -68.5 -43.5t-25.5 -109.5q0 -90 37 -133.5t94 -43.5q15 0 29 1.5t26 5t21 6.5t18.5 9t13.5 8.5t12 8l8 5.5q2 -1 5 -6t3 -10q0 -11 -6 -19
q-15 -27 -59 -54t-98 -27q-89 0 -151.5 65t-62.5 159q0 91 60 157.5t157 66.5z" />
    <glyph glyph-name="d" unicode="d" horiz-adv-x="520" 
d="M243 396q-53 0 -80 -45t-27 -121q0 -85 31 -132.5t87 -47.5q34 0 55 17.5t21 44.5v210q0 10 -3.5 21t-12 23.5t-27 21t-44.5 8.5zM252 444q43 0 73 -14q5 0 5 16v94q0 38 -6 68q-5 16 -52 16h-8q-6 0 -6 16t6 16q30 3 58.5 8t47 10t32 10t20.5 7.5t8 2.5h2q4 0 8 -5.5
t4 -10.5q-10 -39 -10 -94v-440q0 -46 6 -74q1 -7 10 -11t19 -5t19 -1.5t10 -0.5q2 -2 2 -12q0 -20 -6 -20q-14 -1 -35.5 -4t-42 -6.5t-39 -7t-30 -6l-11.5 -2.5q-6 0 -6 17v17q0 3 -1.5 4t-2.5 0q-48 -37 -104 -37q-81 0 -141 59.5t-60 149.5q0 99 68.5 169.5t162.5 70.5z
" />
    <glyph glyph-name="e" unicode="e" horiz-adv-x="436" 
d="M225 396q-24 0 -43 -14t-29 -34t-14.5 -37.5t-4.5 -29.5q0 -7 6 -7h162q9 0 9 15q0 35 -23.5 71t-62.5 36zM232 442q47 0 84 -18.5t58 -47t32 -59t11 -58.5q0 -22 -7.5 -27.5t-30.5 -5.5h-239q-7 0 -7 -6q0 -36 13 -70t44.5 -59t75.5 -25q15 0 29 1.5t26 5t21 6.5t18.5 9
t13.5 8.5t12 8l8 5.5q2 -1 5 -6t3 -10q0 -11 -6 -19q-15 -27 -59 -54t-99 -27q-87 0 -150 64.5t-63 156.5q0 101 58.5 164t148.5 63z" />
    <glyph glyph-name="f" unicode="f" horiz-adv-x="349" 
d="M312 695q42 0 69.5 -10.5t36.5 -25.5q4 -31 -5.5 -55.5t-36.5 -24.5q-17 0 -30.5 16.5t-28.5 33t-35 16.5q-27 0 -45 -26t-25.5 -63t-7.5 -81v-46q0 -1 2 -3t4 -2h110q4 0 5 -1t1 -6q0 -22 -12 -46h-104q-6 0 -6 -6v-223q0 -59 8 -90q2 -7 26.5 -14.5t33.5 -7.5
q3 0 3.5 -14.5t-1.5 -19.5q-6 1 -52 4t-70 3t-68 -3t-52 -4q-3 3 -4 11t0 15.5t4 7.5q11 0 35 7.5t26 14.5q9 35 9 82v230q0 7 -6 7h-60q-2 0 -2 6q0 11 14 29t32 18h16q6 0 6 6v10q0 105 62.5 180t147.5 75z" />
    <glyph glyph-name="g" unicode="g" horiz-adv-x="477" 
d="M356 -83q0 35 -50.5 46.5t-135.5 11.5q-2 0 -5 -1q-2 -1 -5 -3q-13 -5 -20 -8.5t-16 -11t-13.5 -17.5t-4.5 -24q0 -36 38 -60t85 -24q56 0 91.5 26t35.5 65zM142 295q0 -49 20 -82.5t56 -33.5q37 0 54.5 28.5t17.5 70.5q0 53 -20 86t-58 33q-36 0 -53 -31t-17 -71z
M218 440q36 0 83 -13t80 -13h57q2 0 7 -13t5 -20q0 -14 -6 -14h-65q-4 0 -4 -3q0 -1 9 -26t9 -48q0 -59 -49.5 -106.5t-123.5 -47.5q-36 0 -62 4q-12 -5 -22 -18.5t-10 -24.5q0 -10 9.5 -17t29.5 -10t34 -4t40 -2h15q100 -3 146.5 -27.5t46.5 -73.5q1 -75 -72 -130t-169 -55
q-73 -1 -127.5 28t-54.5 82q0 29 28.5 56t61.5 38q-26 8 -48 30.5t-22 52.5q0 43 74 89q-29 13 -54 51.5t-25 81.5q0 71 52 112t127 41z" />
    <glyph glyph-name="h" unicode="h" horiz-adv-x="578" 
d="M354 442q128 0 128 -197v-103q0 -61 8 -90q1 -7 26.5 -14.5t34.5 -7.5q3 0 3.5 -14.5t-0.5 -19.5q-7 1 -53.5 4t-68.5 3q-25 0 -67.5 -3t-52.5 -4q-3 4 -3 19t3 15q12 0 34.5 7.5t25.5 14.5q6 30 6 73v98q0 83 -22.5 114.5t-71.5 31.5q-30 0 -55 -17t-25 -38v-172
q0 -61 8 -90q2 -7 26.5 -14.5t33.5 -7.5q3 0 3.5 -14.5t-1.5 -19.5q-8 1 -52.5 4t-67.5 3q-24 0 -69.5 -3t-53.5 -4q-4 4 -4 19t4 15q12 0 36.5 7.5t26.5 14.5q7 30 7 72v416q0 40 -5 68q-5 16 -52 16h-9q-6 0 -6 16t6 16q31 3 59 8t46.5 10t32 10t21 7.5l7.5 2.5h2
q4 0 8 -5.5t5 -10.5q-12 -39 -12 -94v-202q0 -6 4 -6q1 0 4 3q21 24 61.5 43.5t80.5 19.5z" />
    <glyph glyph-name="i" unicode="i" horiz-adv-x="300" 
d="M83 604.5q0 25.5 18 43.5t44 18t44 -18t18 -43.5t-18 -44t-44 -18.5t-44 18.5t-18 44zM205 142q0 -61 8 -90q2 -7 27 -14.5t34 -7.5q4 0 4.5 -14.5t-1.5 -19.5q-7 1 -53.5 4t-68.5 3q-25 0 -70.5 -3t-52.5 -4q-4 4 -4 19t4 15q11 0 36 7.5t27 14.5q7 30 7 73v163
q0 47 -16 64q-9 10 -23 15t-24 6t-10 3q0 29 6 30q28 2 81 12t79 18q1 0 4.5 1l3.5 1q5 0 8 -7t2 -11q-8 -64 -8 -86v-192z" />
    <glyph glyph-name="j" unicode="j" horiz-adv-x="280" 
d="M108 288q0 47 -16 64q-8 10 -22 15t-24 6t-10 3q0 29 6 30q28 2 81 12t79 18q1 0 4.5 1l3.5 1q5 0 8 -7t2 -11q-8 -68 -8 -86v-240q0 -137 -44 -205q-24 -38 -73.5 -72.5t-77.5 -40.5q-13 7 -15 19v4.5t1 4.5l6.5 3t15.5 10.5t20.5 19t22.5 32t20 47.5t14.5 67.5
t5.5 88.5v216zM87 604.5q0 25.5 18 43.5t44 18t44 -18t18 -43.5t-18 -44t-44 -18.5t-44 18.5t-18 44z" />
    <glyph glyph-name="k" unicode="k" horiz-adv-x="596" 
d="M445 375q-20 -12 -63.5 -45t-79.5 -70q29 -31 73 -81t73 -82t40 -41q15 -12 38.5 -20t33.5 -8q4 0 4 -17q0 -11 -1 -14q-110 5 -117 5q-19 0 -38.5 -1t-43 -2.5t-37.5 -2.5q-4 4 -4 18t4 14q10 0 23 4.5t13 9.5q0 2 -1 2l-146 163l-12 -3v-62q1 -65 8 -90q2 -7 27 -14.5
t35 -7.5q3 0 3.5 -14.5t-1.5 -19.5q-7 1 -53 4t-69 3q-24 0 -69.5 -3t-53.5 -4q-4 4 -4 19t4 15q12 0 36.5 7.5t26.5 14.5q7 30 7 73v415q0 40 -5 68q-5 16 -52 16h-9q-6 0 -6 16t6 16q31 3 59 8t46.5 10t32 10t21 7.5l7.5 2.5h2q4 0 8 -5.5t5 -10.5q-12 -39 -12 -94v-334
q24 6 30 11q21 19 45.5 39.5t35.5 29.5t22 19.5t14.5 16.5t3.5 12q0 11 -22.5 13.5t-22.5 3.5q-3 7 -3 17.5t4 11.5h97q27 0 106 4q4 -3 5 -11t-0.5 -15t-4.5 -7q-36 0 -69 -20z" />
    <glyph glyph-name="l" unicode="l" horiz-adv-x="295" 
d="M201 144q0 -62 7 -90q2 -7 24.5 -15.5t30.5 -8.5q3 0 3.5 -14t-1.5 -19q-14 1 -37.5 2.5t-42.5 2.5t-36 1q-19 0 -38 -1t-42 -2.5t-38 -2.5q-4 4 -4 18.5t4 14.5q11 0 33.5 8.5t24.5 15.5q8 35 8 74v416q0 38 -6 68q-5 16 -50 16h-10q-6 0 -6 12q0 16 6 16q31 3 59 8
t46.5 10t32 9.5t21.5 7.5l7 3h2q4 0 8.5 -6t5.5 -10q-12 -38 -12 -94v-440z" />
    <glyph glyph-name="m" unicode="m" horiz-adv-x="844" 
d="M354 442q38 0 65 -19.5t40 -50.5q29 30 73 50t94 20q36 0 61.5 -16t40 -44.5t21 -62t6.5 -72.5v-105q0 -61 7 -90q2 -7 27 -14.5t34 -7.5q3 0 3.5 -14.5t-1.5 -19.5q-7 1 -52.5 4t-68.5 3q-24 0 -68.5 -3t-53.5 -4q-3 4 -3 19t3 15q12 0 36 7.5t26 14.5q7 30 7 70v102
q0 145 -93 145q-33 0 -55 -16t-26 -31q0 -3 -0.5 -8t0.5 -8q3 -22 3 -62v-106q0 -57 7 -86q2 -7 27 -14.5t34 -7.5q3 0 3.5 -14.5t-1.5 -19.5q-7 1 -52.5 4t-68.5 3q-24 0 -68.5 -3t-53.5 -4q-3 4 -3 19t3 15q12 0 36 7.5t26 14.5q7 30 7 73v96q0 78 -23 113t-68 35
q-30 0 -55 -17t-25 -38v-172q0 -61 8 -90q2 -7 26 -14.5t33 -7.5q4 0 4.5 -14.5t-1.5 -19.5q-8 1 -52.5 4t-67.5 3q-25 0 -70 -3t-53 -4q-4 4 -4 19t4 15q11 0 36 7.5t27 14.5q7 30 7 73v163q0 47 -16 64q-8 10 -22.5 15t-24.5 6t-10 3q0 29 6 30q46 4 160 30q1 1 3 1.5
t3.5 0.5h1.5q5 0 8 -7t2 -11q-4 -28 -4 -36q0 -4 2 -5q1 0 5 3q24 24 61.5 42t76.5 18z" />
    <glyph glyph-name="n" unicode="n" horiz-adv-x="584" 
d="M354 442q129 0 129 -205v-95q0 -61 7 -90q2 -7 27.5 -14.5t34.5 -7.5q3 0 3.5 -14.5t-1.5 -19.5q-6 1 -52.5 4t-69.5 3q-24 0 -66.5 -3t-51.5 -4q-4 4 -4 19t4 15q11 0 33.5 7.5t24.5 14.5q8 30 8 73v95q0 83 -22.5 116t-71.5 33q-32 0 -56 -17.5t-24 -37.5v-172
q0 -61 7 -90q2 -7 26.5 -14.5t32.5 -7.5q4 0 4.5 -14.5t-1.5 -19.5q-8 1 -52.5 4t-67.5 3q-24 0 -69.5 -3t-53.5 -4q-4 4 -4 19t4 15q12 0 36.5 7.5t26.5 14.5q7 30 7 73v163q0 47 -16 64q-8 10 -22.5 15t-24 6t-9.5 3q0 29 5 30q46 4 161 30q1 1 2.5 1.5t3 0.5h2.5
q4 0 7 -7t3 -11q-4 -28 -4 -36q0 -4 1 -5q1 0 5 3q24 24 61.5 42t76.5 18z" />
    <glyph glyph-name="o" unicode="o" horiz-adv-x="507" 
d="M240 395q-47 0 -73 -45.5t-26 -108.5q0 -81 32.5 -141t90.5 -60q47 0 73.5 46t26.5 108q0 52 -13 96.5t-42 74.5t-69 30zM253 442q94 0 160.5 -65.5t66.5 -158.5t-65.5 -159t-160.5 -66t-161 66t-66 159q0 94 65.5 159t160.5 65z" />
    <glyph glyph-name="p" unicode="p" horiz-adv-x="540" 
d="M300 441q64 0 114 -33t74 -80t24 -98q0 -103 -69.5 -170.5t-165.5 -67.5q-29 0 -71 14q-4 0 -4 -14v-68q0 -62 8 -90q1 -8 26.5 -15.5t34.5 -7.5q3 0 3.5 -14.5t-0.5 -18.5q-7 0 -53.5 3t-68.5 3q-25 0 -70.5 -3t-53.5 -3q-3 4 -3 18.5t3 14.5q12 0 36.5 7.5t27.5 15.5
q6 29 6 72v382q0 48 -16 65q-8 10 -22 14.5t-24 5.5t-10 3q0 29 6 30q83 8 149 28l9 2.5t10 2.5q4 0 4 -21q0 -4 -2 -12q16 12 44.5 23.5t53.5 11.5zM276 388q-33 0 -53.5 -19t-20.5 -51v-206q0 -33 27 -52.5t58 -19.5q46 0 77.5 42t31.5 118q0 81 -32 134.5t-88 53.5z" />
    <glyph glyph-name="q" unicode="q" horiz-adv-x="487" 
d="M264 444q40 0 73 -7.5t47 -7.5q9 0 25.5 6.5t18.5 6.5q4 0 16 -6t12 -10q0 -1 -3 -16.5t-6 -45.5t-3 -64v-383q0 -55 7 -84q2 -7 27 -15t34 -8q4 0 4.5 -14t-1.5 -18q-7 0 -53 3t-69 3q-24 0 -69.5 -3t-53.5 -3q-4 3 -4 17.5t4 14.5q12 0 36.5 8t26.5 15q7 30 7 73v106v5
t-1 4.5t-2 2.5h-3q-50 -30 -94 -30q-85 0 -147 63t-62 151q0 95 69 165.5t164 70.5zM252 396q-30 0 -52 -15.5t-33 -40.5t-16 -51t-5 -54q0 -82 31.5 -133.5t90.5 -51.5q26 0 49 15.5t23 44.5v210q0 30 -21 53t-67 23z" />
    <glyph glyph-name="r" unicode="r" horiz-adv-x="430" 
d="M320 442q55 0 82 -33q0 -85 -48 -85q-18 0 -39 20t-43 20q-31 0 -48.5 -31.5t-17.5 -65.5v-125q0 -61 7 -90q2 -7 26.5 -14.5t33.5 -7.5q3 0 3.5 -14.5t-0.5 -19.5q-8 1 -53 4t-68 3q-24 0 -69.5 -3t-53.5 -4q-4 4 -4 19t4 15q12 0 36.5 7.5t26.5 14.5q7 30 7 73v163
q0 47 -16 64q-8 10 -22.5 15t-24 6t-9.5 3q0 29 5 30q46 4 161 30l3.5 1t4.5 1q4 0 7 -7t2.5 -11.5t-1.5 -14t-2.5 -20t-1.5 -13.5q18 27 49 48.5t63 21.5z" />
    <glyph glyph-name="s" unicode="s" horiz-adv-x="366" 
d="M190 443q56 0 116 -17q10 -45 11 -112q0 -8 -13 -8q-22 0 -24 8q-7 35 -29.5 59.5t-60.5 24.5q-29 0 -45.5 -13t-16.5 -37q0 -14 5.5 -25.5t18 -21.5t22 -16t28.5 -16q7 -4 10 -5q2 -1 15 -8t16.5 -9t16 -9.5t17.5 -11.5t15.5 -12t15 -14t12 -15.5t10.5 -18t5.5 -19
t2.5 -21.5q0 -63 -48.5 -99.5t-117.5 -36.5q-62 0 -129 28q-5 17 -10 55.5t-5 57.5q6 5 14 5q23 0 24 -8q8 -42 39.5 -67.5t68.5 -25.5q28 0 46 14t18 41q0 10 -2.5 18.5t-9.5 17t-11.5 14t-18 13.5t-20 11.5t-25 13t-25.5 13.5q-46 24 -71 53.5t-25 71.5q0 61 48 94t112 33
z" />
    <glyph glyph-name="t" unicode="t" horiz-adv-x="350" 
d="M85 372h-61q-7 0 -7 26q0 7 1 9q40 18 77 53q13 13 28.5 29.5t26 29.5l10.5 13q10 0 19 -2.5t9 -5.5v-98q26 0 72.5 -0.5t49.5 -0.5q8 0 8 -9q0 -24 -10 -44h-120v-241q0 -40 17 -61t47 -21q10 0 21 2.5t18 5.5t13 6t7 3q4 1 9 -9t4 -13q-6 -14 -42.5 -32.5t-71.5 -18.5
q-52 0 -88.5 33.5t-36.5 103.5v242z" />
    <glyph glyph-name="u" unicode="u" horiz-adv-x="555" 
d="M464 334v-198q0 -48 8 -70q3 -5 11.5 -8t17.5 -4t16.5 -1t8.5 -1q4 -1 4 -9q0 -4 -2 -13.5t-6 -9.5q-14 0 -35.5 -3.5t-41.5 -7t-38 -7.5t-29 -6l-11 -2q-7 0 -7 16v44q-1 5 -3 5q-23 -25 -61 -45t-79 -20q-34 0 -59.5 17t-40 44t-21 58t-6.5 63v112q0 47 -16 64
q-9 10 -23 15t-24 6t-10 3q0 29 5 30q29 2 82 12t79 18q1 0 4 1t4 1q5 0 7.5 -7t2.5 -11q-9 -68 -9 -88v-120q0 -78 22 -112t71 -34q32 0 54 19.5t22 37.5v165q0 47 -16 64q-8 10 -22.5 15t-24.5 6t-10 3q0 29 6 30q28 2 81 12t79 18q1 0 4.5 1l3.5 1q5 0 8 -7t2 -11
q-8 -68 -8 -86z" />
    <glyph glyph-name="v" unicode="v" horiz-adv-x="560" 
d="M396 379q-13 27 -70 27q-3 0 -3 14t3 18q14 0 48.5 -3t57 -3t58.5 3t49 3q3 -4 3 -16q0 -16 -6 -16q-14 0 -39 -9.5t-34 -28.5l-167 -353q-4 -8 -13 -17t-17 -9q-10 0 -12 6q-20 45 -54.5 124.5t-59.5 134.5t-57 124q-12 28 -65 28q-4 0 -4 16q0 12 4 16q9 0 53 -3t68 -3
t69 3t52 3q3 -4 2.5 -18t-4.5 -14q-13 0 -35.5 -6t-22.5 -16q0 -7 2 -10l99 -230l90 198q12 26 5 37z" />
    <glyph glyph-name="w" unicode="w" horiz-adv-x="815" 
d="M654 366q0 12 -8 20.5t-20.5 12t-23 5t-20.5 1.5h-4q-4 0 -4.5 15t2.5 18q13 0 53 -3t64 -3q21 0 53.5 3t47.5 3q2 -7 2 -17q0 -15 -4 -15q-12 0 -39.5 -12.5t-34.5 -30.5l-148 -353q-4 -8 -13.5 -14.5t-19.5 -6.5t-13 7l-122 276l-107 -261q-3 -6 -11.5 -14t-21.5 -8
q-10 0 -14 7q-23 52 -54.5 126.5t-57.5 131.5t-60 124q-7 13 -26 20t-32 7q-4 0 -4 16q0 14 4 17q10 0 50.5 -3t63.5 -3t68 3t52 3q2 -5 2 -18t-3 -14q-13 0 -34.5 -7t-21.5 -21q0 -2 100 -230q11 28 25.5 63.5t22 54t15 37.5t10.5 28.5t3 12.5q0 20 -13 40q-7 10 -22 16
q-11 6 -36 6q-4 0 -4 14.5t4 17.5q11 0 49.5 -3t62.5 -3q22 0 65 3t51 3q2 -4 1.5 -18.5t-3.5 -14.5q-51 0 -51 -35q0 -19 94 -222q16 42 39.5 98.5t34.5 84t11 35.5z" />
    <glyph glyph-name="x" unicode="x" horiz-adv-x="566" 
d="M32 422q0 10 4 16q110 -6 118 -6t120 6q2 -4 2 -14q0 -18 -4 -18q-14 0 -28 -5.5t-14 -15.5q0 -5 5 -12l63 -89q7 10 27 37t29.5 42t9.5 23q0 7 -8.5 11.5t-18 5.5t-20 1.5t-11.5 1.5q-4 0 -4 16q0 12 4 16q109 -6 116 -6t104 6q2 -7 2 -16q0 -16 -2 -16q-68 -8 -88 -32
l-106 -124q-2 -4 -2 -8q0 -6 4 -10l113 -155q30 -42 83 -49q3 0 3 -17q0 -9 -4 -15q-15 1 -36.5 3t-39 3t-37.5 1q-22 0 -41 -1t-42.5 -3t-40.5 -3q-2 10 -2 13q0 21 3 21q14 0 29 7t15 17q0 2 -2 6l-72 100l-63 -88q-7 -9 -7 -18q0 -6 3.5 -10t11.5 -6.5t13.5 -3.5t17 -2.5
t13.5 -1.5q3 0 3 -17q0 -13 -4 -17q-15 1 -35.5 3t-37.5 3t-36 1t-36 -1t-38 -3t-36 -3q-2 8 -2 17q0 17 4 17q65 10 87 38l107 130q2 4 2 8q0 3 -3 7l-115 156q-11 15 -35 25.5t-41 10.5q-4 0 -4 17z" />
    <glyph glyph-name="y" unicode="y" horiz-adv-x="524" 
d="M134 432q22 0 63 3t51 3q2 -7 2 -18q0 -14 -4 -14q-10 0 -31.5 -7.5t-22.5 -16.5v-6q2 -16 93 -228q8 18 39 98.5t36 92.5q6 17 6 31q0 13 -16 24.5t-48 11.5q-4 0 -4 15q0 13 4 17q12 0 49 -3t61 -3q21 0 51.5 3t44.5 3q4 -6 4 -16q0 -16 -4 -16q-14 0 -40.5 -10
t-34.5 -30l-183 -442q-62 -146 -149 -146q-26 0 -40 14t-14 32q0 26 19 39q104 0 137 82q24 60 27 68l-146 340q-8 18 -12 23q-10 15 -29.5 22.5t-32.5 7.5q-4 0 -4 14q0 16 3 18q6 0 53.5 -3t71.5 -3z" />
    <glyph glyph-name="z" unicode="z" horiz-adv-x="431" 
d="M158 54q0 -3 5 -5t7 -2h97q74 0 100 78q3 10 17.5 10t19.5 -8l-18 -127h-340q-20 12 -20 23q0 3 1 4l231 349l-106 2q-10 0 -19 -2.5t-16 -6t-13.5 -9.5t-10 -11t-8 -12.5t-6.5 -11.5t-5 -11t-3 -8q-3 -6 -25 -6q-11 0 -11 2q0 5 7 51.5t9 76.5q59 -6 95 -6h122
q60 0 126 8q2 -5 2 -24l-230 -340q-8 -10 -8 -14z" />
    <glyph glyph-name="braceleft" unicode="{" horiz-adv-x="290" 
d="M26 292q-4 8 -4 18q0 11 4 18q28 7 44 13.5t30 23t14 41.5t-17 80.5t-17 87.5q0 80 57 128t127 48q4 0 4 -10q0 -20 -8 -21q-29 -2 -60.5 -32t-31.5 -74q0 -35 17 -88.5t17 -96.5q0 -47 -27 -83.5t-55 -36.5q29 0 55.5 -35t26.5 -81q0 -43 -17 -91t-17 -83q0 -44 32 -77
t60 -35q8 -1 8 -22q0 -9 -4 -9q-67 0 -124.5 53t-57.5 128q0 30 16 84t16 79q0 11 -2 20t-8.5 15.5t-10.5 11t-15 9t-15.5 6.5t-19 6t-17.5 5z" />
    <glyph glyph-name="bar" unicode="|" horiz-adv-x="145" 
d="M111 -106q0 -4 -32 -10t-38 -6t-6 7v872q-1 6 5 8q24 7 62 7q4 0 6 -1.5t2 -2.5v-2z" />
    <glyph glyph-name="braceright" unicode="}" horiz-adv-x="289" 
d="M264 292q-3 -1 -17.5 -5t-19 -6t-15.5 -6.5t-15 -9t-10.5 -11t-8.5 -15.5t-2 -20q0 -25 16 -79t16 -84q0 -75 -58 -128t-125 -53q-4 0 -4 9q0 20 9 22q28 2 59.5 35t31.5 77q0 35 -17 83t-17 91q0 46 27 81t56 35q-28 0 -55 36.5t-27 83.5q0 43 16.5 96.5t16.5 88.5
q0 44 -31.5 74t-59.5 32q-9 1 -9 21q0 10 4 10q70 0 127.5 -48t57.5 -128q0 -32 -17 -87.5t-17 -80.5q0 -36 22.5 -52t64.5 -26q4 -7 4 -18q0 -12 -3 -18z" />
    <glyph glyph-name="asciitilde" unicode="~" horiz-adv-x="520" 
d="M37 256q-9 4 -9 22q0 24 24 40q53 38 106 38q47 0 118 -26t118 -26q7 0 14 1t12 2.5t12 5t10.5 5t11 7t9.5 7t10.5 8t10.5 8.5q9 -4 9 -22q0 -23 -23 -40q-50 -38 -105 -38q-47 0 -118 26t-119 26q-18 0 -36 -8t-25.5 -13t-29.5 -23z" />
    <glyph glyph-name="uni00A0" unicode="&#xa0;" horiz-adv-x="209" 
 />
    <glyph glyph-name="exclamdown" unicode="&#xa1;" horiz-adv-x="179" 
d="M91 -231q-25 0 -40.5 18.5t-15.5 46.5q0 17 6 78.5t15.5 155t14.5 160.5q3 23 18 28q8 1 14.5 -6.5t8.5 -19.5q7 -81 16 -176t14 -149t5 -71q0 -28 -16 -46.5t-40 -18.5zM25 370q0 28 20 48t46 20q27 0 45.5 -20.5t18.5 -47.5t-19 -46.5t-47 -19.5q-26 0 -45 19t-19 47z
" />
    <glyph glyph-name="cent" unicode="&#xa2;" horiz-adv-x="463" 
d="M277 474q37 0 37 -8l-83 -511q-37 0 -37 9zM260 441q54 0 97 -17.5t57 -39.5q0 -77 -46 -77q-15 0 -25.5 10t-22.5 31q-15 24 -31 36t-43 12q-43 0 -68.5 -42.5t-25.5 -109.5q0 -92 37 -137t96 -45q20 0 39 4t33.5 11t24 12.5t19 13t11.5 7.5t5 -5.5t3 -10.5
q0 -12 -6 -19q-18 -27 -61.5 -55t-97.5 -28q-91 0 -151.5 63t-60.5 163q0 90 62 156.5t155 66.5z" />
    <glyph glyph-name="sterling" unicode="&#xa3;" horiz-adv-x="482" 
d="M54 327h272q6 0 6 -10q0 -7 -4 -17.5t-12 -15.5h-263q-5 0 -5 14q0 20 6 29zM286 638q33 0 61 -10.5t39 -28.5q0 -16 -2.5 -30.5t-12 -28t-25.5 -13.5q-15 0 -27 10t-19 22t-19 22.5t-27 10.5q-41 0 -57.5 -34t-16.5 -94q0 -23 10 -101t10 -104q0 -99 -44 -165q22 8 62 8
q29 0 80.5 -15t66.5 -15q12 0 21.5 3.5t18 13t13 15.5t12.5 20t10 18q6 0 12 -6.5t6 -13.5t-1 -11q-8 -25 -19.5 -48.5t-38.5 -47t-59 -23.5q-35 0 -99.5 18t-87.5 18q-9 0 -18 -2.5t-15.5 -4.5t-15 -7t-12 -7.5t-12 -8.5l-8.5 -6q-12 1 -19 9t-7 14q8 13 26.5 37t23.5 30
q14 32 14 152q0 17 -10 93t-10 104q0 92 56 149.5t140 57.5z" />
    <glyph glyph-name="currency" unicode="&#xa4;" horiz-adv-x="468" 
d="M243 158q40 0 62 38.5t22 89.5q0 69 -27 120.5t-76 51.5q-39 0 -61 -39.5t-22 -92.5q0 -68 27 -118t75 -50zM347 458l55 52q4 4 13 -2.5t18 -19.5t12 -24l-55 -51q33 -49 33 -105q0 -63 -38 -114l50 -52q4 -4 -2.5 -13t-19.5 -18t-24 -12l-50 53q-48 -32 -105 -32
q-65 0 -116 38l-53 -49q-4 -4 -13 2.5t-17.5 19t-11.5 24.5l52 49q-30 45 -30 104q0 64 39 116l-51 54q-4 4 2.5 13t19 17.5t24.5 11.5l51 -54q46 31 104 31q61 0 113 -39z" />
    <glyph glyph-name="yen" unicode="&#xa5;" horiz-adv-x="673" 
d="M154 636q16 0 134 6q2 -4 2 -18t-4 -14q-15 0 -35 -6.5t-20 -19.5q0 -10 9 -26l104 -192q6 -5 10 2q43 64 82 130.5t39 85.5q0 10 -18 18t-47 8q-4 0 -4.5 14t3.5 18q99 -6 107 -6q23 0 125 6q3 -8 3 -16q0 -16 -4 -16q-16 0 -45.5 -8.5t-40.5 -23.5
q-29 -43 -102.5 -162.5t-73.5 -132.5v-27h80q6 0 6 -12q0 -19 -6 -29h-80v-38h80q6 0 6 -13q0 -19 -6 -28h-80q0 -56 8 -84q1 -7 26 -15.5t34 -8.5q4 0 4 -15q0 -11 -2 -17q-3 1 -50.5 4t-73.5 3t-72.5 -3t-56.5 -4q-4 4 -4 15q0 17 3 17q12 0 36.5 8t27.5 16q8 28 8 84h-81
q-5 0 -5 12q0 17 6 29h80v38h-81q-5 0 -5 13q0 16 6 28h80v24q-1 4 -8 18.5t-23 43t-28.5 51t-37.5 67t-37 64.5q-25 47 -48 68q-22 18 -58 18q-3 0 -3.5 10t1.5 14q24 2 130 2z" />
    <glyph glyph-name="brokenbar" unicode="&#xa6;" horiz-adv-x="143" 
d="M110 414q0 -4 -32 -10t-38 -6t-6 7v352q-1 6 5 8q24 7 62 7q4 0 6 -1.5t2 -2.5v-2zM110 -106q0 -4 -32 -10t-38 -6t-6 7v352q-1 6 5 8q24 7 62 7q4 0 6 -1.5t2 -2.5v-2z" />
    <glyph glyph-name="section" unicode="&#xa7;" horiz-adv-x="394" 
d="M368 276q0 -46 -20.5 -81t-42.5 -51q13 -29 13 -54q0 -49 -26.5 -80.5t-57.5 -41t-65 -9.5t-59 11t-34 24q0 2 -0.5 8t-0.5 8q0 48 32 48q16 0 43 -25t51 -25q27 0 44.5 14t17.5 38q0 34 -24.5 58t-59.5 41t-70 37t-59.5 56t-24.5 86q0 84 61 128q-12 21 -12 52
q0 64 43 98.5t106 34.5q34 0 58.5 -11.5t33.5 -25.5q0 -2 1 -8t1 -8q0 -48 -34 -48q-13 0 -40 26t-51 26q-25 0 -44 -12.5t-19 -41.5q0 -32 24.5 -55.5t59.5 -40.5t70.5 -36t60 -54.5t24.5 -85.5zM289 179q22 22 22 46q0 37 -25.5 65t-58 43.5t-70 41t-54.5 55.5
q-20 -16 -20 -48q0 -38 24.5 -65t56.5 -41.5t69.5 -40t55.5 -56.5z" />
    <glyph glyph-name="dieresis" unicode="&#xa8;" horiz-adv-x="366" 
d="M229 514q0 24 17 41.5t41 17.5t41.5 -17.5t17.5 -41.5t-17.5 -41t-41.5 -17t-41 17t-17 41zM27 514q0 24 17 41.5t41 17.5t41.5 -17.5t17.5 -41.5t-17.5 -41t-41.5 -17t-41 17t-17 41z" />
    <glyph glyph-name="copyright" unicode="&#xa9;" horiz-adv-x="600" 
d="M65 342q0 -97 69 -166t167 -69q97 0 166 68.5t69 166.5t-69 166.5t-166 68.5q-98 0 -167 -69t-69 -166zM27 342q0 113 80 193t193 80t193.5 -80t80.5 -193t-80.5 -193t-193.5 -80t-193 80t-80 193zM419 272q0 -6 -7 -29.5t-13 -26.5q-38 -19 -100 -19q-58 0 -98 41
t-40 98q0 60 40 103t100 43q54 0 104 -16q1 0 6.5 -30t5.5 -34q0 -6 -12 -6q-6 0 -10 2q-3 10 -10 20t-27.5 21t-50.5 11q-37 0 -59.5 -31t-22.5 -73q0 -52 27 -85t67 -33q43 0 62 17q5 5 9.5 13t7 13t3.5 5q16 0 18 -4z" />
    <glyph glyph-name="ordfeminine" unicode="&#xaa;" horiz-adv-x="330" 
d="M184 325v68q-5 -2 -25 -8.5t-29.5 -10.5t-19 -14.5t-9.5 -23.5q0 -21 11 -32t27 -11q18 0 31.5 10t13.5 22zM255 322q0 -32 23 -32q6 0 11.5 2.5t8 5t3.5 2.5q4 0 4 -6q0 -7 -5 -22q-30 -22 -59 -22q-16 0 -30.5 11.5t-19.5 24.5l-9 -6q-8 -7 -18 -13.5t-26.5 -12.5
t-33.5 -6q-37 0 -57 21t-20 55q0 19 9.5 33.5t29.5 25.5t35 16.5t42.5 13.5t34.5 11q6 2 6 11v41q0 22 -11 35t-28 13q-20 0 -33 -14t-13 -38q0 -20 -37 -20q-30 0 -30 22q0 28 42.5 55t89.5 27q45 0 68 -22t23 -74v-138z" />
    <glyph glyph-name="guillemotleft" unicode="&#xab;" horiz-adv-x="470" 
d="M299 248q4 -4 38 -39t42 -42q62 -60 66 -67q1 -3 1 -6q0 -11 -29 -21q-1 2 -19.5 18.5t-69.5 55t-117 80.5q-7 3 -7 14q0 18 8 27q37 22 71 46t57.5 42.5t41 33.5t26.5 24l10 9q11 -3 20 -9.5t9 -12.5q0 -9 -68 -73zM120 248q4 -4 37.5 -39t41.5 -42q62 -60 66 -66
q2 -4 2 -7q0 -11 -29 -21q-1 2 -19.5 18.5t-69.5 55t-117 80.5q-7 3 -7 14q0 18 8 27q37 22 71 46t57.5 42.5t41 33.5t27.5 24l9 9q11 -3 20 -9.5t9 -12.5q0 -10 -67 -73z" />
    <glyph glyph-name="logicalnot" unicode="&#xac;" horiz-adv-x="535" 
d="M28 370q5 54 15 54h446q12 0 12 -12v-243q-9 -9 -54 -15h-4l-6 7v189q0 3 -3.5 6.5t-8.5 3.5h-391q-6 0 -6 10z" />
    <glyph glyph-name="registered" unicode="&#xae;" horiz-adv-x="599" 
d="M264 321q1 -28 4 -40q1 -3 11 -6.5t14 -3.5q2 0 2 -5.5t-1 -7.5q-51 3 -61 3l-60 -3q-1 1 -1 6q0 7 1 7q5 0 15.5 3.5t11.5 6.5q3 10 3 37v168q0 26 -3 36q-1 3 -11.5 6.5t-15.5 3.5q-1 0 -1 6q0 7 1 8q5 0 29.5 -2t30.5 -2q13 0 30.5 1.5t30.5 1.5q36 0 67.5 -17
t31.5 -57q0 -25 -12 -45.5t-32 -28.5q-4 -2 -2 -7q17 -45 60 -91q25 -28 46 -28q2 -4 2 -7q0 -4 -1 -6q-3 -1 -12 -1q-71 0 -119 67q-10 14 -20 30t-15.5 23.5t-10.5 10.5q-1 1 -6 1q-7 0 -7 -7v-61zM296 410q14 0 26 14.5t12 39.5q0 29 -11.5 43.5t-27.5 14.5q-21 0 -27 -2
q-3 0 -3 -4q-1 -12 -1 -40v-51q0 -7 4.5 -10.5t10 -4t18.5 -0.5h-1zM65 404q0 -97 69 -166t167 -69q97 0 166 68.5t69 166.5t-69 166.5t-166 68.5q-98 0 -167 -69t-69 -166zM27 404q0 113 80 193t193 80t193.5 -80t80.5 -193t-80.5 -193t-193.5 -80t-193 80t-80 193z" />
    <glyph glyph-name="macron" unicode="&#xaf;" horiz-adv-x="384" 
d="M68 541q0 10 3.5 33.5t10.5 23.5h229q5 0 5 -7q0 -23 -8 -52q-1 -3 -2.5 -4.5t-3.5 -2.5h-1h-227l-4 2q-2 3 -2 7z" />
    <glyph glyph-name="degree" unicode="&#xb0;" horiz-adv-x="234" 
d="M59 536q0 -24 17 -41t41 -17t40.5 17t16.5 41t-16.5 40.5t-40.5 16.5t-41 -16.5t-17 -40.5zM18 536q0 40 29 69t70 29t69.5 -29t28.5 -69q0 -41 -29 -70t-69 -29q-41 0 -70 29.5t-29 69.5z" />
    <glyph glyph-name="plusminus" unicode="&#xb1;" horiz-adv-x="532" 
d="M489 4h-456q-6 0 -6 10q0 22 8 49q1 3 2.5 4t2.5 1h2h456q8 0 8 -6q0 -15 -10 -52q-1 -3 -2.5 -4.5t-3.5 -1.5h-1zM298 306v-188q-7 -10 -52 -16q-2 0 -3.5 -0.5t-2.5 -0.5q-6 0 -6 8v195q0 5 -6 5h-195q-6 0 -6 10q0 22 8 49q1 3 2.5 4t2.5 1h2h187q5 0 5 6v186
q-1 5 5 7q27 8 49 8l10 -6v-196q0 -5 4 -5h196q8 0 8 -6q0 -15 -10 -52q-1 -3 -2.5 -4.5t-3.5 -1.5h-1h-187q-4 0 -4 -3z" />
    <glyph glyph-name="uni00B2" unicode="&#xb2;" horiz-adv-x="328" 
d="M134 590q-8 0 -16.5 -2.5t-15 -6t-14.5 -9.5t-12 -9.5t-10 -9.5l-7 -7q-4 -1 -12 9t-8 16q0 5 1 7q16 24 51 46t73 22q47 0 78.5 -31t31.5 -77q0 -31 -14 -61.5t-46 -62.5t-50 -47.5t-58 -46.5q-2 -2 -1 -4t3 -2h125q14 0 23 4.5t12 9t7 14.5t6 13q1 3 6 3q13 0 17 -5
q-4 -13 -24 -99h-114h-128q-12 10 -12 23q0 3 2 11q46 48 76 82.5t59 81.5t29 78q0 22 -15.5 41t-42.5 19z" />
    <glyph glyph-name="uni00B3" unicode="&#xb3;" horiz-adv-x="294" 
d="M166 646q28 0 56 -19.5t28 -54.5q0 -52 -70 -94q25 0 56.5 -29t31.5 -75q0 -64 -47 -96t-115 -32q-56 0 -78 24q-2 4 -2 12q0 14 10 24t22 10q14 0 33 -17t35 -17q32 0 54 22.5t22 63.5q0 74 -71 74q-4 0 -37 -3q-8 8 -8 17q0 10 6 13q84 18 84 85q0 19 -13.5 30.5
t-30.5 11.5q-22 0 -45 -19t-25 -19q-6 0 -12 12t-4 16q17 25 50.5 42.5t69.5 17.5z" />
    <glyph glyph-name="acute" unicode="&#xb4;" horiz-adv-x="247" 
d="M215 660q0 -25 -71.5 -80.5t-84.5 -55.5q-5 0 -10 5.5t-5 10.5q0 3 15 27.5t38 57.5t40 53q9 9 34 9q16 0 26.5 -6t14 -11.5t3.5 -9.5z" />
    <glyph glyph-name="uni00B5" unicode="&#xb5;" horiz-adv-x="513" 
d="M180 -9q-7 0 -13 1.5t-11.5 5.5t-9.5 7t-8.5 10.5t-6.5 11t-6 13t-5 12t-4.5 13t-3.5 11.5q0 -1 1 -53t6 -115t15 -115q-5 -7 -16 -13.5t-22 -6.5t-36 14t-25 23q0 32 6.5 180t14.5 214q0 12 -2 47.5t-2 46.5v124q4 6 16.5 13t21.5 7t33.5 -14.5t24.5 -23.5
q0 -54 -20 -148l-6 -33q0 -62 15.5 -104t42.5 -42q81 0 114 150v71v124q4 6 16.5 13t21.5 7t36.5 -14.5t27.5 -23.5q0 -50 -23 -158l-5 -23q0 -33 2 -58.5t7.5 -47t16.5 -33.5t28 -12t34.5 11t25.5 20q4 0 11 -11q3 -6 3 -16q-10 -33 -36.5 -56.5t-56.5 -23.5
q-33 1 -53.5 39t-27.5 93q-27 -62 -61 -99.5t-81 -37.5z" />
    <glyph glyph-name="paragraph" unicode="&#xb6;" horiz-adv-x="468" 
d="M276 274l2 -221q0 -13 21 -13q7 0 12 4.5t5 9.5q4 45 4 229q0 4 -4 4q-2 0 -6 -1t-11.5 -2t-14.5 -2q-8 -1 -8 -8zM206 652q30 0 56 -2t55 -2q30 0 59 1.5t44 2.5l14 2q4 -4 3 -17.5t-5 -13.5q-13 0 -34 -5.5t-24 -13.5q-3 -10 -3 -104q0 -36 0.5 -91.5t0.5 -59.5
q0 -3 1.5 -4.5t3.5 -0.5l43 9q4 -8 4 -16q0 -18 -20 -27q-9 -5 -26 -8q-5 -2 -5 -5q0 -223 7 -249q3 -8 25 -15t34 -7q4 0 4 -12q0 -14 -4 -18q-19 1 -72 3.5t-89 2.5q-20 0 -40 -1t-43 -2.5t-36 -2.5q-2 4 -1.5 17t3.5 13q9 0 31.5 7.5t24.5 14.5q5 21 5 135v87q0 7 -20 7
q-81 0 -128.5 57t-47.5 130q0 88 55.5 138t124.5 50zM278 597q-2 -160 -2 -262q0 -5 8 -5q15 0 30 5q6 2 6 7q0 230 -2 256q0 3 -6.5 7t-13.5 4q-20 0 -20 -12z" />
    <glyph glyph-name="periodcentered" unicode="&#xb7;" horiz-adv-x="220" 
d="M182 267q0 -27 -19.5 -47.5t-46.5 -20.5q-28 0 -48 20.5t-20 47.5t20 47t48 20q27 0 46.5 -20t19.5 -47z" />
    <glyph glyph-name="cedilla" unicode="&#xb8;" horiz-adv-x="443" 
d="M223 -28q18 1 22 1q21 0 35 -15t14 -35q0 -35 -27 -56t-69 -21q-28 0 -40 12q-3 12 -3 16q0 5 4 9.5t7 4.5t17.5 -7t25.5 -7q20 0 30.5 9t10.5 22q0 14 -8 22.5t-20 8.5q-13 0 -28 -6q-2 0 -7.5 5.5t-4.5 8.5q5 9 16.5 29.5t13.5 23.5h27z" />
    <glyph glyph-name="uni00B9" unicode="&#xb9;" horiz-adv-x="273" 
d="M37 548q-14 5 -14 18q0 8 1 9q39 18 78 36.5t57.5 28.5t19.5 10h1q3 0 8.5 -9t6.5 -13q-12 -36 -12 -82v-210q0 -25 10 -42q4 -5 23.5 -9.5t26.5 -4.5q4 0 4 -16q0 -8 -2 -12q-10 0 -46 2t-54 2q-19 0 -59 -2t-48 -2q-3 2 -3 15t3 13q10 0 30 4.5t23 9.5q9 18 9 32v198
q0 40 -16 40q-4 0 -47 -16z" />
    <glyph glyph-name="ordmasculine" unicode="&#xba;" horiz-adv-x="368" 
d="M177 523q-34 0 -51 -32.5t-17 -74.5q0 -56 20.5 -97.5t63.5 -41.5q33 0 49.5 32.5t16.5 74.5q0 56 -19.5 97.5t-62.5 41.5zM185 554q66 0 111.5 -45.5t45.5 -108.5t-45.5 -108t-111.5 -45t-112 45t-46 108q0 64 46 109t112 45z" />
    <glyph glyph-name="guillemotright" unicode="&#xbb;" horiz-adv-x="473" 
d="M173 248l-80 80q-68 64 -68 73q0 6 9 12.5t20 9.5l10 -9q9 -9 26.5 -24t41 -33.5t57.5 -42.5t71 -46q8 -9 8 -27q0 -11 -7 -14q-66 -42 -117 -80.5t-69.5 -55t-19.5 -18.5q-29 10 -29 21q0 9 48 55q12 11 19 18q8 7 42 42t38 39zM352 248l-81 80q-67 63 -67 73
q0 6 9 12.5t20 9.5l9 -9q10 -9 27.5 -24t41 -33.5t57.5 -42.5t71 -46q8 -9 8 -27q0 -11 -7 -14q-66 -42 -117 -80.5t-69.5 -55t-19.5 -18.5q-29 10 -29 21q0 8 41 48q17 15 27 25q8 7 41.5 42t37.5 39z" />
    <glyph glyph-name="onequarter" unicode="&#xbc;" horiz-adv-x="680" 
d="M36 548q-14 5 -14 18q0 8 1 9q39 18 78 36.5t57.5 28.5t19.5 10h1q3 0 8.5 -9t6.5 -13q-12 -36 -12 -82v-210q0 -25 10 -42q4 -5 23.5 -9.5t26.5 -4.5q4 0 4 -16q0 -8 -2 -12q-10 0 -46 2t-54 2q-19 0 -59 -2t-48 -2q-3 2 -3 15t3 13q10 0 30 4.5t23 9.5q9 18 9 32v198
q0 40 -16 40q-4 0 -47 -16zM580 -4q-41 0 -41 8v100q-1 4 -5 4h-153q-11 7 -11 24l210 257q7 9 21 9q17 0 17 -8v-230q0 -4 6 -4h22q12 0 12 -44q0 -2 -1.5 -3.5l-2.5 -2.5h-2h-30q-4 0 -4 -5v-100q-5 -5 -38 -5zM539 284l-11 -13q-11 -13 -22 -27l-12 -14l-54 -66
q-1 -1 0.5 -4t3.5 -3h92q3 0 3 2v125zM521 643q1 3 6 3q12 0 24.5 -10t12.5 -16v-1q-1 -1 -1 -2l-348 -631q-2 -2 -5 -2q-11 0 -23.5 10t-12.5 14v3z" />
    <glyph glyph-name="onehalf" unicode="&#xbd;" horiz-adv-x="705" 
d="M513 336q-8 0 -16.5 -2.5t-15 -6t-14.5 -9.5t-12 -9.5t-10 -9.5l-7 -7q-4 -1 -12 9t-8 16q0 5 1 7q16 24 50.5 46t72.5 22q47 0 78.5 -31t31.5 -77q0 -31 -14 -61.5t-46 -62.5t-50 -47.5t-58 -46.5q-2 -2 -1 -5t3 -3h126q14 0 23 5t12.5 9.5t7 15t5.5 13.5q1 3 6 3
q13 0 17 -5q-9 -28 -25 -99h-114h-127q-12 10 -12 23q0 3 2 11q163 170 163 242q0 22 -15 41t-42 19zM36 548q-14 5 -14 18q0 8 1 9q39 18 78 36.5t57.5 28.5t19.5 10h1q3 0 8.5 -9t6.5 -13q-12 -36 -12 -82v-210q0 -25 10 -42q4 -5 23.5 -9.5t26.5 -4.5q4 0 4 -16
q0 -8 -2 -12q-10 0 -46 2t-54 2q-19 0 -59 -2t-48 -2q-3 2 -3 15t3 13q10 0 30 4.5t23 9.5q9 18 9 32v198q0 40 -16 40q-4 0 -47 -16zM506 643q2 3 6 3q12 0 24.5 -10t12.5 -16l-1 -1v-2l-348 -631q-2 -2 -5 -2q-11 0 -23.5 10t-12.5 14v3z" />
    <glyph glyph-name="threequarters" unicode="&#xbe;" horiz-adv-x="691" 
d="M532 643q2 3 6 3q12 0 24.5 -10t12.5 -16l-1 -1v-2l-348 -631q-2 -2 -5 -2q-11 0 -23.5 10t-12.5 14v3zM163 646q28 0 55.5 -19.5t27.5 -54.5q0 -53 -69 -94q29 0 64.5 -24.5t35.5 -69.5q0 -64 -53.5 -101t-121.5 -37q-56 0 -78 24q-1 2 -1 12q0 14 9.5 24t21.5 10
q14 0 33 -17t35 -17q32 0 54.5 22.5t22.5 63.5q0 74 -72 74q-4 0 -37 -3q-7 7 -7 17t5 13q83 18 83 85q0 19 -13 30.5t-30 11.5t-32 -9.5t-24.5 -19t-12.5 -9.5q-5 0 -11.5 12t-4.5 16q17 25 50.5 42.5t69.5 17.5zM591 -4q-41 0 -41 8v100q-1 4 -5 4h-153q-11 7 -11 24
l210 257q7 9 21 9q17 0 17 -8v-230q0 -4 6 -4h22q12 0 12 -44q0 -2 -1.5 -3.5t-3.5 -2.5h-1h-30q-4 0 -4 -5v-100q-5 -5 -38 -5zM550 284l-11 -13q-11 -13 -23 -27l-11 -14l-54 -66q-1 -1 0.5 -4t3.5 -3h92q3 0 3 2v125z" />
    <glyph glyph-name="questiondown" unicode="&#xbf;" horiz-adv-x="325" 
d="M250 -218q-90 0 -158.5 51t-68.5 133q0 64 27 99t83 63q4 2 14.5 7t15.5 7.5t13.5 7.5t13.5 8.5t10.5 8t8.5 8.5t4 9q3 8 3 29t2 26q7 11 26 11q14 0 14 -86q0 -50 -11.5 -70.5t-45.5 -43.5q-7 -5 -30 -17t-38.5 -22t-29 -28t-13.5 -39q0 -29 21 -49t50 -20q15 0 40 5
t40 5q24 0 42 -15t18 -38q0 -18 -6 -38q-26 -12 -45 -12zM168 370q0 27 19.5 47.5t46.5 20.5q28 0 48 -20.5t20 -47.5t-20 -47t-48 -20q-27 0 -46.5 20t-19.5 47z" />
    <glyph glyph-name="Agrave" unicode="&#xc0;" horiz-adv-x="736" 
d="M408 745q0 -6 -4 -11.5t-8 -5.5q-19 0 -99.5 40t-80.5 64q0 15 16 24t38 9q12 0 18 -3q29 -22 74.5 -66.5t45.5 -50.5zM391 660l210 -524q15 -40 30 -73q6 -15 32 -24t38 -9q4 0 4 -18q0 -12 -2 -15q-120 6 -126 6q-7 0 -130 -6q-4 4 -4 18.5t4 14.5q12 0 33 6t25 14
q3 6 3 13q0 20 -19 69l-35 93q-4 4 -7 4q-32 2 -86 2t-114 -3q-6 0 -6 -4l-38 -93q-19 -52 -19 -65t11 -20q9 -6 31.5 -11t30.5 -5q3 -1 3 -14t-2 -19q-5 0 -47 3t-68 3t-61.5 -2.5t-50.5 -3.5q-4 4 -4 15q0 18 2 18q12 0 38.5 8.5t33.5 19.5q19 30 38 78l186 450
q23 60 37 72q8 7 17 7q7 0 12 -5zM271 288q35 -3 72 -3q35 0 82 3l2 4l-76 200l-82 -200q0 -4 2 -4z" />
    <glyph glyph-name="Aacute" unicode="&#xc1;" horiz-adv-x="736" 
d="M319 745q0 6 45.5 50.5t74.5 66.5q6 3 18 3q22 0 38 -9t16 -24q0 -24 -80.5 -64t-99.5 -40q-4 0 -8 5.5t-4 11.5zM391 660l210 -524q15 -40 30 -73q6 -15 32 -24t38 -9q4 0 4 -18q0 -12 -2 -15q-120 6 -126 6q-7 0 -130 -6q-4 4 -4 18.5t4 14.5q12 0 33 6t25 14q3 6 3 13
q0 20 -19 69l-35 93q-4 4 -7 4q-32 2 -86 2t-114 -3q-6 0 -6 -4l-38 -93q-19 -52 -19 -65t11 -20q9 -6 31.5 -11t30.5 -5q3 -1 3 -14t-2 -19q-5 0 -47 3t-68 3t-61.5 -2.5t-50.5 -3.5q-4 4 -4 15q0 18 2 18q12 0 38.5 8.5t33.5 19.5q19 30 38 78l186 450q23 60 37 72
q8 7 17 7q7 0 12 -5zM271 288q35 -3 72 -3q35 0 82 3l2 4l-76 200l-82 -200q0 -4 2 -4z" />
    <glyph glyph-name="Acircumflex" unicode="&#xc2;" horiz-adv-x="736" 
d="M479 728q-19 0 -112 60q-24 -17 -63.5 -38.5t-48.5 -21.5q-10 0 -10 19q1 1 23.5 20.5t44.5 40.5q26 25 42 47q8 9 12 9q5 0 12 -9q30 -35 41 -46q17 -16 33 -30.5t25.5 -22.5t10.5 -9q0 -19 -10 -19zM391 660l210 -524q15 -40 30 -73q6 -15 32 -24t38 -9q4 0 4 -18
q0 -12 -2 -15q-120 6 -126 6q-7 0 -130 -6q-4 4 -4 18.5t4 14.5q12 0 33 6t25 14q3 6 3 13q0 20 -19 69l-35 93q-4 4 -7 4q-32 2 -86 2t-114 -3q-6 0 -6 -4l-38 -93q-19 -52 -19 -65t11 -20q9 -6 31.5 -11t30.5 -5q3 -1 3 -14t-2 -19q-5 0 -47 3t-68 3t-61.5 -2.5
t-50.5 -3.5q-4 4 -4 15q0 18 2 18q12 0 38.5 8.5t33.5 19.5q19 30 38 78l186 450q23 60 37 72q8 7 17 7q7 0 12 -5zM271 288q35 -3 72 -3q35 0 82 3l2 4l-76 200l-82 -200q0 -4 2 -4z" />
    <glyph glyph-name="Atilde" unicode="&#xc3;" horiz-adv-x="736" 
d="M183 738q-8 0 -8 19q0 17 18 44q37 46 83 46q36 0 91 -30.5t91 -30.5q18 0 42.5 25.5t26.5 25.5q7 0 7 -20q0 -18 -17 -44q-34 -45 -82 -45q-36 0 -91 30.5t-91 30.5q-13 0 -28.5 -13t-26.5 -25.5t-15 -12.5zM391 660l210 -524q15 -40 30 -73q6 -15 32 -24t38 -9
q4 0 4 -18q0 -12 -2 -15q-120 6 -126 6q-7 0 -130 -6q-4 4 -4 18.5t4 14.5q12 0 33 6t25 14q3 6 3 13q0 20 -19 69l-35 93q-4 4 -7 4q-32 2 -86 2t-114 -3q-6 0 -6 -4l-38 -93q-19 -52 -19 -65t11 -20q9 -6 31.5 -11t30.5 -5q3 -1 3 -14t-2 -19q-5 0 -47 3t-68 3t-61.5 -2.5
t-50.5 -3.5q-4 4 -4 15q0 18 2 18q12 0 38.5 8.5t33.5 19.5q19 30 38 78l186 450q23 60 37 72q8 7 17 7q7 0 12 -5zM271 288q35 -3 72 -3q35 0 82 3l2 4l-76 200l-82 -200q0 -4 2 -4z" />
    <glyph glyph-name="Adieresis" unicode="&#xc4;" horiz-adv-x="736" 
d="M420 790q0 26 18 44t44 18t44 -18t18 -44t-18 -44t-44 -18t-44 18t-18 44zM214 790q0 26 18 44t44 18t44 -18t18 -44t-18 -44t-44 -18t-44 18t-18 44zM391 660l210 -524q15 -40 30 -73q6 -15 32 -24t38 -9q4 0 4 -18q0 -12 -2 -15q-120 6 -126 6q-7 0 -130 -6
q-4 4 -4 18.5t4 14.5q12 0 33 6t25 14q3 6 3 13q0 20 -19 69l-35 93q-4 4 -7 4q-32 2 -86 2t-114 -3q-6 0 -6 -4l-38 -93q-19 -52 -19 -65t11 -20q9 -6 31.5 -11t30.5 -5q3 -1 3 -14t-2 -19q-5 0 -47 3t-68 3t-61.5 -2.5t-50.5 -3.5q-4 4 -4 15q0 18 2 18q12 0 38.5 8.5
t33.5 19.5q19 30 38 78l186 450q23 60 37 72q8 7 17 7q7 0 12 -5zM271 288q35 -3 72 -3q35 0 82 3l2 4l-76 200l-82 -200q0 -4 2 -4z" />
    <glyph glyph-name="Aring" unicode="&#xc5;" horiz-adv-x="736" 
d="M321 759q0 -23 16 -39t38 -16t37.5 16t15.5 39t-15.5 38.5t-37.5 15.5q-23 0 -38.5 -16t-15.5 -38zM281 759q0 39 27.5 66t66.5 27q38 0 65 -27t27 -66t-27 -67t-65 -28t-66 28t-28 67zM391 660l210 -524q15 -40 30 -73q6 -15 32 -24t38 -9q4 0 4 -18q0 -12 -2 -15
q-120 6 -126 6q-7 0 -130 -6q-4 4 -4 18.5t4 14.5q12 0 33 6t25 14q3 6 3 13q0 20 -19 69l-35 93q-4 4 -7 4q-32 2 -86 2t-114 -3q-6 0 -6 -4l-38 -93q-19 -52 -19 -65t11 -20q9 -6 31.5 -11t30.5 -5q3 -1 3 -14t-2 -19q-5 0 -47 3t-68 3t-61.5 -2.5t-50.5 -3.5q-4 4 -4 15
q0 18 2 18q12 0 38.5 8.5t33.5 19.5q19 30 38 78l186 450q23 60 37 72q8 7 17 7q7 0 12 -5zM271 288q35 -3 72 -3q35 0 82 3l2 4l-76 200l-82 -200q0 -4 2 -4z" />
    <glyph glyph-name="AE" unicode="&#xc6;" horiz-adv-x="914" 
d="M446 496q0 4 -4 4q-5 0 -8 -6l-127 -204q-1 -4 1 -4q34 -3 71 -3q5 0 52 3q2 0 5 1t6.5 3.5t3.5 5.5v200zM425 584q5 8 5 16q0 1 -2 5q-4 8 -21.5 13.5t-29.5 5.5q-4 0 -4 16q0 14 4 18q60 -4 127 -4q44 0 155 4t168 4q4 -30 16 -83.5t13 -58.5q-5 -5 -21 -5q-11 0 -14 7
q-33 89 -128 89h-52q-74 0 -76 -13q-6 -28 -6 -81v-157q0 -6 44 -6h52h4q58 0 69 5t17 35q3 15 6 25q1 7 16 7q14 0 19 -5v-189q-4 -4 -19 -4q-13 0 -16 8q-7 27 -12.5 40t-7 14t-8.5 6q-13 8 -92 8q-72 0 -72 -8v-155q0 -55 9 -81q5 -13 68 -13h37q78 0 119 21q16 8 36 35
t31 61q1 6 14 6q22 0 28 -6q-3 -9 -14.5 -41t-17.5 -48.5t-13 -40.5t-9 -39q-57 0 -178 2.5t-164 2.5l-128 -6q-4 4 -4 18q0 18 4 18q13 0 36 6t26 14q7 27 7 83v90q-2 4 -5 4q-32 2 -57 2q-54 0 -114 -3q-7 0 -7 -4l-58 -93q-30 -50 -33 -65q-3 -13 6 -22q8 -7 28 -12
t29 -5q3 -1 0.5 -13t-5.5 -18q-10 1 -44.5 3.5t-60.5 2.5q-27 0 -67 -2.5t-53 -3.5q-3 3 -1 16q2 14 7 14q11 0 39 10.5t37 21.5q26 30 55 78z" />
    <glyph glyph-name="Ccedilla" unicode="&#xc7;" horiz-adv-x="639" 
d="M339 -29h26q24 0 41 -17.5t17 -40.5q0 -41 -31.5 -66t-81.5 -25q-28 0 -48 15q-3 15 -3 18q0 6 4 11t9 5q4 0 21 -8t29 -8q23 0 36 10.5t13 25.5q0 16 -9.5 26.5t-23.5 10.5q-15 0 -32 -7q-2 0 -8.5 6.5t-5.5 9.5q12 20 35 63h31zM613 182q0 -13 -15 -77.5t-23 -68.5
q-87 -42 -232 -42q-132 0 -225 97t-93 231q0 142 95 243.5t234 101.5q113 0 236 -27q3 -1 6 -65.5t3 -80.5q0 -15 -24 -15q-6 0 -14 4q-4 18 -14.5 37t-31.5 43t-62 39.5t-95 15.5q-98 0 -152.5 -81t-54.5 -194q0 -126 61.5 -213.5t173.5 -87.5q89 0 141 56q13 14 23.5 37.5
t16 39.5t7.5 16q35 0 39 -9z" />
    <glyph glyph-name="Egrave" unicode="&#xc8;" horiz-adv-x="584" 
d="M362 745q0 -6 -4 -11.5t-8 -5.5q-19 0 -99.5 40t-80.5 64q0 15 16 24t38 9q12 0 18 -3q29 -22 74.5 -66.5t45.5 -50.5zM162 657q44 0 155 3.5t168 3.5q4 -30 16 -83.5t13 -58.5q-5 -5 -21 -5q-11 0 -14 7q-33 89 -128 89h-52q-74 0 -76 -13q-6 -28 -6 -81v-157
q0 -6 44 -6h52h4q58 0 69 5t17 35q3 15 6 25q1 7 16 7q14 0 19 -5v-189q-4 -4 -19 -4q-13 0 -16 8q-7 27 -12.5 40t-7 14t-8.5 6q-13 8 -92 8q-72 0 -72 -8v-155q0 -55 9 -81q5 -13 68 -13h37q78 0 119 21q16 8 36 35t31 61q1 6 14 6q22 0 28 -6q-3 -9 -14.5 -41
t-17.5 -48.5t-13 -40.5t-9 -39q-40 0 -165.5 3t-176.5 1l-133 -4q-3 3 -3 16q0 17 3 17q13 0 38 6.5t29 15.5q7 21 7 91v378q0 60 -7 82q-3 11 -28 18t-40 7q-4 0 -4 15q0 14 4 18q66 -4 133 -4z" />
    <glyph glyph-name="Eacute" unicode="&#xc9;" horiz-adv-x="584" 
d="M237 745q0 6 45.5 50.5t74.5 66.5q6 3 18 3q22 0 38 -9t16 -24q0 -24 -80.5 -64t-99.5 -40q-4 0 -8 5.5t-4 11.5zM162 657q44 0 155 3.5t168 3.5q4 -30 16 -83.5t13 -58.5q-5 -5 -21 -5q-11 0 -14 7q-33 89 -128 89h-52q-74 0 -76 -13q-6 -28 -6 -81v-157q0 -6 44 -6h52
h4q58 0 69 5t17 35q3 15 6 25q1 7 16 7q14 0 19 -5v-189q-4 -4 -19 -4q-13 0 -16 8q-7 27 -12.5 40t-7 14t-8.5 6q-13 8 -92 8q-72 0 -72 -8v-155q0 -55 9 -81q5 -13 68 -13h37q78 0 119 21q16 8 36 35t31 61q1 6 14 6q22 0 28 -6q-3 -9 -14.5 -41t-17.5 -48.5t-13 -40.5
t-9 -39q-40 0 -165.5 3t-176.5 1l-133 -4q-3 3 -3 16q0 17 3 17q13 0 38 6.5t29 15.5q7 21 7 91v378q0 60 -7 82q-3 11 -28 18t-40 7q-4 0 -4 15q0 14 4 18q66 -4 133 -4z" />
    <glyph glyph-name="Ecircumflex" unicode="&#xca;" horiz-adv-x="584" 
d="M405 728q-19 0 -112 60q-24 -17 -63.5 -38.5t-48.5 -21.5q-10 0 -10 19q1 1 23.5 20.5t44.5 40.5q26 25 42 47q8 9 12 9q5 0 12 -9q30 -35 41 -46q17 -16 33 -30.5t25.5 -22.5t10.5 -9q0 -19 -10 -19zM162 657q44 0 155 3.5t168 3.5q4 -30 16 -83.5t13 -58.5
q-5 -5 -21 -5q-11 0 -14 7q-33 89 -128 89h-52q-74 0 -76 -13q-6 -28 -6 -81v-157q0 -6 44 -6h52h4q58 0 69 5t17 35q3 15 6 25q1 7 16 7q14 0 19 -5v-189q-4 -4 -19 -4q-13 0 -16 8q-7 27 -12.5 40t-7 14t-8.5 6q-13 8 -92 8q-72 0 -72 -8v-155q0 -55 9 -81q5 -13 68 -13
h37q78 0 119 21q16 8 36 35t31 61q1 6 14 6q22 0 28 -6q-3 -9 -14.5 -41t-17.5 -48.5t-13 -40.5t-9 -39q-40 0 -165.5 3t-176.5 1l-133 -4q-3 3 -3 16q0 17 3 17q13 0 38 6.5t29 15.5q7 21 7 91v378q0 60 -7 82q-3 11 -28 18t-40 7q-4 0 -4 15q0 14 4 18q66 -4 133 -4z" />
    <glyph glyph-name="Edieresis" unicode="&#xcb;" horiz-adv-x="584" 
d="M337 790q0 26 18 44t44 18t44 -18t18 -44t-18 -44t-44 -18t-44 18t-18 44zM131 790q0 26 18 44t44 18t44 -18t18 -44t-18 -44t-44 -18t-44 18t-18 44zM162 657q44 0 155 3.5t168 3.5q4 -30 16 -83.5t13 -58.5q-5 -5 -21 -5q-11 0 -14 7q-33 89 -128 89h-52q-74 0 -76 -13
q-6 -28 -6 -81v-157q0 -6 44 -6h52h4q58 0 69 5t17 35q3 15 6 25q1 7 16 7q14 0 19 -5v-189q-4 -4 -19 -4q-13 0 -16 8q-7 27 -12.5 40t-7 14t-8.5 6q-13 8 -92 8q-72 0 -72 -8v-155q0 -55 9 -81q5 -13 68 -13h37q78 0 119 21q16 8 36 35t31 61q1 6 14 6q22 0 28 -6
q-3 -9 -14.5 -41t-17.5 -48.5t-13 -40.5t-9 -39q-40 0 -165.5 3t-176.5 1l-133 -4q-3 3 -3 16q0 17 3 17q13 0 38 6.5t29 15.5q7 21 7 91v378q0 60 -7 82q-3 11 -28 18t-40 7q-4 0 -4 15q0 14 4 18q66 -4 133 -4z" />
    <glyph glyph-name="Igrave" unicode="&#xcc;" horiz-adv-x="323" 
d="M173 745q0 -6 -4 -11.5t-8 -5.5q-19 0 -99.5 40t-80.5 64q0 15 16 24t38 9q12 0 18 -3q29 -22 74.5 -66.5t45.5 -50.5zM104 522q0 60 -8 84q-4 8 -28 15.5t-36 7.5q-4 0 -4 15q0 16 2 18q5 0 55.5 -3t77.5 -3q8 0 128 6q3 -9 3 -16q0 -17 -4 -17q-9 0 -36 -8t-29 -15
q-8 -31 -8 -88v-376q0 -55 9 -90q2 -7 27.5 -14.5t34.5 -7.5q4 0 4 -19q0 -8 -2 -14q-120 6 -127 6q-20 0 -42 -1t-48.5 -2.5t-42.5 -2.5q-4 4 -4 14q0 19 4 19q12 0 37.5 7t28.5 15q8 31 8 84v386z" />
    <glyph glyph-name="Iacute" unicode="&#xcd;" horiz-adv-x="323" 
d="M148 745q0 6 45.5 50.5t74.5 66.5q6 3 18 3q22 0 38 -9t16 -24q0 -24 -80.5 -64t-99.5 -40q-4 0 -8 5.5t-4 11.5zM104 522q0 60 -8 84q-4 8 -28 15.5t-36 7.5q-4 0 -4 15q0 16 2 18q5 0 55.5 -3t77.5 -3q8 0 128 6q3 -9 3 -16q0 -17 -4 -17q-9 0 -36 -8t-29 -15
q-8 -31 -8 -88v-376q0 -55 9 -90q2 -7 27.5 -14.5t34.5 -7.5q4 0 4 -19q0 -8 -2 -14q-120 6 -127 6q-20 0 -42 -1t-48.5 -2.5t-42.5 -2.5q-4 4 -4 14q0 19 4 19q12 0 37.5 7t28.5 15q8 31 8 84v386z" />
    <glyph glyph-name="Icircumflex" unicode="&#xce;" horiz-adv-x="323" 
d="M272 728q-19 0 -112 60q-24 -17 -63.5 -38.5t-48.5 -21.5q-10 0 -10 19q1 1 23.5 20.5t44.5 40.5q26 25 42 47q8 9 12 9q5 0 12 -9q30 -35 41 -46q17 -16 33 -30.5t25.5 -22.5t10.5 -9q0 -19 -10 -19zM104 522q0 60 -8 84q-4 8 -28 15.5t-36 7.5q-4 0 -4 15q0 16 2 18
q5 0 55.5 -3t77.5 -3q8 0 128 6q3 -9 3 -16q0 -17 -4 -17q-9 0 -36 -8t-29 -15q-8 -31 -8 -88v-376q0 -55 9 -90q2 -7 27.5 -14.5t34.5 -7.5q4 0 4 -19q0 -8 -2 -14q-120 6 -127 6q-20 0 -42 -1t-48.5 -2.5t-42.5 -2.5q-4 4 -4 14q0 19 4 19q12 0 37.5 7t28.5 15q8 31 8 84
v386z" />
    <glyph glyph-name="Idieresis" unicode="&#xcf;" horiz-adv-x="323" 
d="M202 790q0 26 18 44t44 18t44 -18t18 -44t-18 -44t-44 -18t-44 18t-18 44zM-4 790q0 26 18 44t44 18t44 -18t18 -44t-18 -44t-44 -18t-44 18t-18 44zM104 522q0 60 -8 84q-4 8 -28 15.5t-36 7.5q-4 0 -4 15q0 16 2 18q5 0 55.5 -3t77.5 -3q8 0 128 6q3 -9 3 -16
q0 -17 -4 -17q-9 0 -36 -8t-29 -15q-8 -31 -8 -88v-376q0 -55 9 -90q2 -7 27.5 -14.5t34.5 -7.5q4 0 4 -19q0 -8 -2 -14q-120 6 -127 6q-20 0 -42 -1t-48.5 -2.5t-42.5 -2.5q-4 4 -4 14q0 19 4 19q12 0 37.5 7t28.5 15q8 31 8 84v386z" />
    <glyph glyph-name="Eth" unicode="&#xd0;" horiz-adv-x="718" 
d="M54 350h346q6 0 6 -12q0 -17 -6 -30h-346q-6 0 -6 14q0 20 6 28zM168 658h95h79q83 0 150.5 -27.5t109 -73.5t63 -103t21.5 -118q0 -70 -22.5 -131t-65.5 -107.5t-109.5 -73.5t-148.5 -27q-16 0 -75 2.5t-96 1.5q-28 0 -61 -1t-53 -2l-19 -2q-4 4 -4 16q0 18 4 18
q12 0 37.5 6.5t29.5 15.5q7 18 7 91v378q0 57 -7 82q-3 8 -29.5 16.5t-38.5 8.5q-4 0 -4 15t3 18q67 -3 134 -3zM223 530v-392q0 -56 12 -74q9 -8 52 -12t69 -4q100 0 153 73.5t53 218.5q0 71 -22.5 131t-72 98.5t-117.5 38.5h-6q-96 0 -108 -16q-13 -17 -13 -62z" />
    <glyph glyph-name="Ntilde" unicode="&#xd1;" horiz-adv-x="753" 
d="M207 738q-8 0 -8 19q0 17 18 44q37 46 83 46q36 0 91 -30.5t91 -30.5q18 0 42.5 25.5t26.5 25.5q7 0 7 -20q0 -18 -17 -44q-34 -45 -82 -45q-36 0 -91 30.5t-91 30.5q-13 0 -28.5 -13t-26.5 -25.5t-15 -12.5zM571 523q0 53 -10 80q-5 12 -33.5 19t-44.5 7q-4 0 -4.5 14.5
t2.5 18.5q107 -7 126 -7q26 0 67 3.5t51 3.5q2 -4 2 -16q0 -17 -4 -17q-14 0 -43 -7.5t-38 -20.5q-11 -27 -11 -83v-379q0 -36 4 -140q-4 -4 -22 -4q-16 0 -32 23l-398 528v-405q0 -60 8 -82q5 -12 37 -20.5t45 -8.5q3 0 3.5 -14t-1.5 -19q-120 6 -125 6q-27 0 -66.5 -2.5
t-52.5 -3.5q-4 4 -4 17q0 16 4 16q17 0 45.5 7.5t36.5 22.5q10 21 10 84v392q0 54 -11 73q-4 7 -34.5 13t-44.5 6q-4 0 -4.5 15t3.5 19q105 -5 119 -5q33 0 90 5q19 -36 69.5 -106.5t138.5 -186t120 -159.5q2 12 2 41v272z" />
    <glyph glyph-name="Ograve" unicode="&#xd2;" horiz-adv-x="693" 
d="M358 745q0 -6 -4 -11.5t-8 -5.5q-19 0 -99.5 40t-80.5 64q0 15 16 24t38 9q12 0 18 -3q29 -22 74.5 -66.5t45.5 -50.5zM330 618q-86 0 -131.5 -78.5t-45.5 -189.5q0 -75 20.5 -143t69.5 -117.5t118 -49.5q85 0 131.5 79.5t46.5 189.5q0 77 -20 144.5t-69 116t-120 48.5z
M25 328q0 140 94 239.5t226 99.5t226.5 -99.5t94.5 -239.5t-94.5 -239t-226.5 -99t-226 99t-94 239z" />
    <glyph glyph-name="Oacute" unicode="&#xd3;" horiz-adv-x="693" 
d="M333 745q0 6 45.5 50.5t74.5 66.5q6 3 18 3q22 0 38 -9t16 -24q0 -24 -80.5 -64t-99.5 -40q-4 0 -8 5.5t-4 11.5zM330 618q-86 0 -131.5 -78.5t-45.5 -189.5q0 -75 20.5 -143t69.5 -117.5t118 -49.5q85 0 131.5 79.5t46.5 189.5q0 77 -20 144.5t-69 116t-120 48.5z
M25 328q0 140 94 239.5t226 99.5t226.5 -99.5t94.5 -239.5t-94.5 -239t-226.5 -99t-226 99t-94 239z" />
    <glyph glyph-name="Ocircumflex" unicode="&#xd4;" horiz-adv-x="693" 
d="M457 728q-19 0 -112 60q-24 -17 -63.5 -38.5t-48.5 -21.5q-10 0 -10 19q1 1 23.5 20.5t44.5 40.5q26 25 42 47q8 9 12 9q5 0 12 -9q30 -35 41 -46q17 -16 33 -30.5t25.5 -22.5t10.5 -9q0 -19 -10 -19zM330 618q-86 0 -131.5 -78.5t-45.5 -189.5q0 -75 20.5 -143
t69.5 -117.5t118 -49.5q85 0 131.5 79.5t46.5 189.5q0 77 -20 144.5t-69 116t-120 48.5zM25 328q0 140 94 239.5t226 99.5t226.5 -99.5t94.5 -239.5t-94.5 -239t-226.5 -99t-226 99t-94 239z" />
    <glyph glyph-name="Otilde" unicode="&#xd5;" horiz-adv-x="693" 
d="M173 738q-8 0 -8 19q0 17 18 44q37 46 83 46q36 0 91 -30.5t91 -30.5q18 0 42.5 25.5t26.5 25.5q7 0 7 -20q0 -18 -17 -44q-34 -45 -82 -45q-36 0 -91 30.5t-91 30.5q-13 0 -28.5 -13t-26.5 -25.5t-15 -12.5zM330 618q-86 0 -131.5 -78.5t-45.5 -189.5q0 -75 20.5 -143
t69.5 -117.5t118 -49.5q85 0 131.5 79.5t46.5 189.5q0 77 -20 144.5t-69 116t-120 48.5zM25 328q0 140 94 239.5t226 99.5t226.5 -99.5t94.5 -239.5t-94.5 -239t-226.5 -99t-226 99t-94 239z" />
    <glyph glyph-name="Odieresis" unicode="&#xd6;" horiz-adv-x="693" 
d="M386 790q0 26 18 44t44 18t44 -18t18 -44t-18 -44t-44 -18t-44 18t-18 44zM180 790q0 26 18 44t44 18t44 -18t18 -44t-18 -44t-44 -18t-44 18t-18 44zM330 618q-86 0 -131.5 -78.5t-45.5 -189.5q0 -75 20.5 -143t69.5 -117.5t118 -49.5q85 0 131.5 79.5t46.5 189.5
q0 77 -20 144.5t-69 116t-120 48.5zM25 328q0 140 94 239.5t226 99.5t226.5 -99.5t94.5 -239.5t-94.5 -239t-226.5 -99t-226 99t-94 239z" />
    <glyph glyph-name="multiply" unicode="&#xd7;" horiz-adv-x="419" 
d="M161 244q3 2 -1 6l-132 132q-4 4 -2 8q5 11 17 25.5t19 16.5q5 2 9 -2l135 -135q2 -3 6 1l136 134q4 4 8 1q5 -2 18 -17t17 -26l-1 -6l-132 -132q-4 -4 -2 -6l134 -132l1 -7q-4 -10 -16.5 -27t-15.5 -19q-4 -4 -9 1l-138 138q-4 4 -7 0l-139 -140q-3 -1 -5 -1q-7 0 -13 9
q-26 34 -23 41z" />
    <glyph glyph-name="Oslash" unicode="&#xd8;" horiz-adv-x="698" 
d="M332 618q-87 0 -132.5 -79t-45.5 -189q0 -55 12.5 -108t36.5 -99t65.5 -74.5t93.5 -28.5q58 0 99.5 39.5t60 99.5t18.5 130q0 57 -12 110t-35.5 98.5t-65.5 73t-95 27.5zM523 672q5 -2 13 -5.5t15 -8.5t5 -8l-397 -666q-10 4 -22.5 11.5t-10.5 11.5zM346.5 667
q86.5 0 160.5 -45.5t117.5 -123.5t43.5 -170t-43.5 -170t-117.5 -123t-160.5 -45t-160.5 45t-117 123t-43 170t43 170t117 123.5t160.5 45.5z" />
    <glyph glyph-name="Ugrave" unicode="&#xd9;" horiz-adv-x="733" 
d="M379 745q0 -6 -4 -11.5t-8 -5.5q-19 0 -99.5 40t-80.5 64q0 15 16 24t38 9q12 0 18 -3q29 -22 74.5 -66.5t45.5 -50.5zM160 656q18 0 128 6q2 -8 2 -16q0 -17 -4 -17q-9 0 -36 -7.5t-28 -15.5q-8 -30 -8 -88v-230q0 -103 44.5 -164.5t123.5 -61.5q77 0 123.5 50.5
t46.5 167.5v244q0 61 -10 80q-6 9 -35.5 17.5t-42.5 8.5q-4 0 -4.5 14t2.5 18q108 -7 126 -7q25 0 66.5 3.5t51.5 3.5q2 -7 2 -16q0 -16 -4 -16q-14 0 -43 -7.5t-38 -20.5q-11 -25 -11 -83v-235q0 -78 -19 -134.5t-54 -89t-79.5 -47.5t-101.5 -15q-120 0 -189 72.5
t-69 233.5v218q0 64 -8 84q-4 8 -28 15.5t-36 7.5q-4 0 -4 15t3 18q127 -6 133 -6z" />
    <glyph glyph-name="Uacute" unicode="&#xda;" horiz-adv-x="733" 
d="M354 745q0 6 45.5 50.5t74.5 66.5q6 3 18 3q22 0 38 -9t16 -24q0 -24 -80.5 -64t-99.5 -40q-4 0 -8 5.5t-4 11.5zM160 656q18 0 128 6q2 -8 2 -16q0 -17 -4 -17q-9 0 -36 -7.5t-28 -15.5q-8 -30 -8 -88v-230q0 -103 44.5 -164.5t123.5 -61.5q77 0 123.5 50.5t46.5 167.5
v244q0 61 -10 80q-6 9 -35.5 17.5t-42.5 8.5q-4 0 -4.5 14t2.5 18q108 -7 126 -7q25 0 66.5 3.5t51.5 3.5q2 -7 2 -16q0 -16 -4 -16q-14 0 -43 -7.5t-38 -20.5q-11 -25 -11 -83v-235q0 -78 -19 -134.5t-54 -89t-79.5 -47.5t-101.5 -15q-120 0 -189 72.5t-69 233.5v218
q0 64 -8 84q-4 8 -28 15.5t-36 7.5q-4 0 -4 15t3 18q127 -6 133 -6z" />
    <glyph glyph-name="Ucircumflex" unicode="&#xdb;" horiz-adv-x="733" 
d="M478 728q-19 0 -112 60q-24 -17 -63.5 -38.5t-48.5 -21.5q-10 0 -10 19q1 1 23.5 20.5t44.5 40.5q26 25 42 47q8 9 12 9q5 0 12 -9q30 -35 41 -46q17 -16 33 -30.5t25.5 -22.5t10.5 -9q0 -19 -10 -19zM160 656q18 0 128 6q2 -8 2 -16q0 -17 -4 -17q-9 0 -36 -7.5
t-28 -15.5q-8 -30 -8 -88v-230q0 -103 44.5 -164.5t123.5 -61.5q77 0 123.5 50.5t46.5 167.5v244q0 61 -10 80q-6 9 -35.5 17.5t-42.5 8.5q-4 0 -4.5 14t2.5 18q108 -7 126 -7q25 0 66.5 3.5t51.5 3.5q2 -7 2 -16q0 -16 -4 -16q-14 0 -43 -7.5t-38 -20.5q-11 -25 -11 -83
v-235q0 -78 -19 -134.5t-54 -89t-79.5 -47.5t-101.5 -15q-120 0 -189 72.5t-69 233.5v218q0 64 -8 84q-4 8 -28 15.5t-36 7.5q-4 0 -4 15t3 18q127 -6 133 -6z" />
    <glyph glyph-name="Udieresis" unicode="&#xdc;" horiz-adv-x="733" 
d="M408 790q0 26 18 44t44 18t44 -18t18 -44t-18 -44t-44 -18t-44 18t-18 44zM202 790q0 26 18 44t44 18t44 -18t18 -44t-18 -44t-44 -18t-44 18t-18 44zM160 656q18 0 128 6q2 -8 2 -16q0 -17 -4 -17q-9 0 -36 -7.5t-28 -15.5q-8 -30 -8 -88v-230q0 -103 44.5 -164.5
t123.5 -61.5q77 0 123.5 50.5t46.5 167.5v244q0 61 -10 80q-6 9 -35.5 17.5t-42.5 8.5q-4 0 -4.5 14t2.5 18q108 -7 126 -7q25 0 66.5 3.5t51.5 3.5q2 -7 2 -16q0 -16 -4 -16q-14 0 -43 -7.5t-38 -20.5q-11 -25 -11 -83v-235q0 -78 -19 -134.5t-54 -89t-79.5 -47.5
t-101.5 -15q-120 0 -189 72.5t-69 233.5v218q0 64 -8 84q-4 8 -28 15.5t-36 7.5q-4 0 -4 15t3 18q127 -6 133 -6z" />
    <glyph glyph-name="Yacute" unicode="&#xdd;" horiz-adv-x="657" 
d="M339 745q0 6 45.5 50.5t74.5 66.5q6 3 18 3q22 0 38 -9t16 -24q0 -24 -80.5 -64t-99.5 -40q-4 0 -8 5.5t-4 11.5zM156 656q18 0 138 6q2 -4 1.5 -18t-3.5 -14q-16 0 -36 -7t-20 -21q0 -9 9 -26l106 -194q5 -5 10 2q43 64 83 132t40 86q0 11 -18.5 19.5t-48.5 8.5
q-4 0 -4 14t3 18q101 -6 120 -6q23 0 41.5 1t38 2.5t30.5 2.5q2 -8 2 -16q0 -16 -4 -16q-15 0 -41.5 -9t-38.5 -24q-29 -43 -104 -164.5t-75 -134.5v-156q0 -59 8 -90q2 -7 27.5 -15.5t33.5 -8.5q4 0 4 -16q0 -10 -2 -16q-13 1 -38 3t-46 3t-41 1q-27 0 -73.5 -3t-57.5 -4
q-4 4 -4 16q0 16 3 16q12 0 37 8t28 16q8 29 8 88v148q0 5 -6.5 19.5t-22.5 44t-28 51t-39 69.5t-40 71q-29 54 -52 69q-10 7 -29.5 12.5t-28.5 5.5q-3 0 -3.5 10t1.5 14q24 2 132 2z" />
    <glyph glyph-name="Thorn" unicode="&#xde;" horiz-adv-x="564" 
d="M164 656q18 0 128 6q3 -8 3 -16q0 -17 -4 -17q-9 0 -36 -7.5t-29 -15.5q-7 -30 -7 -84v-4t-0.5 -5l-0.5 -3q0 -6 4 -6q1 0 12 3t30.5 6t39.5 3q27 0 54.5 -6t57 -19.5t52.5 -33.5t37.5 -52t14.5 -71q0 -74 -58.5 -137t-150.5 -63q-22 0 -43 7.5t-28 17.5q-2 3 -3.5 11
t-1 14.5t3.5 6.5q22 -9 56 -9q47 0 75 39.5t28 98.5q0 146 -110 146q-44 0 -58 -6q-6 -3 -9 -15t-3 -54v-251q0 -55 9 -88q2 -7 28 -14.5t35 -7.5q4 0 4 -18q0 -10 -2 -16q-13 1 -38.5 3t-47.5 3t-42 1q-26 0 -73.5 -3t-58.5 -4q-4 4 -4 16q0 18 4 18q12 0 37.5 7t28.5 15
q7 27 7 84v386q0 64 -7 84q-5 8 -29 15.5t-36 7.5q-4 0 -4 15t3 18q126 -6 132 -6z" />
    <glyph glyph-name="germandbls" unicode="&#xdf;" horiz-adv-x="583" 
d="M490 563q0 -34 -14 -60t-34 -42t-40 -29t-34 -29t-14 -34q0 -30 25 -54t68 -47q109 -57 109 -134q0 -59 -39 -100.5t-96 -41.5q-42 0 -80 17t-47 32q0 65 36 65q17 0 28.5 -11t17.5 -24t17.5 -24t27.5 -11q20 0 31.5 22t11.5 45q0 27 -19.5 48t-47 36.5t-55.5 32
t-47.5 44.5t-19.5 66q0 27 12 47.5t29 35.5t34 31t29 43t12 62q0 48 -25 75t-72 27q-28 0 -46 -15t-26 -43.5t-10.5 -54.5t-2.5 -63l1 -338q0 -51 8 -87q1 -7 23.5 -15t30.5 -8q3 0 3.5 -13.5t-1.5 -17.5q-11 1 -52 4t-64 3q-24 0 -65 -3t-53 -4q-3 3 -3 16q0 12 4 12
q11 0 32 7.5t23 14.5q9 35 9 89q1 138 1 226q0 8 -5 8h-53q-3 0 -3 6q0 10 5.5 28t9.5 18h41q5 0 5 6v18q0 123 58 186t146 63q76 0 128 -34t52 -97z" />
    <glyph glyph-name="agrave" unicode="&#xe0;" horiz-adv-x="452" 
d="M70 642q0 4 3.5 9.5t14 11t26.5 5.5q26 0 34 -8q17 -20 39.5 -53t37.5 -57.5t15 -27.5q0 -5 -4.5 -10.5t-9.5 -5.5q-13 0 -84.5 55.5t-71.5 80.5zM192 58q27 0 46.5 14t19.5 32v102q-7 -3 -29.5 -10t-34.5 -12t-28 -14t-23.5 -22t-7.5 -28q0 -32 16 -47t41 -15zM237 442
q62 0 93 -32.5t31 -111.5v-197q0 -20 9 -30.5t24 -10.5t34 13q6 -2 6 -11q0 -20 -6 -30q-15 -12 -40 -25t-48 -13t-45 17t-29 37q-1 -1 -7.5 -6.5t-18 -13.5t-26 -16t-34 -13.5t-39.5 -5.5q-50 0 -81.5 27.5t-31.5 75.5q0 24 11.5 45t27.5 34.5t43 26.5t46.5 19.5t50 15.5
t42.5 13q9 4 9 16v55q0 35 -16 55t-43 20q-30 0 -47 -18.5t-17 -52.5q0 -20 -15 -29.5t-34 -9.5q-37 0 -52 24q0 48 65.5 90t137.5 42z" />
    <glyph glyph-name="aacute" unicode="&#xe1;" horiz-adv-x="452" 
d="M744 718zM294 668q16 0 26 -5.5t13 -11t3 -9.5q0 -25 -71 -80.5t-84 -55.5q-5 0 -10 5.5t-5 10.5t34.5 57t59.5 81q8 8 34 8zM192 58q27 0 46.5 14t19.5 32v102q-7 -3 -29.5 -10t-34.5 -12t-28 -14t-23.5 -22t-7.5 -28q0 -32 16 -47t41 -15zM237 442q62 0 93 -32.5
t31 -111.5v-197q0 -20 9 -30.5t24 -10.5t34 13q6 -2 6 -11q0 -20 -6 -30q-15 -12 -40 -25t-48 -13t-45 17t-29 37q-1 -1 -7.5 -6.5t-18 -13.5t-26 -16t-34 -13.5t-39.5 -5.5q-50 0 -81.5 27.5t-31.5 75.5q0 24 11.5 45t27.5 34.5t43 26.5t46.5 19.5t50 15.5t42.5 13
q9 4 9 16v55q0 35 -16 55t-43 20q-30 0 -47 -18.5t-17 -52.5q0 -20 -15 -29.5t-34 -9.5q-37 0 -52 24q0 48 65.5 90t137.5 42z" />
    <glyph glyph-name="acircumflex" unicode="&#xe2;" horiz-adv-x="452" 
d="M309 497q-8 0 -41.5 24.5t-58.5 45.5q-23 -21 -57.5 -45.5t-42.5 -24.5q-9 0 -9 24q49 56 60 70q15 19 38 55q5 9 11 9q4 0 10 -9q33 -48 37 -53q15 -19 29.5 -36t23 -26t9.5 -10q0 -24 -9 -24zM192 58q27 0 46.5 14t19.5 32v102q-7 -3 -29.5 -10t-34.5 -12t-28 -14
t-23.5 -22t-7.5 -28q0 -32 16 -47t41 -15zM237 442q62 0 93 -32.5t31 -111.5v-197q0 -20 9 -30.5t24 -10.5t34 13q6 -2 6 -11q0 -20 -6 -30q-15 -12 -40 -25t-48 -13t-45 17t-29 37q-1 -1 -7.5 -6.5t-18 -13.5t-26 -16t-34 -13.5t-39.5 -5.5q-50 0 -81.5 27.5t-31.5 75.5
q0 24 11.5 45t27.5 34.5t43 26.5t46.5 19.5t50 15.5t42.5 13q9 4 9 16v55q0 35 -16 55t-43 20q-30 0 -47 -18.5t-17 -52.5q0 -20 -15 -29.5t-34 -9.5q-37 0 -52 24q0 48 65.5 90t137.5 42z" />
    <glyph glyph-name="atilde" unicode="&#xe3;" horiz-adv-x="452" 
d="M58 515q-7 0 -7 17q0 16 16 39q30 40 67 40q29 0 74 -26.5t75 -26.5q15 0 35 22.5t22 22.5q5 0 5 -18q0 -20 -14 -40q-28 -39 -66 -39q-30 0 -75 26.5t-75 26.5q-14 0 -34 -22t-23 -22zM192 58q27 0 46.5 14t19.5 32v102q-7 -3 -29.5 -10t-34.5 -12t-28 -14t-23.5 -22
t-7.5 -28q0 -32 16 -47t41 -15zM237 442q62 0 93 -32.5t31 -111.5v-197q0 -20 9 -30.5t24 -10.5t34 13q6 -2 6 -11q0 -20 -6 -30q-15 -12 -40 -25t-48 -13t-45 17t-29 37q-1 -1 -7.5 -6.5t-18 -13.5t-26 -16t-34 -13.5t-39.5 -5.5q-50 0 -81.5 27.5t-31.5 75.5q0 24 11.5 45
t27.5 34.5t43 26.5t46.5 19.5t50 15.5t42.5 13q9 4 9 16v55q0 35 -16 55t-43 20q-30 0 -47 -18.5t-17 -52.5q0 -20 -15 -29.5t-34 -9.5q-37 0 -52 24q0 48 65.5 90t137.5 42z" />
    <glyph glyph-name="adieresis" unicode="&#xe4;" horiz-adv-x="452" 
d="M247 566q0 24 17 41.5t41 17.5t41.5 -17.5t17.5 -41.5t-17.5 -41t-41.5 -17t-41 17t-17 41zM45 566q0 24 17 41.5t41 17.5t41.5 -17.5t17.5 -41.5t-17.5 -41t-41.5 -17t-41 17t-17 41zM192 58q27 0 46.5 14t19.5 32v102q-7 -3 -29.5 -10t-34.5 -12t-28 -14t-23.5 -22
t-7.5 -28q0 -32 16 -47t41 -15zM237 442q62 0 93 -32.5t31 -111.5v-197q0 -20 9 -30.5t24 -10.5t34 13q6 -2 6 -11q0 -20 -6 -30q-15 -12 -40 -25t-48 -13t-45 17t-29 37q-1 -1 -7.5 -6.5t-18 -13.5t-26 -16t-34 -13.5t-39.5 -5.5q-50 0 -81.5 27.5t-31.5 75.5q0 24 11.5 45
t27.5 34.5t43 26.5t46.5 19.5t50 15.5t42.5 13q9 4 9 16v55q0 35 -16 55t-43 20q-30 0 -47 -18.5t-17 -52.5q0 -20 -15 -29.5t-34 -9.5q-37 0 -52 24q0 48 65.5 90t137.5 42z" />
    <glyph glyph-name="aring" unicode="&#xe5;" horiz-adv-x="452" 
d="M155 605q0 -24 17 -41t41 -17t40.5 17t16.5 41t-16.5 40.5t-40.5 16.5t-41 -16.5t-17 -40.5zM114 605q0 40 29 69t70 29t69.5 -29t28.5 -69q0 -41 -29 -70t-69 -29q-41 0 -70 29.5t-29 69.5zM192 58q27 0 46.5 14t19.5 32v102q-7 -3 -29.5 -10t-34.5 -12t-28 -14
t-23.5 -22t-7.5 -28q0 -32 16 -47t41 -15zM237 442q62 0 93 -32.5t31 -111.5v-197q0 -20 9 -30.5t24 -10.5t34 13q6 -2 6 -11q0 -20 -6 -30q-15 -12 -40 -25t-48 -13t-45 17t-29 37q-1 -1 -7.5 -6.5t-18 -13.5t-26 -16t-34 -13.5t-39.5 -5.5q-50 0 -81.5 27.5t-31.5 75.5
q0 24 11.5 45t27.5 34.5t43 26.5t46.5 19.5t50 15.5t42.5 13q9 4 9 16v55q0 35 -16 55t-43 20q-30 0 -47 -18.5t-17 -52.5q0 -20 -15 -29.5t-34 -9.5q-37 0 -52 24q0 48 65.5 90t137.5 42z" />
    <glyph glyph-name="ae" unicode="&#xe6;" horiz-adv-x="662" 
d="M377 204q0 -62 32 -101.5t95 -39.5q33 0 62 11.5t45 22.5t17 11t3 -2t4.5 -5.5t2.5 -6.5q0 -13 -4 -20q-20 -29 -66 -55t-93 -26q-98 0 -156 74q-65 -74 -173 -74q-53 0 -83.5 30.5t-30.5 73.5q0 19 7 35.5t16.5 28.5t27.5 23t31 17.5t37 14.5t36 11t37.5 9t31.5 8
q9 3 9 15v67q0 31 -16.5 50.5t-40.5 19.5q-28 0 -48 -24t-20 -59q0 -14 -16.5 -20.5t-37.5 -6.5q-19 0 -31.5 9.5t-12.5 24.5q0 42 60 82.5t129 40.5q86 0 117 -48q58 47 126 47q46 0 81 -18t53.5 -47t27.5 -58t10 -57q0 -15 -8 -19.5t-30 -7.5q-147 -17 -224 -24
q-7 0 -7 -7zM266 104v91q-79 -17 -103 -38q-21 -17 -21 -42q0 -28 16.5 -43t40.5 -15q27 0 47 14.5t20 32.5zM540 290q0 35 -18 70.5t-51 35.5q-43 0 -68.5 -44.5t-25.5 -83.5q0 -6 7 -6q128 12 150 18q6 2 6 10z" />
    <glyph glyph-name="ccedilla" unicode="&#xe7;" horiz-adv-x="435" 
d="M223 -27q18 1 22 1q21 0 35 -15t14 -35q0 -35 -27 -56t-69 -21q-28 0 -40 12q-3 12 -3 16q0 5 4 9.5t7 4.5t17.5 -7t25.5 -7q20 0 30.5 9t10.5 22q0 14 -8 22.5t-20 8.5q-13 0 -28 -6q-2 0 -7.5 5.5t-4.5 8.5q5 9 16.5 29.5t13.5 23.5h27zM242 442q53 0 94.5 -17.5
t59.5 -38.5q0 -34 -11.5 -56.5t-34.5 -22.5q-19 0 -30.5 10t-23.5 33q-23 46 -67 46q-43 0 -68.5 -43.5t-25.5 -109.5q0 -90 37 -133.5t94 -43.5q15 0 29 1.5t26 5t21 6.5t18.5 9t13.5 8.5t12 8l8 5.5q2 -1 5 -6t3 -10q0 -11 -6 -19q-15 -27 -59 -54t-98 -27
q-89 0 -151.5 65t-62.5 159q0 91 60 157.5t157 66.5z" />
    <glyph glyph-name="egrave" unicode="&#xe8;" horiz-adv-x="436" 
d="M94 642q0 4 3.5 9.5t14 11t26.5 5.5q26 0 34 -8q17 -20 39.5 -53t37.5 -57.5t15 -27.5q0 -5 -4.5 -10.5t-9.5 -5.5q-13 0 -84.5 55.5t-71.5 80.5zM225 396q-24 0 -43 -14t-29 -34t-14.5 -37.5t-4.5 -29.5q0 -7 6 -7h162q9 0 9 15q0 35 -23.5 71t-62.5 36zM232 442
q47 0 84 -18.5t58 -47t32 -59t11 -58.5q0 -22 -7.5 -27.5t-30.5 -5.5h-239q-7 0 -7 -6q0 -36 13 -70t44.5 -59t75.5 -25q15 0 29 1.5t26 5t21 6.5t18.5 9t13.5 8.5t12 8l8 5.5q2 -1 5 -6t3 -10q0 -11 -6 -19q-15 -27 -59 -54t-99 -27q-87 0 -150 64.5t-63 156.5
q0 101 58.5 164t148.5 63z" />
    <glyph glyph-name="eacute" unicode="&#xe9;" horiz-adv-x="436" 
d="M328 668q16 0 26 -5.5t13 -11t3 -9.5q0 -25 -71 -80.5t-84 -55.5q-5 0 -10 5.5t-5 10.5t34.5 57t59.5 81q8 8 34 8zM225 396q-24 0 -43 -14t-29 -34t-14.5 -37.5t-4.5 -29.5q0 -7 6 -7h162q9 0 9 15q0 35 -23.5 71t-62.5 36zM232 442q47 0 84 -18.5t58 -47t32 -59
t11 -58.5q0 -22 -7.5 -27.5t-30.5 -5.5h-239q-7 0 -7 -6q0 -36 13 -70t44.5 -59t75.5 -25q15 0 29 1.5t26 5t21 6.5t18.5 9t13.5 8.5t12 8l8 5.5q2 -1 5 -6t3 -10q0 -11 -6 -19q-15 -27 -59 -54t-99 -27q-87 0 -150 64.5t-63 156.5q0 101 58.5 164t148.5 63z" />
    <glyph glyph-name="ecircumflex" unicode="&#xea;" horiz-adv-x="436" 
d="M321 497q-8 0 -41.5 24.5t-58.5 45.5q-23 -21 -57.5 -45.5t-42.5 -24.5q-9 0 -9 24q49 56 60 70q15 19 38 55q5 9 11 9q4 0 10 -9q33 -48 37 -53q15 -19 29.5 -36t23 -26t9.5 -10q0 -24 -9 -24zM225 396q-24 0 -43 -14t-29 -34t-14.5 -37.5t-4.5 -29.5q0 -7 6 -7h162
q9 0 9 15q0 35 -23.5 71t-62.5 36zM232 442q47 0 84 -18.5t58 -47t32 -59t11 -58.5q0 -22 -7.5 -27.5t-30.5 -5.5h-239q-7 0 -7 -6q0 -36 13 -70t44.5 -59t75.5 -25q15 0 29 1.5t26 5t21 6.5t18.5 9t13.5 8.5t12 8l8 5.5q2 -1 5 -6t3 -10q0 -11 -6 -19q-15 -27 -59 -54
t-99 -27q-87 0 -150 64.5t-63 156.5q0 101 58.5 164t148.5 63z" />
    <glyph glyph-name="edieresis" unicode="&#xeb;" horiz-adv-x="436" 
d="M259 566q0 24 17 41.5t41 17.5t41.5 -17.5t17.5 -41.5t-17.5 -41t-41.5 -17t-41 17t-17 41zM57 566q0 24 17 41.5t41 17.5t41.5 -17.5t17.5 -41.5t-17.5 -41t-41.5 -17t-41 17t-17 41zM225 396q-24 0 -43 -14t-29 -34t-14.5 -37.5t-4.5 -29.5q0 -7 6 -7h162q9 0 9 15
q0 35 -23.5 71t-62.5 36zM232 442q47 0 84 -18.5t58 -47t32 -59t11 -58.5q0 -22 -7.5 -27.5t-30.5 -5.5h-239q-7 0 -7 -6q0 -36 13 -70t44.5 -59t75.5 -25q15 0 29 1.5t26 5t21 6.5t18.5 9t13.5 8.5t12 8l8 5.5q2 -1 5 -6t3 -10q0 -11 -6 -19q-15 -27 -59 -54t-99 -27
q-87 0 -150 64.5t-63 156.5q0 101 58.5 164t148.5 63z" />
    <glyph glyph-name="igrave" unicode="&#xec;" horiz-adv-x="300" 
d="M22 642q0 4 3.5 9.5t14 11t26.5 5.5q26 0 34 -8q17 -20 39.5 -53t37.5 -57.5t15 -27.5q0 -5 -4.5 -10.5t-9.5 -5.5q-13 0 -84.5 55.5t-71.5 80.5zM203 144q0 -62 7 -90q2 -7 24.5 -15.5t30.5 -8.5q3 0 3.5 -14t-1.5 -19q-14 1 -37.5 2.5t-42.5 2.5t-36 1q-19 0 -38 -1
t-42 -2.5t-38 -2.5q-4 4 -4 18.5t4 14.5q11 0 33.5 8.5t24.5 15.5q8 35 8 74v161q0 46 -16 64q-8 10 -22.5 14.5t-24.5 5.5t-10 3q0 30 5 30q64 7 162 31q9 3 10 3q7 0 7 -20q0 -6 -3.5 -36.5t-3.5 -49.5v-190z" />
    <glyph glyph-name="iacute" unicode="&#xed;" horiz-adv-x="300" 
d="M212 668q16 0 26 -5.5t13 -11t3 -9.5q0 -25 -71 -80.5t-84 -55.5q-5 0 -10 5.5t-5 10.5t34.5 57t59.5 81q8 8 34 8zM203 144q0 -62 7 -90q2 -7 24.5 -15.5t30.5 -8.5q3 0 3.5 -14t-1.5 -19q-14 1 -37.5 2.5t-42.5 2.5t-36 1q-19 0 -38 -1t-42 -2.5t-38 -2.5q-4 4 -4 18.5
t4 14.5q11 0 33.5 8.5t24.5 15.5q8 35 8 74v161q0 46 -16 64q-8 10 -22.5 14.5t-24.5 5.5t-10 3q0 30 5 30q64 7 162 31q9 3 10 3q7 0 7 -20q0 -6 -3.5 -36.5t-3.5 -49.5v-190z" />
    <glyph glyph-name="icircumflex" unicode="&#xee;" horiz-adv-x="300" 
d="M239 497q-8 0 -41.5 24.5t-58.5 45.5q-23 -21 -57.5 -45.5t-42.5 -24.5q-9 0 -9 24q49 56 60 70q15 19 38 55q5 9 11 9q4 0 10 -9q33 -48 37 -53q15 -19 29.5 -36t23 -26t9.5 -10q0 -24 -9 -24zM203 144q0 -62 7 -90q2 -7 24.5 -15.5t30.5 -8.5q3 0 3.5 -14t-1.5 -19
q-14 1 -37.5 2.5t-42.5 2.5t-36 1q-19 0 -38 -1t-42 -2.5t-38 -2.5q-4 4 -4 18.5t4 14.5q11 0 33.5 8.5t24.5 15.5q8 35 8 74v161q0 46 -16 64q-8 10 -22.5 14.5t-24.5 5.5t-10 3q0 30 5 30q64 7 162 31q9 3 10 3q7 0 7 -20q0 -6 -3.5 -36.5t-3.5 -49.5v-190z" />
    <glyph glyph-name="idieresis" unicode="&#xef;" horiz-adv-x="300" 
d="M232 624q24 0 41.5 -17.5t17.5 -41.5t-18 -41t-42 -17t-41.5 17.5t-17.5 41.5t18 41t42 17zM53 624q24 0 41.5 -17.5t17.5 -41.5t-18 -41t-42 -17t-41.5 17.5t-17.5 41.5t18 41t42 17zM203 144q0 -62 7 -90q2 -7 24.5 -15.5t30.5 -8.5q3 0 3.5 -14t-1.5 -19
q-14 1 -37.5 2.5t-42.5 2.5t-36 1q-19 0 -38 -1t-42 -2.5t-38 -2.5q-4 4 -4 18.5t4 14.5q11 0 33.5 8.5t24.5 15.5q8 35 8 74v161q0 46 -16 64q-8 10 -22.5 14.5t-24.5 5.5t-10 3q0 30 5 30q64 7 162 31q9 3 10 3q7 0 7 -20q0 -6 -3.5 -36.5t-3.5 -49.5v-190z" />
    <glyph glyph-name="eth" unicode="&#xf0;" horiz-adv-x="517" 
d="M378 701q24 -28 18 -33l-265 -168q-24 28 -17 34zM246 442q24 0 49.5 -4.5t34.5 -11.5q-46 163 -253 237q0 8 3 18.5t9 10.5q51 -6 103 -26t102.5 -56t89.5 -84t63.5 -115.5t24.5 -144.5q0 -130 -62.5 -201t-152.5 -71q-94 0 -161.5 65.5t-67.5 156.5q0 54 27.5 106
t78.5 86t112 34zM241 395q-48 0 -73.5 -46t-25.5 -115q0 -79 31 -136.5t85 -57.5q49 0 74 46.5t25 123.5q-1 89 -14 118q-15 32 -43 49.5t-59 17.5z" />
    <glyph glyph-name="ntilde" unicode="&#xf1;" horiz-adv-x="584" 
d="M145 515q-7 0 -7 17q0 16 16 39q30 40 67 40q29 0 74 -26.5t75 -26.5q15 0 35 22.5t22 22.5q5 0 5 -18q0 -20 -14 -40q-28 -39 -66 -39q-30 0 -75 26.5t-75 26.5q-14 0 -34 -22t-23 -22zM354 442q129 0 129 -205v-95q0 -61 7 -90q2 -7 27.5 -14.5t34.5 -7.5
q3 0 3.5 -14.5t-1.5 -19.5q-6 1 -52.5 4t-69.5 3q-24 0 -66.5 -3t-51.5 -4q-4 4 -4 19t4 15q11 0 33.5 7.5t24.5 14.5q8 30 8 73v95q0 83 -22.5 116t-71.5 33q-32 0 -56 -17.5t-24 -37.5v-172q0 -61 7 -90q2 -7 26.5 -14.5t32.5 -7.5q4 0 4.5 -14.5t-1.5 -19.5q-8 1 -52.5 4
t-67.5 3q-24 0 -69.5 -3t-53.5 -4q-4 4 -4 19t4 15q12 0 36.5 7.5t26.5 14.5q7 30 7 73v163q0 47 -16 64q-8 10 -22.5 15t-24 6t-9.5 3q0 29 5 30q46 4 161 30q1 1 2.5 1.5t3 0.5h2.5q4 0 7 -7t3 -11q-4 -28 -4 -36q0 -4 1 -5q1 0 5 3q24 24 61.5 42t76.5 18z" />
    <glyph glyph-name="ograve" unicode="&#xf2;" horiz-adv-x="507" 
d="M96 642q0 4 3.5 9.5t14 11t26.5 5.5q26 0 34 -8q17 -20 39.5 -53t37.5 -57.5t15 -27.5q0 -5 -4.5 -10.5t-9.5 -5.5q-13 0 -84.5 55.5t-71.5 80.5zM240 395q-47 0 -73 -45.5t-26 -108.5q0 -81 32.5 -141t90.5 -60q47 0 73.5 46t26.5 108q0 52 -13 96.5t-42 74.5t-69 30z
M253 442q94 0 160.5 -65.5t66.5 -158.5t-65.5 -159t-160.5 -66t-161 66t-66 159q0 94 65.5 159t160.5 65z" />
    <glyph glyph-name="oacute" unicode="&#xf3;" horiz-adv-x="507" 
d="M366 668q16 0 26 -5.5t13 -11t3 -9.5q0 -25 -71 -80.5t-84 -55.5q-5 0 -10 5.5t-5 10.5t34.5 57t59.5 81q8 8 34 8zM240 395q-47 0 -73 -45.5t-26 -108.5q0 -81 32.5 -141t90.5 -60q47 0 73.5 46t26.5 108q0 52 -13 96.5t-42 74.5t-69 30zM253 442q94 0 160.5 -65.5
t66.5 -158.5t-65.5 -159t-160.5 -66t-161 66t-66 159q0 94 65.5 159t160.5 65z" />
    <glyph glyph-name="ocircumflex" unicode="&#xf4;" horiz-adv-x="507" 
d="M357 497q-8 0 -41.5 24.5t-58.5 45.5q-23 -21 -57.5 -45.5t-42.5 -24.5q-9 0 -9 24q49 56 60 70q15 19 38 55q5 9 11 9q4 0 10 -9q33 -48 37 -53q15 -19 29.5 -36t23 -26t9.5 -10q0 -24 -9 -24zM240 395q-47 0 -73 -45.5t-26 -108.5q0 -81 32.5 -141t90.5 -60
q47 0 73.5 46t26.5 108q0 52 -13 96.5t-42 74.5t-69 30zM253 442q94 0 160.5 -65.5t66.5 -158.5t-65.5 -159t-160.5 -66t-161 66t-66 159q0 94 65.5 159t160.5 65z" />
    <glyph glyph-name="otilde" unicode="&#xf5;" horiz-adv-x="507" 
d="M112 515q-7 0 -7 17q0 16 16 39q30 40 67 40q29 0 74 -26.5t75 -26.5q15 0 35 22.5t22 22.5q5 0 5 -18q0 -20 -14 -40q-28 -39 -66 -39q-30 0 -75 26.5t-75 26.5q-14 0 -34 -22t-23 -22zM240 395q-47 0 -73 -45.5t-26 -108.5q0 -81 32.5 -141t90.5 -60q47 0 73.5 46
t26.5 108q0 52 -13 96.5t-42 74.5t-69 30zM253 442q94 0 160.5 -65.5t66.5 -158.5t-65.5 -159t-160.5 -66t-161 66t-66 159q0 94 65.5 159t160.5 65z" />
    <glyph glyph-name="odieresis" unicode="&#xf6;" horiz-adv-x="507" 
d="M295 566q0 24 17 41.5t41 17.5t41.5 -17.5t17.5 -41.5t-17.5 -41t-41.5 -17t-41 17t-17 41zM93 566q0 24 17 41.5t41 17.5t41.5 -17.5t17.5 -41.5t-17.5 -41t-41.5 -17t-41 17t-17 41zM240 395q-47 0 -73 -45.5t-26 -108.5q0 -81 32.5 -141t90.5 -60q47 0 73.5 46
t26.5 108q0 52 -13 96.5t-42 74.5t-69 30zM253 442q94 0 160.5 -65.5t66.5 -158.5t-65.5 -159t-160.5 -66t-161 66t-66 159q0 94 65.5 159t160.5 65z" />
    <glyph glyph-name="divide" unicode="&#xf7;" horiz-adv-x="524" 
d="M260 384q-22 0 -37 13.5t-18 36.5v4q0 21 16.5 37.5t38.5 16.5t37 -13t18 -36v-5q0 -20 -16.5 -37t-38.5 -17zM260 0q-22 0 -37 14.5t-18 37.5v4q0 21 16.5 38.5t38.5 17.5t37 -15.5t18 -38.5v-2q0 -21 -17 -38.5t-38 -17.5zM26 222q0 10 3.5 34t10.5 24h449q7 -1 7 -10
q0 -18 -8 -50q-1 -3 -3 -4.5t-3 -1.5l-2 -1h-448l-4 2q-2 3 -2 7z" />
    <glyph glyph-name="oslash" unicode="&#xf8;" horiz-adv-x="511" 
d="M268 40q50 0 74.5 46.5t24.5 108.5q0 72 -23 125l-141 -257q26 -23 65 -23zM246 399q-51 0 -76.5 -47.5t-25.5 -109.5q0 -75 26 -130l142 261q-28 26 -66 26zM256 445q46 0 86 -17l18 31q4 4 10 3q12 0 32 -20q4 -4 4 -10l-16 -30q43 -32 67.5 -80.5t24.5 -103.5
q0 -93 -65.5 -159t-160.5 -66q-44 0 -83 15l-20 -35q-2 -4 -11 -1q-21 7 -29 17l-5 11l18 33q-44 31 -70 80t-26 105q0 94 65.5 160.5t160.5 66.5z" />
    <glyph glyph-name="ugrave" unicode="&#xf9;" horiz-adv-x="555" 
d="M154 642q0 4 3.5 9.5t14 11t26.5 5.5q26 0 34 -8q17 -20 39.5 -53t37.5 -57.5t15 -27.5q0 -5 -4.5 -10.5t-9.5 -5.5q-13 0 -84.5 55.5t-71.5 80.5zM464 334v-198q0 -48 8 -70q3 -5 11.5 -8t17.5 -4t16.5 -1t8.5 -1q4 -1 4 -9q0 -4 -2 -13.5t-6 -9.5q-14 0 -35.5 -3.5
t-41.5 -7t-38 -7.5t-29 -6l-11 -2q-7 0 -7 16v44q-1 5 -3 5q-23 -25 -61 -45t-79 -20q-34 0 -59.5 17t-40 44t-21 58t-6.5 63v112q0 47 -16 64q-9 10 -23 15t-24 6t-10 3q0 29 5 30q29 2 82 12t79 18q1 0 4 1t4 1q5 0 7.5 -7t2.5 -11q-9 -68 -9 -88v-120q0 -78 22 -112
t71 -34q32 0 54 19.5t22 37.5v165q0 47 -16 64q-8 10 -22.5 15t-24.5 6t-10 3q0 29 6 30q28 2 81 12t79 18q1 0 4.5 1l3.5 1q5 0 8 -7t2 -11q-8 -68 -8 -86z" />
    <glyph glyph-name="uacute" unicode="&#xfa;" horiz-adv-x="555" 
d="M374 668q16 0 26 -5.5t13 -11t3 -9.5q0 -25 -71 -80.5t-84 -55.5q-5 0 -10 5.5t-5 10.5t34.5 57t59.5 81q8 8 34 8zM464 334v-198q0 -48 8 -70q3 -5 11.5 -8t17.5 -4t16.5 -1t8.5 -1q4 -1 4 -9q0 -4 -2 -13.5t-6 -9.5q-14 0 -35.5 -3.5t-41.5 -7t-38 -7.5t-29 -6l-11 -2
q-7 0 -7 16v44q-1 5 -3 5q-23 -25 -61 -45t-79 -20q-34 0 -59.5 17t-40 44t-21 58t-6.5 63v112q0 47 -16 64q-9 10 -23 15t-24 6t-10 3q0 29 5 30q29 2 82 12t79 18q1 0 4 1t4 1q5 0 7.5 -7t2.5 -11q-9 -68 -9 -88v-120q0 -78 22 -112t71 -34q32 0 54 19.5t22 37.5v165
q0 47 -16 64q-8 10 -22.5 15t-24.5 6t-10 3q0 29 6 30q28 2 81 12t79 18q1 0 4.5 1l3.5 1q5 0 8 -7t2 -11q-8 -68 -8 -86z" />
    <glyph glyph-name="ucircumflex" unicode="&#xfb;" horiz-adv-x="555" 
d="M373 497q-8 0 -41.5 24.5t-58.5 45.5q-23 -21 -57.5 -45.5t-42.5 -24.5q-9 0 -9 24q49 56 60 70q15 19 38 55q5 9 11 9q4 0 10 -9q33 -48 37 -53q15 -19 29.5 -36t23 -26t9.5 -10q0 -24 -9 -24zM464 334v-198q0 -48 8 -70q3 -5 11.5 -8t17.5 -4t16.5 -1t8.5 -1q4 -1 4 -9
q0 -4 -2 -13.5t-6 -9.5q-14 0 -35.5 -3.5t-41.5 -7t-38 -7.5t-29 -6l-11 -2q-7 0 -7 16v44q-1 5 -3 5q-23 -25 -61 -45t-79 -20q-34 0 -59.5 17t-40 44t-21 58t-6.5 63v112q0 47 -16 64q-9 10 -23 15t-24 6t-10 3q0 29 5 30q29 2 82 12t79 18q1 0 4 1t4 1q5 0 7.5 -7
t2.5 -11q-9 -68 -9 -88v-120q0 -78 22 -112t71 -34q32 0 54 19.5t22 37.5v165q0 47 -16 64q-8 10 -22.5 15t-24.5 6t-10 3q0 29 6 30q28 2 81 12t79 18q1 0 4.5 1l3.5 1q5 0 8 -7t2 -11q-8 -68 -8 -86z" />
    <glyph glyph-name="udieresis" unicode="&#xfc;" horiz-adv-x="555" 
d="M323 566q0 24 17 41.5t41 17.5t41.5 -17.5t17.5 -41.5t-17.5 -41t-41.5 -17t-41 17t-17 41zM121 566q0 24 17 41.5t41 17.5t41.5 -17.5t17.5 -41.5t-17.5 -41t-41.5 -17t-41 17t-17 41zM464 334v-198q0 -48 8 -70q3 -5 11.5 -8t17.5 -4t16.5 -1t8.5 -1q4 -1 4 -9
q0 -4 -2 -13.5t-6 -9.5q-14 0 -35.5 -3.5t-41.5 -7t-38 -7.5t-29 -6l-11 -2q-7 0 -7 16v44q-1 5 -3 5q-23 -25 -61 -45t-79 -20q-34 0 -59.5 17t-40 44t-21 58t-6.5 63v112q0 47 -16 64q-9 10 -23 15t-24 6t-10 3q0 29 5 30q29 2 82 12t79 18q1 0 4 1t4 1q5 0 7.5 -7
t2.5 -11q-9 -68 -9 -88v-120q0 -78 22 -112t71 -34q32 0 54 19.5t22 37.5v165q0 47 -16 64q-8 10 -22.5 15t-24.5 6t-10 3q0 29 6 30q28 2 81 12t79 18q1 0 4.5 1l3.5 1q5 0 8 -7t2 -11q-8 -68 -8 -86z" />
    <glyph glyph-name="yacute" unicode="&#xfd;" horiz-adv-x="524" 
d="M407 668q16 0 26 -5.5t13 -11t3 -9.5q0 -25 -71 -80.5t-84 -55.5q-5 0 -10 5.5t-5 10.5t34.5 57t59.5 81q8 8 34 8zM134 432q22 0 63 3t51 3q2 -7 2 -18q0 -14 -4 -14q-10 0 -31.5 -7.5t-22.5 -16.5v-6q2 -16 93 -228q8 18 39 98.5t36 92.5q6 17 6 31q0 13 -16 24.5
t-48 11.5q-4 0 -4 15q0 13 4 17q12 0 49 -3t61 -3q21 0 51.5 3t44.5 3q4 -6 4 -16q0 -16 -4 -16q-14 0 -40.5 -10t-34.5 -30l-183 -442q-62 -146 -149 -146q-26 0 -40 14t-14 32q0 26 19 39q104 0 137 82q24 60 27 68l-146 340q-8 18 -12 23q-10 15 -29.5 22.5t-32.5 7.5
q-4 0 -4 14q0 16 3 18q6 0 53.5 -3t71.5 -3z" />
    <glyph glyph-name="thorn" unicode="&#xfe;" horiz-adv-x="540" 
d="M304 441q65 0 115 -33t73.5 -80t23.5 -98q0 -103 -69 -170.5t-165 -67.5q-29 0 -71 14q-4 0 -4 -14v-68q0 -62 7 -90q2 -8 27.5 -15.5t34.5 -7.5q3 0 3.5 -14.5t-1.5 -18.5q-6 0 -52.5 3t-69.5 3q-24 0 -69.5 -3t-52.5 -3q-4 4 -4 18.5t4 14.5q11 0 35.5 7.5t26.5 15.5
q8 29 8 72v632q0 42 -6 70q-5 16 -52 16h-8q-6 0 -6 16t6 16q30 3 58.5 8t47 10t32 10t20.5 7.5t8 2.5h2q4 0 8 -5.5t4 -10.5q-11 -39 -11 -94v-172q0 -5 3 -5q15 12 42.5 23t51.5 11zM281 388q-33 0 -53.5 -19t-20.5 -51v-206q0 -33 27 -52.5t58 -19.5q46 0 78 42t32 118
q0 81 -32.5 134.5t-88.5 53.5z" />
    <glyph glyph-name="ydieresis" unicode="&#xff;" horiz-adv-x="524" 
d="M337 566q0 24 17 41.5t41 17.5t41.5 -17.5t17.5 -41.5t-17.5 -41t-41.5 -17t-41 17t-17 41zM135 566q0 24 17 41.5t41 17.5t41.5 -17.5t17.5 -41.5t-17.5 -41t-41.5 -17t-41 17t-17 41zM134 432q22 0 63 3t51 3q2 -7 2 -18q0 -14 -4 -14q-10 0 -31.5 -7.5t-22.5 -16.5v-6
q2 -16 93 -228q8 18 39 98.5t36 92.5q6 17 6 31q0 13 -16 24.5t-48 11.5q-4 0 -4 15q0 13 4 17q12 0 49 -3t61 -3q21 0 51.5 3t44.5 3q4 -6 4 -16q0 -16 -4 -16q-14 0 -40.5 -10t-34.5 -30l-183 -442q-62 -146 -149 -146q-26 0 -40 14t-14 32q0 26 19 39q104 0 137 82
q24 60 27 68l-146 340q-8 18 -12 23q-10 15 -29.5 22.5t-32.5 7.5q-4 0 -4 14q0 16 3 18q6 0 53.5 -3t71.5 -3z" />
    <glyph glyph-name="Amacron" unicode="&#x100;" horiz-adv-x="736" 
d="M235 736q0 19 4 35t10 16h268q6 0 6 -8q-1 -19 -10 -47h-148h-124q-6 0 -6 4zM391 660l210 -524q15 -40 30 -73q6 -15 32 -24t38 -9q4 0 4 -18q0 -12 -2 -15q-120 6 -126 6q-7 0 -130 -6q-4 4 -4 18.5t4 14.5q12 0 33 6t25 14q3 6 3 13q0 20 -19 69l-35 93q-4 4 -7 4
q-32 2 -86 2t-114 -3q-6 0 -6 -4l-38 -93q-19 -52 -19 -65t11 -20q9 -6 31.5 -11t30.5 -5q3 -1 3 -14t-2 -19q-5 0 -47 3t-68 3t-61.5 -2.5t-50.5 -3.5q-4 4 -4 15q0 18 2 18q12 0 38.5 8.5t33.5 19.5q19 30 38 78l186 450q23 60 37 72q8 7 17 7q7 0 12 -5zM271 288
q35 -3 72 -3q35 0 82 3l2 4l-76 200l-82 -200q0 -4 2 -4z" />
    <glyph glyph-name="amacron" unicode="&#x101;" horiz-adv-x="452" 
d="M85 516q2 48 14 48h228q5 0 5 -9q-1 -23 -7 -41l-6 -8h-228l-4 2q-2 2 -2 8zM192 58q27 0 46.5 14t19.5 32v102q-7 -3 -29.5 -10t-34.5 -12t-28 -14t-23.5 -22t-7.5 -28q0 -32 16 -47t41 -15zM237 442q62 0 93 -32.5t31 -111.5v-197q0 -20 9 -30.5t24 -10.5t34 13
q6 -2 6 -11q0 -20 -6 -30q-15 -12 -40 -25t-48 -13t-45 17t-29 37q-1 -1 -7.5 -6.5t-18 -13.5t-26 -16t-34 -13.5t-39.5 -5.5q-50 0 -81.5 27.5t-31.5 75.5q0 24 11.5 45t27.5 34.5t43 26.5t46.5 19.5t50 15.5t42.5 13q9 4 9 16v55q0 35 -16 55t-43 20q-30 0 -47 -18.5
t-17 -52.5q0 -20 -15 -29.5t-34 -9.5q-37 0 -52 24q0 48 65.5 90t137.5 42z" />
    <glyph glyph-name="Abreve" unicode="&#x102;" horiz-adv-x="736" 
d="M379 782q27 0 51 15t34 37q1 2 4 2q5 -1 13.5 -8.5t7.5 -11.5q0 -3 -2 -7q-15 -36 -44 -58.5t-64 -22.5t-64.5 22t-43.5 59q-2 4 -2 7q-1 4 7.5 11.5t13.5 8.5q3 0 4 -2q10 -22 34 -37t51 -15zM391 660l210 -524q15 -40 30 -73q6 -15 32 -24t38 -9q4 0 4 -18
q0 -12 -2 -15q-120 6 -126 6q-7 0 -130 -6q-4 4 -4 18.5t4 14.5q12 0 33 6t25 14q3 6 3 13q0 20 -19 69l-35 93q-4 4 -7 4q-32 2 -86 2t-114 -3q-6 0 -6 -4l-38 -93q-19 -52 -19 -65t11 -20q9 -6 31.5 -11t30.5 -5q3 -1 3 -14t-2 -19q-5 0 -47 3t-68 3t-61.5 -2.5
t-50.5 -3.5q-4 4 -4 15q0 18 2 18q12 0 38.5 8.5t33.5 19.5q19 30 38 78l186 450q23 60 37 72q8 7 17 7q7 0 12 -5zM271 288q35 -3 72 -3q35 0 82 3l2 4l-76 200l-82 -200q0 -4 2 -4z" />
    <glyph glyph-name="abreve" unicode="&#x103;" horiz-adv-x="452" 
d="M205 559q28 0 51 18t30 47q0 4 4 4q5 0 14.5 -7t9.5 -11q0 -1 -0.5 -4t-0.5 -4q-9 -41 -39 -68.5t-69 -27.5q-40 0 -71.5 27.5t-40.5 69.5q0 1 -0.5 3.5t-0.5 3.5q0 4 9.5 11t14.5 7q4 0 4 -4q7 -29 32 -47t53 -18zM192 58q27 0 46.5 14t19.5 32v102q-7 -3 -29.5 -10
t-34.5 -12t-28 -14t-23.5 -22t-7.5 -28q0 -32 16 -47t41 -15zM237 442q62 0 93 -32.5t31 -111.5v-197q0 -20 9 -30.5t24 -10.5t34 13q6 -2 6 -11q0 -20 -6 -30q-15 -12 -40 -25t-48 -13t-45 17t-29 37q-1 -1 -7.5 -6.5t-18 -13.5t-26 -16t-34 -13.5t-39.5 -5.5
q-50 0 -81.5 27.5t-31.5 75.5q0 24 11.5 45t27.5 34.5t43 26.5t46.5 19.5t50 15.5t42.5 13q9 4 9 16v55q0 35 -16 55t-43 20q-30 0 -47 -18.5t-17 -52.5q0 -20 -15 -29.5t-34 -9.5q-37 0 -52 24q0 48 65.5 90t137.5 42z" />
    <glyph glyph-name="Aogonek" unicode="&#x104;" horiz-adv-x="692" 
d="M252 288q34 -3 72 -3q36 0 82 3l2 4l-76 200l-82 -200q0 -4 2 -4zM684 -3q-9 0 -26.5 1t-30 2t-13.5 1q-39 -23 -69.5 -55.5t-30.5 -61.5q0 -15 10.5 -26t30.5 -11q14 0 28.5 5t23 10t18.5 12t11 8q4 0 4 -16q0 -12 -5 -19q-18 -24 -49.5 -46t-64.5 -22q-32 0 -54 23
t-22 54q0 38 39.5 81.5t85.5 65.5h-12q-7 0 -130 -6q-4 4 -4 18.5t4 14.5q12 0 33 6t25 14q3 6 3 13q0 20 -19 69l-35 93q-4 4 -7 4q-32 2 -86 2t-114 -3q-6 0 -6 -4l-38 -93q-19 -52 -19 -65t11 -20q9 -6 31.5 -11t30.5 -5q3 -1 3 -14t-2 -19q-5 0 -47 3t-68 3t-61.5 -2.5
t-50.5 -3.5q-4 4 -4 15q0 18 2 18q12 0 38.5 8.5t33.5 19.5q19 30 38 78l186 450q23 60 37 72q8 7 17 7q7 0 12 -5l210 -524q15 -40 30 -73q6 -15 32 -24t38 -9q4 0 4 -18q0 -12 -2 -15z" />
    <glyph glyph-name="aogonek" unicode="&#x105;" horiz-adv-x="444" 
d="M218 442q66 0 99 -31.5t33 -108.5v-201q0 -43 33 -43q8 0 15.5 3t12.5 7l5 3q2 0 5 -3t3 -4q0 -19 -7 -33l-39 -25q-114 -72 -114 -122q0 -15 10 -26t30 -11q14 0 28.5 5t23 10t18.5 12t11 8q5 0 5 -15q0 -12 -6 -20q-18 -24 -49.5 -45.5t-64.5 -21.5q-32 0 -54 23
t-22 54q0 33 34.5 75t73.5 67q-32 12 -46 49q-1 0 -8 -6t-18 -14t-25.5 -16t-34.5 -13.5t-40 -5.5q-54 0 -84 30t-30 79q0 23 11.5 42.5t28 32.5t43 25t46.5 18.5t50.5 16t42.5 13.5q10 3 10 16v60q0 31 -16.5 50.5t-40.5 19.5q-28 0 -48.5 -20.5t-20.5 -55.5
q0 -14 -16.5 -22t-36.5 -8t-32.5 9.5t-12.5 24.5q0 41 62 79.5t132 38.5zM248 104v102q-8 -3 -30 -10t-34.5 -12t-28.5 -14t-24 -21.5t-8 -28.5q0 -31 16 -46.5t41 -15.5q27 0 47.5 14t20.5 32z" />
    <glyph glyph-name="Cacute" unicode="&#x106;" horiz-adv-x="639" 
d="M324 745q0 6 45.5 50.5t74.5 66.5q6 3 18 3q22 0 38 -9t16 -24q0 -24 -80.5 -64t-99.5 -40q-4 0 -8 5.5t-4 11.5zM613 182q0 -13 -15 -77.5t-23 -68.5q-87 -42 -232 -42q-132 0 -225 97t-93 231q0 142 95 243.5t234 101.5q113 0 236 -27q3 -1 6 -65.5t3 -80.5
q0 -15 -24 -15q-6 0 -14 4q-4 18 -14.5 37t-31.5 43t-62 39.5t-95 15.5q-98 0 -152.5 -81t-54.5 -194q0 -126 61.5 -213.5t173.5 -87.5q89 0 141 56q13 14 23.5 37.5t16 39.5t7.5 16q35 0 39 -9z" />
    <glyph glyph-name="cacute" unicode="&#x107;" horiz-adv-x="435" 
d="M323 668q16 0 26 -5.5t13 -11t3 -9.5q0 -25 -71 -80.5t-84 -55.5q-5 0 -10 5.5t-5 10.5t34.5 57t59.5 81q8 8 34 8zM242 442q53 0 94.5 -17.5t59.5 -38.5q0 -34 -11.5 -56.5t-34.5 -22.5q-19 0 -30.5 10t-23.5 33q-23 46 -67 46q-43 0 -68.5 -43.5t-25.5 -109.5
q0 -90 37 -133.5t94 -43.5q15 0 29 1.5t26 5t21 6.5t18.5 9t13.5 8.5t12 8l8 5.5q2 -1 5 -6t3 -10q0 -11 -6 -19q-15 -27 -59 -54t-98 -27q-89 0 -151.5 65t-62.5 159q0 91 60 157.5t157 66.5z" />
    <glyph glyph-name="Ccircumflex" unicode="&#x108;" horiz-adv-x="639" 
d="M470 728q-19 0 -112 60q-24 -17 -63.5 -38.5t-48.5 -21.5q-10 0 -10 19q1 1 23.5 20.5t44.5 40.5q26 25 42 47q8 9 12 9q5 0 12 -9q30 -35 41 -46q17 -16 33 -30.5t25.5 -22.5t10.5 -9q0 -19 -10 -19zM613 182q0 -13 -15 -77.5t-23 -68.5q-87 -42 -232 -42
q-132 0 -225 97t-93 231q0 142 95 243.5t234 101.5q113 0 236 -27q3 -1 6 -65.5t3 -80.5q0 -15 -24 -15q-6 0 -14 4q-4 18 -14.5 37t-31.5 43t-62 39.5t-95 15.5q-98 0 -152.5 -81t-54.5 -194q0 -126 61.5 -213.5t173.5 -87.5q89 0 141 56q13 14 23.5 37.5t16 39.5t7.5 16
q35 0 39 -9z" />
    <glyph glyph-name="ccircumflex" unicode="&#x109;" horiz-adv-x="435" 
d="M328 497q-8 0 -41.5 24.5t-58.5 45.5q-23 -21 -57.5 -45.5t-42.5 -24.5q-9 0 -9 24q49 56 60 70q15 19 38 55q5 9 11 9q4 0 10 -9q33 -48 37 -53q15 -19 29.5 -36t23 -26t9.5 -10q0 -24 -9 -24zM242 442q53 0 94.5 -17.5t59.5 -38.5q0 -34 -11.5 -56.5t-34.5 -22.5
q-19 0 -30.5 10t-23.5 33q-23 46 -67 46q-43 0 -68.5 -43.5t-25.5 -109.5q0 -90 37 -133.5t94 -43.5q15 0 29 1.5t26 5t21 6.5t18.5 9t13.5 8.5t12 8l8 5.5q2 -1 5 -6t3 -10q0 -11 -6 -19q-15 -27 -59 -54t-98 -27q-89 0 -151.5 65t-62.5 159q0 91 60 157.5t157 66.5z" />
    <glyph glyph-name="Cdotaccent" unicode="&#x10a;" horiz-adv-x="639" 
d="M292 790q0 26 18 44t44 18t44 -18t18 -44t-18 -44t-44 -18t-44 18t-18 44zM613 182q0 -13 -15 -77.5t-23 -68.5q-87 -42 -232 -42q-132 0 -225 97t-93 231q0 142 95 243.5t234 101.5q113 0 236 -27q3 -1 6 -65.5t3 -80.5q0 -15 -24 -15q-6 0 -14 4q-4 18 -14.5 37
t-31.5 43t-62 39.5t-95 15.5q-98 0 -152.5 -81t-54.5 -194q0 -126 61.5 -213.5t173.5 -87.5q89 0 141 56q13 14 23.5 37.5t16 39.5t7.5 16q35 0 39 -9z" />
    <glyph glyph-name="cdotaccent" unicode="&#x10b;" horiz-adv-x="435" 
d="M176 590q0 26 18 44t44 18t44 -18t18 -44t-18 -44t-44 -18t-44 18t-18 44zM242 442q53 0 94.5 -17.5t59.5 -38.5q0 -34 -11.5 -56.5t-34.5 -22.5q-19 0 -30.5 10t-23.5 33q-23 46 -67 46q-43 0 -68.5 -43.5t-25.5 -109.5q0 -90 37 -133.5t94 -43.5q15 0 29 1.5t26 5
t21 6.5t18.5 9t13.5 8.5t12 8l8 5.5q2 -1 5 -6t3 -10q0 -11 -6 -19q-15 -27 -59 -54t-98 -27q-89 0 -151.5 65t-62.5 159q0 91 60 157.5t157 66.5z" />
    <glyph glyph-name="Ccaron" unicode="&#x10c;" horiz-adv-x="639" 
d="M474 864q10 0 10 -20q-1 -1 -10.5 -9t-25.5 -22.5t-33 -30.5q-11 -11 -41 -46q-6 -8 -12 -8q-5 0 -12 8q-16 22 -42 47q-22 21 -44.5 40.5t-23.5 20.5q0 20 10 20q9 0 48.5 -21.5t63.5 -38.5q93 60 112 60zM613 182q0 -13 -15 -77.5t-23 -68.5q-87 -42 -232 -42
q-132 0 -225 97t-93 231q0 142 95 243.5t234 101.5q113 0 236 -27q3 -1 6 -65.5t3 -80.5q0 -15 -24 -15q-6 0 -14 4q-4 18 -14.5 37t-31.5 43t-62 39.5t-95 15.5q-98 0 -152.5 -81t-54.5 -194q0 -126 61.5 -213.5t173.5 -87.5q89 0 141 56q13 14 23.5 37.5t16 39.5t7.5 16
q35 0 39 -9z" />
    <glyph glyph-name="ccaron" unicode="&#x10d;" horiz-adv-x="435" 
d="M218 594q25 21 58.5 45.5t41.5 24.5q9 0 9 -23q-1 -1 -9.5 -10t-23 -26t-29.5 -36q-7 -9 -13.5 -18.5t-13 -20t-10.5 -15.5q-6 -9 -10 -9q-6 0 -11 9q-23 36 -38 55q-19 24 -60 71q0 23 9 23q8 0 42.5 -24.5t57.5 -45.5zM242 442q53 0 94.5 -17.5t59.5 -38.5
q0 -34 -11.5 -56.5t-34.5 -22.5q-19 0 -30.5 10t-23.5 33q-23 46 -67 46q-43 0 -68.5 -43.5t-25.5 -109.5q0 -90 37 -133.5t94 -43.5q15 0 29 1.5t26 5t21 6.5t18.5 9t13.5 8.5t12 8l8 5.5q2 -1 5 -6t3 -10q0 -11 -6 -19q-15 -27 -59 -54t-98 -27q-89 0 -151.5 65t-62.5 159
q0 91 60 157.5t157 66.5z" />
    <glyph glyph-name="Dcaron" unicode="&#x10e;" horiz-adv-x="708" 
d="M417 864q10 0 10 -20q-1 -1 -10.5 -9t-25.5 -22.5t-33 -30.5q-11 -11 -41 -46q-6 -8 -12 -8q-5 0 -12 8q-16 22 -42 47q-22 21 -44.5 40.5t-23.5 20.5q0 20 10 20q9 0 48.5 -21.5t63.5 -38.5q93 60 112 60zM162 658h173q163 0 254.5 -96t91.5 -226q0 -144 -92.5 -241.5
t-254.5 -97.5q-21 0 -82.5 2t-88.5 2l-133 -4q-3 3 -3 16q0 17 3 17q13 0 38 6.5t29 15.5q7 21 7 91v378q0 60 -7 82q-3 11 -28 18t-40 7q-4 0 -4 15q0 14 4 18q66 -3 133 -3zM217 530v-392q0 -56 11 -74q16 -16 122 -16q203 0 203 292q0 112 -54.5 190t-155.5 78h-5
q-96 0 -108 -16q-13 -18 -13 -62z" />
    <glyph glyph-name="dcaron" unicode="&#x10f;" horiz-adv-x="520" 
d="M503 644q0 51 78 51q14 -20 14 -67q0 -38 -27 -81t-54 -59h-5q-4 0 -11 7t-7 11q0 1 10 10.5t20 26.5t10 35q0 9 -14 27.5t-14 38.5zM243 396q-53 0 -80 -45t-27 -121q0 -85 31 -132.5t87 -47.5q34 0 55 17.5t21 44.5v210q0 10 -3.5 21t-12 23.5t-27 21t-44.5 8.5z
M252 444q43 0 73 -14q5 0 5 16v94q0 38 -6 68q-5 16 -52 16h-8q-6 0 -6 16t6 16q30 3 58.5 8t47 10t32 10t20.5 7.5t8 2.5h2q4 0 8 -5.5t4 -10.5q-10 -39 -10 -94v-440q0 -46 6 -74q1 -7 10 -11t19 -5t19 -1.5t10 -0.5q2 -2 2 -12q0 -20 -6 -20q-14 -1 -35.5 -4t-42 -6.5
t-39 -7t-30 -6l-11.5 -2.5q-6 0 -6 17v17q0 3 -1.5 4t-2.5 0q-48 -37 -104 -37q-81 0 -141 59.5t-60 149.5q0 99 68.5 169.5t162.5 70.5z" />
    <glyph glyph-name="Dcroat" unicode="&#x110;" horiz-adv-x="718" 
d="M54 350h346q6 0 6 -12q0 -17 -6 -30h-346q-6 0 -6 14q0 20 6 28zM168 658h95h79q83 0 150.5 -27.5t109 -73.5t63 -103t21.5 -118q0 -70 -22.5 -131t-65.5 -107.5t-109.5 -73.5t-148.5 -27q-16 0 -75 2.5t-96 1.5q-28 0 -61 -1t-53 -2l-19 -2q-4 4 -4 16q0 18 4 18
q12 0 37.5 6.5t29.5 15.5q7 18 7 91v378q0 57 -7 82q-3 8 -29.5 16.5t-38.5 8.5q-4 0 -4 15t3 18q67 -3 134 -3zM223 530v-392q0 -56 12 -74q9 -8 52 -12t69 -4q100 0 153 73.5t53 218.5q0 71 -22.5 131t-72 98.5t-117.5 38.5h-6q-96 0 -108 -16q-13 -17 -13 -62z" />
    <glyph glyph-name="dcroat" unicode="&#x111;" horiz-adv-x="535" 
d="M348 127v193q0 33 -12 47q-24 31 -78 31q-42 0 -72.5 -47t-30.5 -115q0 -76 32 -127t86 -51q35 0 55 18t20 51zM452 144q0 -46 6 -74q2 -7 11.5 -11t19.5 -5t19 -2h10q4 -2 4 -8q0 -24 -6 -24q-15 -1 -36.5 -4t-42.5 -6.5t-40 -7t-31 -6.5l-12 -2q-6 0 -6 17v25q0 4 -1 5
t-3 -1q-54 -46 -108 -46q-80 0 -137 58.5t-57 148.5q0 99 66.5 171.5t158.5 73.5q43 0 77 -18q4 0 4 18v66q0 4 -6 4h-132q-6 0 -6 10q0 18 8 42l6 5h125q3 0 3 5q0 22 -3 34q-5 16 -52 16h-9q-6 0 -6 14t6 14q31 3 59 8t46.5 10t32 9.5t20.5 7.5l8 3h2q4 0 8.5 -6t5.5 -10
q-11 -30 -12 -82v-18q0 -5 7 -5h54q8 0 8 -6v-3q-2 -23 -9 -42q-1 -3 -2.5 -4.5t-3.5 -1.5h-1h-46q-7 0 -7 -5v-367z" />
    <glyph glyph-name="Emacron" unicode="&#x112;" horiz-adv-x="584" 
d="M137 736q0 19 4 35t10 16h268q6 0 6 -8q-1 -19 -10 -47h-148h-124q-6 0 -6 4zM162 657q44 0 155 3.5t168 3.5q4 -30 16 -83.5t13 -58.5q-5 -5 -21 -5q-11 0 -14 7q-33 89 -128 89h-52q-74 0 -76 -13q-6 -28 -6 -81v-157q0 -6 44 -6h52h4q58 0 69 5t17 35q3 15 6 25
q1 7 16 7q14 0 19 -5v-189q-4 -4 -19 -4q-13 0 -16 8q-7 27 -12.5 40t-7 14t-8.5 6q-13 8 -92 8q-72 0 -72 -8v-155q0 -55 9 -81q5 -13 68 -13h37q78 0 119 21q16 8 36 35t31 61q1 6 14 6q22 0 28 -6q-3 -9 -14.5 -41t-17.5 -48.5t-13 -40.5t-9 -39q-40 0 -165.5 3t-176.5 1
l-133 -4q-3 3 -3 16q0 17 3 17q13 0 38 6.5t29 15.5q7 21 7 91v378q0 60 -7 82q-3 11 -28 18t-40 7q-4 0 -4 15q0 14 4 18q66 -4 133 -4z" />
    <glyph glyph-name="emacron" unicode="&#x113;" horiz-adv-x="436" 
d="M98 516q2 48 14 48h228q5 0 5 -9q-1 -23 -7 -41l-6 -8h-228l-4 2q-2 2 -2 8zM225 396q-24 0 -43 -14t-29 -34t-14.5 -37.5t-4.5 -29.5q0 -7 6 -7h162q9 0 9 15q0 35 -23.5 71t-62.5 36zM232 442q47 0 84 -18.5t58 -47t32 -59t11 -58.5q0 -22 -7.5 -27.5t-30.5 -5.5h-239
q-7 0 -7 -6q0 -36 13 -70t44.5 -59t75.5 -25q15 0 29 1.5t26 5t21 6.5t18.5 9t13.5 8.5t12 8l8 5.5q2 -1 5 -6t3 -10q0 -11 -6 -19q-15 -27 -59 -54t-99 -27q-87 0 -150 64.5t-63 156.5q0 101 58.5 164t148.5 63z" />
    <glyph glyph-name="Ebreve" unicode="&#x114;" horiz-adv-x="584" 
d="M281 782q27 0 51 15t34 37q1 2 4 2q5 -1 13.5 -8.5t7.5 -11.5q0 -3 -2 -7q-15 -36 -44 -58.5t-64 -22.5t-64.5 22t-43.5 59q-2 4 -2 7q-1 4 7.5 11.5t13.5 8.5q3 0 4 -2q10 -22 34 -37t51 -15zM162 657q44 0 155 3.5t168 3.5q4 -30 16 -83.5t13 -58.5q-5 -5 -21 -5
q-11 0 -14 7q-33 89 -128 89h-52q-74 0 -76 -13q-6 -28 -6 -81v-157q0 -6 44 -6h52h4q58 0 69 5t17 35q3 15 6 25q1 7 16 7q14 0 19 -5v-189q-4 -4 -19 -4q-13 0 -16 8q-7 27 -12.5 40t-7 14t-8.5 6q-13 8 -92 8q-72 0 -72 -8v-155q0 -55 9 -81q5 -13 68 -13h37q78 0 119 21
q16 8 36 35t31 61q1 6 14 6q22 0 28 -6q-3 -9 -14.5 -41t-17.5 -48.5t-13 -40.5t-9 -39q-40 0 -165.5 3t-176.5 1l-133 -4q-3 3 -3 16q0 17 3 17q13 0 38 6.5t29 15.5q7 21 7 91v378q0 60 -7 82q-3 11 -28 18t-40 7q-4 0 -4 15q0 14 4 18q66 -4 133 -4z" />
    <glyph glyph-name="ebreve" unicode="&#x115;" horiz-adv-x="436" 
d="M224 559q28 0 51 18t30 47q0 4 4 4q5 0 14.5 -7t9.5 -11q0 -1 -0.5 -4t-0.5 -4q-9 -41 -39 -68.5t-69 -27.5q-40 0 -71.5 27.5t-40.5 69.5q0 1 -0.5 3.5t-0.5 3.5q0 4 9.5 11t14.5 7q4 0 4 -4q7 -29 32 -47t53 -18zM225 396q-24 0 -43 -14t-29 -34t-14.5 -37.5
t-4.5 -29.5q0 -7 6 -7h162q9 0 9 15q0 35 -23.5 71t-62.5 36zM232 442q47 0 84 -18.5t58 -47t32 -59t11 -58.5q0 -22 -7.5 -27.5t-30.5 -5.5h-239q-7 0 -7 -6q0 -36 13 -70t44.5 -59t75.5 -25q15 0 29 1.5t26 5t21 6.5t18.5 9t13.5 8.5t12 8l8 5.5q2 -1 5 -6t3 -10
q0 -11 -6 -19q-15 -27 -59 -54t-99 -27q-87 0 -150 64.5t-63 156.5q0 101 58.5 164t148.5 63z" />
    <glyph glyph-name="Edotaccent" unicode="&#x116;" horiz-adv-x="584" 
d="M231 790q0 26 18 44t44 18t44 -18t18 -44t-18 -44t-44 -18t-44 18t-18 44zM162 657q44 0 155 3.5t168 3.5q4 -30 16 -83.5t13 -58.5q-5 -5 -21 -5q-11 0 -14 7q-33 89 -128 89h-52q-74 0 -76 -13q-6 -28 -6 -81v-157q0 -6 44 -6h52h4q58 0 69 5t17 35q3 15 6 25q1 7 16 7
q14 0 19 -5v-189q-4 -4 -19 -4q-13 0 -16 8q-7 27 -12.5 40t-7 14t-8.5 6q-13 8 -92 8q-72 0 -72 -8v-155q0 -55 9 -81q5 -13 68 -13h37q78 0 119 21q16 8 36 35t31 61q1 6 14 6q22 0 28 -6q-3 -9 -14.5 -41t-17.5 -48.5t-13 -40.5t-9 -39q-40 0 -165.5 3t-176.5 1l-133 -4
q-3 3 -3 16q0 17 3 17q13 0 38 6.5t29 15.5q7 21 7 91v378q0 60 -7 82q-3 11 -28 18t-40 7q-4 0 -4 15q0 14 4 18q66 -4 133 -4z" />
    <glyph glyph-name="edotaccent" unicode="&#x117;" horiz-adv-x="436" 
d="M166 590q0 26 18 44t44 18t44 -18t18 -44t-18 -44t-44 -18t-44 18t-18 44zM225 396q-24 0 -43 -14t-29 -34t-14.5 -37.5t-4.5 -29.5q0 -7 6 -7h162q9 0 9 15q0 35 -23.5 71t-62.5 36zM232 442q47 0 84 -18.5t58 -47t32 -59t11 -58.5q0 -22 -7.5 -27.5t-30.5 -5.5h-239
q-7 0 -7 -6q0 -36 13 -70t44.5 -59t75.5 -25q15 0 29 1.5t26 5t21 6.5t18.5 9t13.5 8.5t12 8l8 5.5q2 -1 5 -6t3 -10q0 -11 -6 -19q-15 -27 -59 -54t-99 -27q-87 0 -150 64.5t-63 156.5q0 101 58.5 164t148.5 63z" />
    <glyph glyph-name="Eogonek" unicode="&#x118;" horiz-adv-x="578" 
d="M153 658q45 0 156 2t167 2q4 -30 16 -83.5t13 -58.5q-5 -5 -21 -5q-11 0 -14 7q-33 89 -128 89h-52q-74 0 -76 -13q-6 -28 -6 -81v-157q0 -6 44 -6h52h4q58 0 69 5t17 35q3 15 6 25q1 7 16 7q14 0 19 -5v-189q-4 -4 -19 -4q-13 0 -16 8q-7 27 -12.5 40t-7 14t-8.5 6
q-13 8 -92 8q-72 0 -72 -8v-155q0 -55 9 -81q5 -13 68 -13h37q78 0 119 21q16 8 36 35t31 61q2 6 14 6q22 0 28 -6q-50 -141 -54 -168q-39 -3 -85.5 -41t-46.5 -71q0 -15 11 -26.5t31 -11.5q14 0 28 5t23 10.5t18.5 12.5t10.5 8q4 0 4 -16q0 -15 -4 -20q-18 -24 -49.5 -45.5
t-64.5 -21.5q-32 0 -54 23t-22 54q0 38 35.5 79t80.5 62q-170 4 -258 4l-133 -5q-3 3 -3 17q0 17 3 17q13 0 38 6.5t29 15.5q7 21 7 91v378q0 55 -7 82q-3 8 -29.5 16.5t-38.5 8.5q-4 0 -4 15q0 14 4 18q66 -3 133 -3z" />
    <glyph glyph-name="eogonek" unicode="&#x119;" horiz-adv-x="430" 
d="M222 396q-31 0 -52 -24t-27.5 -48t-6.5 -43q0 -7 7 -7h147q9 1 9 15q0 35 -21 71t-56 36zM234 442q38 0 68 -12.5t49 -31.5t31.5 -44t17.5 -48.5t5 -46.5q0 -21 -8.5 -26t-32.5 -5q-78 -2 -222 -2q-6 0 -6 -8v-20q3 -51 35 -93.5t95 -42.5q26 0 49.5 6.5t34.5 13t26 17.5
l16 11q8 -3 8 -16q0 -12 -5 -19q-13 -16 -45 -42q-55 -44 -81.5 -78.5t-26.5 -70.5q0 -15 10 -26.5t30 -11.5q14 0 28.5 5t23 10.5t18.5 12.5t11 8q5 0 5 -16q0 -12 -6 -20q-18 -24 -49.5 -45.5t-64.5 -21.5q-32 0 -54 23t-22 54t28.5 71t61.5 67q-8 -2 -30 -2
q-90 0 -149 62t-59 155q0 101 60 167t150 66z" />
    <glyph glyph-name="Ecaron" unicode="&#x11a;" horiz-adv-x="584" 
d="M402 864q10 0 10 -20q-1 -1 -10.5 -9t-25.5 -22.5t-33 -30.5q-11 -11 -41 -46q-6 -8 -12 -8q-5 0 -12 8q-16 22 -42 47q-22 21 -44.5 40.5t-23.5 20.5q0 20 10 20q9 0 48.5 -21.5t63.5 -38.5q93 60 112 60zM162 657q44 0 155 3.5t168 3.5q4 -30 16 -83.5t13 -58.5
q-5 -5 -21 -5q-11 0 -14 7q-33 89 -128 89h-52q-74 0 -76 -13q-6 -28 -6 -81v-157q0 -6 44 -6h52h4q58 0 69 5t17 35q3 15 6 25q1 7 16 7q14 0 19 -5v-189q-4 -4 -19 -4q-13 0 -16 8q-7 27 -12.5 40t-7 14t-8.5 6q-13 8 -92 8q-72 0 -72 -8v-155q0 -55 9 -81q5 -13 68 -13
h37q78 0 119 21q16 8 36 35t31 61q1 6 14 6q22 0 28 -6q-3 -9 -14.5 -41t-17.5 -48.5t-13 -40.5t-9 -39q-40 0 -165.5 3t-176.5 1l-133 -4q-3 3 -3 16q0 17 3 17q13 0 38 6.5t29 15.5q7 21 7 91v378q0 60 -7 82q-3 11 -28 18t-40 7q-4 0 -4 15q0 14 4 18q66 -4 133 -4z" />
    <glyph glyph-name="ecaron" unicode="&#x11b;" horiz-adv-x="436" 
d="M222 594q25 21 58.5 45.5t41.5 24.5q9 0 9 -23q-1 -1 -9.5 -10t-23 -26t-29.5 -36q-7 -9 -13.5 -18.5t-13 -20t-10.5 -15.5q-6 -9 -10 -9q-6 0 -11 9q-23 36 -38 55q-19 24 -60 71q0 23 9 23q8 0 42.5 -24.5t57.5 -45.5zM225 396q-24 0 -43 -14t-29 -34t-14.5 -37.5
t-4.5 -29.5q0 -7 6 -7h162q9 0 9 15q0 35 -23.5 71t-62.5 36zM232 442q47 0 84 -18.5t58 -47t32 -59t11 -58.5q0 -22 -7.5 -27.5t-30.5 -5.5h-239q-7 0 -7 -6q0 -36 13 -70t44.5 -59t75.5 -25q15 0 29 1.5t26 5t21 6.5t18.5 9t13.5 8.5t12 8l8 5.5q2 -1 5 -6t3 -10
q0 -11 -6 -19q-15 -27 -59 -54t-99 -27q-87 0 -150 64.5t-63 156.5q0 101 58.5 164t148.5 63z" />
    <glyph glyph-name="Gcircumflex" unicode="&#x11c;" horiz-adv-x="702" 
d="M466 728q-19 0 -112 60q-24 -17 -63.5 -38.5t-48.5 -21.5q-10 0 -10 19q1 1 23.5 20.5t44.5 40.5q26 25 42 47q8 9 12 9q5 0 12 -9q30 -35 41 -46q17 -16 33 -30.5t25.5 -22.5t10.5 -9q0 -19 -10 -19zM25 322q0 141 96 243t233 102q88 0 232 -37q3 -1 8.5 -66.5
t5.5 -77.5t-20 -12q-14 0 -22 6q-3 14 -8.5 28t-20 35.5t-35 36.5t-56 26.5t-80.5 11.5q-98 0 -153 -78t-55 -200q0 -72 25.5 -138.5t81 -113t129.5 -46.5q63 0 96 19q10 7 10 23l-1 72v7q0 60 -7 81q-4 13 -29.5 19t-42.5 6q-4 0 -4 14.5t4 18.5q11 0 60.5 -3t79.5 -3
q1 0 121 6q3 -9 3 -17q0 -17 -4 -17q-6 0 -26.5 -6t-29.5 -10q-13 -8 -13 -73q0 -21 0.5 -42t0.5 -23q0 -18 5 -31t5 -15q0 -14 -22 -24q-40 -18 -59 -25t-72.5 -17t-118.5 -10q-132 0 -224.5 98t-92.5 232z" />
    <glyph glyph-name="gcircumflex" unicode="&#x11d;" horiz-adv-x="477" 
d="M311 497q-8 0 -41.5 24.5t-58.5 45.5q-23 -21 -57.5 -45.5t-42.5 -24.5q-9 0 -9 24q49 56 60 70q15 19 38 55q5 9 11 9q4 0 10 -9q33 -48 37 -53q15 -19 29.5 -36t23 -26t9.5 -10q0 -24 -9 -24zM356 -83q0 35 -50.5 46.5t-135.5 11.5q-2 0 -5 -1q-2 -1 -5 -3
q-13 -5 -20 -8.5t-16 -11t-13.5 -17.5t-4.5 -24q0 -36 38 -60t85 -24q56 0 91.5 26t35.5 65zM142 295q0 -49 20 -82.5t56 -33.5q37 0 54.5 28.5t17.5 70.5q0 53 -20 86t-58 33q-36 0 -53 -31t-17 -71zM218 440q36 0 83 -13t80 -13h57q2 0 7 -13t5 -20q0 -14 -6 -14h-65
q-4 0 -4 -3q0 -1 9 -26t9 -48q0 -59 -49.5 -106.5t-123.5 -47.5q-36 0 -62 4q-12 -5 -22 -18.5t-10 -24.5q0 -10 9.5 -17t29.5 -10t34 -4t40 -2h15q100 -3 146.5 -27.5t46.5 -73.5q1 -75 -72 -130t-169 -55q-73 -1 -127.5 28t-54.5 82q0 29 28.5 56t61.5 38q-26 8 -48 30.5
t-22 52.5q0 43 74 89q-29 13 -54 51.5t-25 81.5q0 71 52 112t127 41z" />
    <glyph glyph-name="Gbreve" unicode="&#x11e;" horiz-adv-x="702" 
d="M354 782q27 0 51 15t34 37q1 2 4 2q5 -1 13.5 -8.5t7.5 -11.5q0 -3 -2 -7q-15 -36 -44 -58.5t-64 -22.5t-64.5 22t-43.5 59q-2 4 -2 7q-1 4 7.5 11.5t13.5 8.5q3 0 4 -2q10 -22 34 -37t51 -15zM25 322q0 141 96 243t233 102q88 0 232 -37q3 -1 8.5 -66.5t5.5 -77.5
t-20 -12q-14 0 -22 6q-3 14 -8.5 28t-20 35.5t-35 36.5t-56 26.5t-80.5 11.5q-98 0 -153 -78t-55 -200q0 -72 25.5 -138.5t81 -113t129.5 -46.5q63 0 96 19q10 7 10 23l-1 72v7q0 60 -7 81q-4 13 -29.5 19t-42.5 6q-4 0 -4 14.5t4 18.5q11 0 60.5 -3t79.5 -3q1 0 121 6
q3 -9 3 -17q0 -17 -4 -17q-6 0 -26.5 -6t-29.5 -10q-13 -8 -13 -73q0 -21 0.5 -42t0.5 -23q0 -18 5 -31t5 -15q0 -14 -22 -24q-40 -18 -59 -25t-72.5 -17t-118.5 -10q-132 0 -224.5 98t-92.5 232z" />
    <glyph glyph-name="gbreve" unicode="&#x11f;" horiz-adv-x="477" 
d="M209 559q28 0 51 18t30 47q0 4 4 4q5 0 14.5 -7t9.5 -11q0 -1 -0.5 -4t-0.5 -4q-9 -41 -39 -68.5t-69 -27.5q-40 0 -71.5 27.5t-40.5 69.5q0 1 -0.5 3.5t-0.5 3.5q0 4 9.5 11t14.5 7q4 0 4 -4q7 -29 32 -47t53 -18zM356 -83q0 35 -50.5 46.5t-135.5 11.5q-2 0 -5 -1
q-2 -1 -5 -3q-13 -5 -20 -8.5t-16 -11t-13.5 -17.5t-4.5 -24q0 -36 38 -60t85 -24q56 0 91.5 26t35.5 65zM142 295q0 -49 20 -82.5t56 -33.5q37 0 54.5 28.5t17.5 70.5q0 53 -20 86t-58 33q-36 0 -53 -31t-17 -71zM218 440q36 0 83 -13t80 -13h57q2 0 7 -13t5 -20
q0 -14 -6 -14h-65q-4 0 -4 -3q0 -1 9 -26t9 -48q0 -59 -49.5 -106.5t-123.5 -47.5q-36 0 -62 4q-12 -5 -22 -18.5t-10 -24.5q0 -10 9.5 -17t29.5 -10t34 -4t40 -2h15q100 -3 146.5 -27.5t46.5 -73.5q1 -75 -72 -130t-169 -55q-73 -1 -127.5 28t-54.5 82q0 29 28.5 56
t61.5 38q-26 8 -48 30.5t-22 52.5q0 43 74 89q-29 13 -54 51.5t-25 81.5q0 71 52 112t127 41z" />
    <glyph glyph-name="Gdotaccent" unicode="&#x120;" horiz-adv-x="702" 
d="M292 790q0 26 18 44t44 18t44 -18t18 -44t-18 -44t-44 -18t-44 18t-18 44zM25 322q0 141 96 243t233 102q88 0 232 -37q3 -1 8.5 -66.5t5.5 -77.5t-20 -12q-14 0 -22 6q-3 14 -8.5 28t-20 35.5t-35 36.5t-56 26.5t-80.5 11.5q-98 0 -153 -78t-55 -200q0 -72 25.5 -138.5
t81 -113t129.5 -46.5q63 0 96 19q10 7 10 23l-1 72v7q0 60 -7 81q-4 13 -29.5 19t-42.5 6q-4 0 -4 14.5t4 18.5q11 0 60.5 -3t79.5 -3q1 0 121 6q3 -9 3 -17q0 -17 -4 -17q-6 0 -26.5 -6t-29.5 -10q-13 -8 -13 -73q0 -21 0.5 -42t0.5 -23q0 -18 5 -31t5 -15q0 -14 -22 -24
q-40 -18 -59 -25t-72.5 -17t-118.5 -10q-132 0 -224.5 98t-92.5 232z" />
    <glyph glyph-name="gdotaccent" unicode="&#x121;" horiz-adv-x="477" 
d="M157 590q0 26 18 44t44 18t44 -18t18 -44t-18 -44t-44 -18t-44 18t-18 44zM356 -83q0 35 -50.5 46.5t-135.5 11.5q-2 0 -5 -1q-2 -1 -5 -3q-13 -5 -20 -8.5t-16 -11t-13.5 -17.5t-4.5 -24q0 -36 38 -60t85 -24q56 0 91.5 26t35.5 65zM142 295q0 -49 20 -82.5t56 -33.5
q37 0 54.5 28.5t17.5 70.5q0 53 -20 86t-58 33q-36 0 -53 -31t-17 -71zM218 440q36 0 83 -13t80 -13h57q2 0 7 -13t5 -20q0 -14 -6 -14h-65q-4 0 -4 -3q0 -1 9 -26t9 -48q0 -59 -49.5 -106.5t-123.5 -47.5q-36 0 -62 4q-12 -5 -22 -18.5t-10 -24.5q0 -10 9.5 -17t29.5 -10
t34 -4t40 -2h15q100 -3 146.5 -27.5t46.5 -73.5q1 -75 -72 -130t-169 -55q-73 -1 -127.5 28t-54.5 82q0 29 28.5 56t61.5 38q-26 8 -48 30.5t-22 52.5q0 43 74 89q-29 13 -54 51.5t-25 81.5q0 71 52 112t127 41z" />
    <glyph glyph-name="Gcommaaccent" unicode="&#x122;" horiz-adv-x="702" 
d="M292 -99q0 23 25.5 38t65.5 15q9 -8 15.5 -25.5t6.5 -32.5q0 -68 -87 -120h-5q-7 0 -15.5 4t-8.5 7q0 1 11 9.5t22 20.5t11 23q0 16 -20.5 30t-20.5 31zM25 322q0 141 96 243t233 102q88 0 232 -37q3 -1 8.5 -66.5t5.5 -77.5t-20 -12q-14 0 -22 6q-3 14 -8.5 28t-20 35.5
t-35 36.5t-56 26.5t-80.5 11.5q-98 0 -153 -78t-55 -200q0 -72 25.5 -138.5t81 -113t129.5 -46.5q63 0 96 19q10 7 10 23l-1 72v7q0 60 -7 81q-4 13 -29.5 19t-42.5 6q-4 0 -4 14.5t4 18.5q11 0 60.5 -3t79.5 -3q1 0 121 6q3 -9 3 -17q0 -17 -4 -17q-6 0 -26.5 -6t-29.5 -10
q-13 -8 -13 -73q0 -21 0.5 -42t0.5 -23q0 -18 5 -31t5 -15q0 -14 -22 -24q-40 -18 -59 -25t-72.5 -17t-118.5 -10q-132 0 -224.5 98t-92.5 232z" />
    <glyph glyph-name="gcommaaccent" unicode="&#x123;" horiz-adv-x="477" 
d="M278 558q0 -23 -25.5 -38t-65.5 -15q-9 8 -15.5 25.5t-6.5 32.5q0 68 87 120h5q7 0 15.5 -4t8.5 -7q0 -1 -11 -9.5t-22 -20.5t-11 -23q0 -16 20.5 -30t20.5 -31zM356 -83q0 35 -50.5 46.5t-135.5 11.5q-2 0 -5 -1q-2 -1 -5 -3q-13 -5 -20 -8.5t-16 -11t-13.5 -17.5
t-4.5 -24q0 -36 38 -60t85 -24q56 0 91.5 26t35.5 65zM142 295q0 -49 20 -82.5t56 -33.5q37 0 54.5 28.5t17.5 70.5q0 53 -20 86t-58 33q-36 0 -53 -31t-17 -71zM218 440q36 0 83 -13t80 -13h57q2 0 7 -13t5 -20q0 -14 -6 -14h-65q-4 0 -4 -3q0 -1 9 -26t9 -48
q0 -59 -49.5 -106.5t-123.5 -47.5q-36 0 -62 4q-12 -5 -22 -18.5t-10 -24.5q0 -10 9.5 -17t29.5 -10t34 -4t40 -2h15q100 -3 146.5 -27.5t46.5 -73.5q1 -75 -72 -130t-169 -55q-73 -1 -127.5 28t-54.5 82q0 29 28.5 56t61.5 38q-26 8 -48 30.5t-22 52.5q0 43 74 89
q-29 13 -54 51.5t-25 81.5q0 71 52 112t127 41z" />
    <glyph glyph-name="Hcircumflex" unicode="&#x124;" horiz-adv-x="708" 
d="M465 728q-19 0 -112 60q-24 -17 -63.5 -38.5t-48.5 -21.5q-10 0 -10 19q1 1 23.5 20.5t44.5 40.5q26 25 42 47q8 9 12 9q5 0 12 -9q30 -35 41 -46q17 -16 33 -30.5t25.5 -22.5t10.5 -9q0 -19 -10 -19zM673 30q4 0 4 -19q0 -8 -2 -14q-120 6 -127 6q-20 0 -42 -1
t-48.5 -2.5t-42.5 -2.5q-4 4 -4 14q0 19 4 19q12 0 37.5 7t28.5 15q8 31 8 84v172l-2 4q-94 2 -132 2q-138 -2 -138 -5v-167q0 -55 9 -90q2 -7 27.5 -14.5t34.5 -7.5q4 0 4 -19q0 -8 -2 -14q-120 6 -127 6q-20 0 -42 -1t-48.5 -2.5t-42.5 -2.5q-4 4 -4 14q0 19 4 19
q12 0 37.5 7t28.5 15q8 31 8 84v386q0 60 -8 84q-4 8 -28 15.5t-36 7.5q-4 0 -4 15q0 16 2 18q5 0 55.5 -3t77.5 -3q8 0 128 6q3 -9 3 -16q0 -17 -4 -17q-9 0 -36 -8t-29 -15q-8 -31 -8 -88v-146l2 -3q98 -2 136 -2q42 0 132 2q2 2 2 4v149q0 60 -8 84q-4 8 -28 15.5
t-36 7.5q-4 0 -4 15q0 16 2 18q5 0 55.5 -3t77.5 -3q8 0 128 6q3 -9 3 -16q0 -17 -4 -17q-9 0 -36 -8t-29 -15q-8 -31 -8 -88v-376q0 -55 9 -90q2 -7 27.5 -14.5t34.5 -7.5z" />
    <glyph glyph-name="hcircumflex" unicode="&#x125;" horiz-adv-x="578" 
d="M259 728q-19 0 -112 60q-24 -17 -63.5 -38.5t-48.5 -21.5q-10 0 -10 19q1 1 23.5 20.5t44.5 40.5q26 25 42 47q8 9 12 9q5 0 12 -9q30 -35 41 -46q17 -16 33 -30.5t25.5 -22.5t10.5 -9q0 -19 -10 -19zM354 442q128 0 128 -197v-103q0 -61 8 -90q1 -7 26.5 -14.5
t34.5 -7.5q3 0 3.5 -14.5t-0.5 -19.5q-7 1 -53.5 4t-68.5 3q-25 0 -67.5 -3t-52.5 -4q-3 4 -3 19t3 15q12 0 34.5 7.5t25.5 14.5q6 30 6 73v98q0 83 -22.5 114.5t-71.5 31.5q-30 0 -55 -17t-25 -38v-172q0 -61 8 -90q2 -7 26.5 -14.5t33.5 -7.5q3 0 3.5 -14.5t-1.5 -19.5
q-8 1 -52.5 4t-67.5 3q-24 0 -69.5 -3t-53.5 -4q-4 4 -4 19t4 15q12 0 36.5 7.5t26.5 14.5q7 30 7 72v416q0 40 -5 68q-5 16 -52 16h-9q-6 0 -6 16t6 16q31 3 59 8t46.5 10t32 10t21 7.5l7.5 2.5h2q4 0 8 -5.5t5 -10.5q-12 -39 -12 -94v-202q0 -6 4 -6q1 0 4 3
q21 24 61.5 43.5t80.5 19.5z" />
    <glyph glyph-name="Hbar" unicode="&#x126;" horiz-adv-x="732" 
d="M172 656q10 0 130 6q3 -5 3 -19t-4 -14q-9 0 -35.5 -7.5t-28.5 -15.5q-7 -24 -8 -84q12 -2 137 -2q95 0 135 2q-1 59 -7 84q-3 8 -28 15.5t-37 7.5q-4 0 -4 14.5t3 18.5q16 -1 43 -2.5t49.5 -2.5t43.5 -1q4 0 124 6q2 -8 2 -16q0 -17 -4 -17q-9 0 -35.5 -7.5t-28.5 -15.5
q-7 -28 -7 -84h51q6 0 6 -14q0 -18 -6 -28h-52v-340q0 -58 8 -88q2 -8 28 -15t36 -7q4 0 4 -18q0 -8 -3 -16q-3 1 -50.5 4t-74.5 3t-76 -3t-58 -4q-4 4 -4 19t4 15q12 0 37.5 7t28.5 15q7 25 7 84v163l-2 4q-94 2 -133 2q-137 -2 -138 -5v-160q0 -55 9 -88q2 -7 28 -14.5
t35 -7.5q4 0 4 -14t-2 -20q-13 1 -39.5 3t-48.5 3t-42 1q-27 0 -72.5 -3t-57.5 -4q-4 4 -4 16q0 18 3 18q12 0 38 7t29 15q7 26 7 84v344h-47q-5 0 -5 14q0 18 6 28h46q-1 63 -7 83q-4 9 -28 16.5t-37 7.5q-4 0 -4 17q0 13 3 16q8 0 55 -3t75 -3zM366 480h-138v-117
q0 -3 2 -3q98 -2 136 -2q43 0 133 2q2 2 2 4v116h-135z" />
    <glyph glyph-name="hbar" unicode="&#x127;" horiz-adv-x="562" 
d="M46 568h292q6 0 6 -12q0 -18 -6 -32h-293q-5 0 -5 14q0 20 6 30zM354 442q128 0 128 -197v-103q0 -61 8 -90q1 -7 26.5 -14.5t34.5 -7.5q3 0 3.5 -14.5t-0.5 -19.5q-7 1 -53.5 4t-68.5 3q-25 0 -67.5 -3t-52.5 -4q-3 4 -3 19t3 15q12 0 34.5 7.5t25.5 14.5q6 30 6 73v98
q0 83 -22.5 114.5t-71.5 31.5q-30 0 -55 -17t-25 -38v-172q0 -61 8 -90q2 -7 26.5 -14.5t33.5 -7.5q3 0 3.5 -14.5t-1.5 -19.5q-8 1 -52.5 4t-67.5 3q-24 0 -69.5 -3t-53.5 -4q-4 4 -4 19t4 15q12 0 36.5 7.5t26.5 14.5q7 30 7 72v416q0 40 -5 68q-5 16 -52 16h-9
q-6 0 -6 16t6 16q31 3 59 8t46.5 10t32 10t21 7.5l7.5 2.5h2q4 0 8 -5.5t5 -10.5q-12 -39 -12 -94v-202q0 -6 4 -6q1 0 4 3q21 24 61.5 43.5t80.5 19.5z" />
    <glyph glyph-name="Itilde" unicode="&#x128;" horiz-adv-x="323" 
d="M-11 738q-8 0 -8 19q0 17 18 44q37 46 83 46q36 0 91 -30.5t91 -30.5q18 0 42.5 25.5t26.5 25.5q7 0 7 -20q0 -18 -17 -44q-34 -45 -82 -45q-36 0 -91 30.5t-91 30.5q-13 0 -28.5 -13t-26.5 -25.5t-15 -12.5zM104 522q0 60 -8 84q-4 8 -28 15.5t-36 7.5q-4 0 -4 15
q0 16 2 18q5 0 55.5 -3t77.5 -3q8 0 128 6q3 -9 3 -16q0 -17 -4 -17q-9 0 -36 -8t-29 -15q-8 -31 -8 -88v-376q0 -55 9 -90q2 -7 27.5 -14.5t34.5 -7.5q4 0 4 -19q0 -8 -2 -14q-120 6 -127 6q-20 0 -42 -1t-48.5 -2.5t-42.5 -2.5q-4 4 -4 14q0 19 4 19q12 0 37.5 7t28.5 15
q8 31 8 84v386z" />
    <glyph glyph-name="itilde" unicode="&#x129;" horiz-adv-x="300" 
d="M10 515q-7 0 -7 17q0 16 16 39q30 40 67 40q29 0 74 -26.5t75 -26.5q15 0 35 22.5t22 22.5q5 0 5 -18q0 -20 -14 -40q-28 -39 -66 -39q-30 0 -75 26.5t-75 26.5q-14 0 -34 -22t-23 -22zM203 144q0 -62 7 -90q2 -7 24.5 -15.5t30.5 -8.5q3 0 3.5 -14t-1.5 -19
q-14 1 -37.5 2.5t-42.5 2.5t-36 1q-19 0 -38 -1t-42 -2.5t-38 -2.5q-4 4 -4 18.5t4 14.5q11 0 33.5 8.5t24.5 15.5q8 35 8 74v161q0 46 -16 64q-8 10 -22.5 14.5t-24.5 5.5t-10 3q0 30 5 30q64 7 162 31q9 3 10 3q7 0 7 -20q0 -6 -3.5 -36.5t-3.5 -49.5v-190z" />
    <glyph glyph-name="Imacron" unicode="&#x12a;" horiz-adv-x="323" 
d="M17 736q0 19 4 35t10 16h268q6 0 6 -8q-1 -19 -10 -47h-148h-124q-6 0 -6 4zM104 522q0 60 -8 84q-4 8 -28 15.5t-36 7.5q-4 0 -4 15q0 16 2 18q5 0 55.5 -3t77.5 -3q8 0 128 6q3 -9 3 -16q0 -17 -4 -17q-9 0 -36 -8t-29 -15q-8 -31 -8 -88v-376q0 -55 9 -90
q2 -7 27.5 -14.5t34.5 -7.5q4 0 4 -19q0 -8 -2 -14q-120 6 -127 6q-20 0 -42 -1t-48.5 -2.5t-42.5 -2.5q-4 4 -4 14q0 19 4 19q12 0 37.5 7t28.5 15q8 31 8 84v386z" />
    <glyph glyph-name="imacron" unicode="&#x12b;" horiz-adv-x="300" 
d="M27 516q2 48 14 48h228q5 0 5 -9q-1 -23 -7 -41l-6 -8h-228l-4 2q-2 2 -2 8zM203 144q0 -62 7 -90q2 -7 24.5 -15.5t30.5 -8.5q3 0 3.5 -14t-1.5 -19q-14 1 -37.5 2.5t-42.5 2.5t-36 1q-19 0 -38 -1t-42 -2.5t-38 -2.5q-4 4 -4 18.5t4 14.5q11 0 33.5 8.5t24.5 15.5
q8 35 8 74v161q0 46 -16 64q-8 10 -22.5 14.5t-24.5 5.5t-10 3q0 30 5 30q64 7 162 31q9 3 10 3q7 0 7 -20q0 -6 -3.5 -36.5t-3.5 -49.5v-190z" />
    <glyph glyph-name="Ibreve" unicode="&#x12c;" horiz-adv-x="323" 
d="M161 782q27 0 51 15t34 37q1 2 4 2q5 -1 13.5 -8.5t7.5 -11.5q0 -3 -2 -7q-15 -36 -44 -58.5t-64 -22.5t-64.5 22t-43.5 59q-2 4 -2 7q-1 4 7.5 11.5t13.5 8.5q3 0 4 -2q10 -22 34 -37t51 -15zM104 522q0 60 -8 84q-4 8 -28 15.5t-36 7.5q-4 0 -4 15q0 16 2 18
q5 0 55.5 -3t77.5 -3q8 0 128 6q3 -9 3 -16q0 -17 -4 -17q-9 0 -36 -8t-29 -15q-8 -31 -8 -88v-376q0 -55 9 -90q2 -7 27.5 -14.5t34.5 -7.5q4 0 4 -19q0 -8 -2 -14q-120 6 -127 6q-20 0 -42 -1t-48.5 -2.5t-42.5 -2.5q-4 4 -4 14q0 19 4 19q12 0 37.5 7t28.5 15q8 31 8 84
v386z" />
    <glyph glyph-name="ibreve" unicode="&#x12d;" horiz-adv-x="300" 
d="M153 559q28 0 51 18t30 47q0 4 4 4q5 0 14.5 -7t9.5 -11q0 -1 -0.5 -4t-0.5 -4q-9 -41 -39 -68.5t-69 -27.5q-40 0 -71.5 27.5t-40.5 69.5q0 1 -0.5 3.5t-0.5 3.5q0 4 9.5 11t14.5 7q4 0 4 -4q7 -29 32 -47t53 -18zM203 144q0 -62 7 -90q2 -7 24.5 -15.5t30.5 -8.5
q3 0 3.5 -14t-1.5 -19q-14 1 -37.5 2.5t-42.5 2.5t-36 1q-19 0 -38 -1t-42 -2.5t-38 -2.5q-4 4 -4 18.5t4 14.5q11 0 33.5 8.5t24.5 15.5q8 35 8 74v161q0 46 -16 64q-8 10 -22.5 14.5t-24.5 5.5t-10 3q0 30 5 30q64 7 162 31q9 3 10 3q7 0 7 -20q0 -6 -3.5 -36.5
t-3.5 -49.5v-190z" />
    <glyph glyph-name="Iogonek" unicode="&#x12e;" horiz-adv-x="283" 
d="M145 656q8 0 128 6q3 -9 3 -16q0 -17 -4 -17q-9 0 -36 -8t-29 -15q-8 -31 -8 -88v-376q0 -55 9 -90q2 -7 27.5 -14.5t34.5 -7.5q4 0 4 -18q0 -10 -2 -16q-9 0 -27.5 1.5t-27.5 2.5q-39 -23 -69 -55t-30 -61q0 -15 11 -26.5t31 -11.5q14 0 28 5t23 10.5t18.5 12.5t10.5 8
q4 0 4 -16q0 -15 -4 -20q-18 -24 -49.5 -45.5t-64.5 -21.5q-32 0 -54 23t-22 54q0 38 39 81t85 65q-5 0 -14.5 0.5t-14.5 0.5q-27 0 -73.5 -3t-59.5 -4q-4 4 -4 16q0 18 4 18q12 0 37.5 7t28.5 15q8 31 8 84v386q0 60 -8 84q-4 8 -28 15.5t-36 7.5q-4 0 -4 15q0 16 2 18
q5 0 55.5 -3t77.5 -3z" />
    <glyph glyph-name="iogonek" unicode="&#x12f;" horiz-adv-x="286" 
d="M200 144q0 -62 7 -90q2 -7 24.5 -15.5t30.5 -8.5q3 0 3.5 -14t-1.5 -19l-47 3q-39 -23 -69 -55t-30 -61q0 -15 10.5 -26t30.5 -11q14 0 28.5 5t23 10t18.5 12t11 8q4 0 4 -16q0 -12 -5 -19q-18 -24 -49.5 -46t-64.5 -22q-32 0 -54 23t-22 54q0 38 39.5 81t85.5 65
q-4 0 -13 0.5t-13 0.5q-19 0 -38 -1t-42 -2.5t-38 -2.5q-4 4 -4 18.5t4 14.5q11 0 33.5 8.5t24.5 15.5q8 35 8 74v161q0 46 -16 64q-8 10 -22.5 14.5t-24.5 5.5t-10 3q0 30 5 30q64 7 162 31q9 3 10 3q7 0 7 -20q0 -6 -3.5 -36.5t-3.5 -49.5v-190zM78 591q0 26 18 44t43 18
t43.5 -18.5t18.5 -43.5t-18.5 -43.5t-43.5 -18.5t-43 18t-18 44z" />
    <glyph glyph-name="Idotaccent" unicode="&#x130;" horiz-adv-x="323" 
d="M98 790q0 26 18 44t44 18t44 -18t18 -44t-18 -44t-44 -18t-44 18t-18 44zM104 522q0 60 -8 84q-4 8 -28 15.5t-36 7.5q-4 0 -4 15q0 16 2 18q5 0 55.5 -3t77.5 -3q8 0 128 6q3 -9 3 -16q0 -17 -4 -17q-9 0 -36 -8t-29 -15q-8 -31 -8 -88v-376q0 -55 9 -90
q2 -7 27.5 -14.5t34.5 -7.5q4 0 4 -19q0 -8 -2 -14q-120 6 -127 6q-20 0 -42 -1t-48.5 -2.5t-42.5 -2.5q-4 4 -4 14q0 19 4 19q12 0 37.5 7t28.5 15q8 31 8 84v386z" />
    <glyph glyph-name="dotlessi" unicode="&#x131;" horiz-adv-x="300" 
d="M203 144q0 -62 7 -90q2 -7 24.5 -15.5t30.5 -8.5q3 0 3.5 -14t-1.5 -19q-14 1 -37.5 2.5t-42.5 2.5t-36 1q-19 0 -38 -1t-42 -2.5t-38 -2.5q-4 4 -4 18.5t4 14.5q11 0 33.5 8.5t24.5 15.5q8 35 8 74v161q0 46 -16 64q-8 10 -22.5 14.5t-24.5 5.5t-10 3q0 30 5 30
q64 7 162 31q9 3 10 3q7 0 7 -20q0 -6 -3.5 -36.5t-3.5 -49.5v-190z" />
    <glyph glyph-name="IJ" unicode="&#x132;" horiz-adv-x="566" 
d="M545 518v-404q0 -148 -75 -242t-198 -94q-15 0 -33 6t-22 10q-13 17 -13 45q0 23 19 39t44 16q21 0 45.5 -26t38.5 -26q37 0 58.5 68.5t21.5 195.5v418q0 56 -7 82q-3 12 -27.5 17.5t-40.5 5.5q-4 0 -4 15q0 16 2 18q15 -1 43 -2.5t51 -2.5t43 -1q7 0 127 6q3 -9 3 -16
q0 -17 -4 -17q-9 0 -35.5 -8t-28.5 -15q-8 -31 -8 -88zM104 522q0 60 -8 84q-4 8 -28 15.5t-36 7.5q-4 0 -4 15q0 16 2 18q5 0 55.5 -3t77.5 -3q8 0 128 6q3 -9 3 -16q0 -17 -4 -17q-9 0 -36 -8t-29 -15q-8 -31 -8 -88v-376q0 -55 9 -90q2 -7 27.5 -14.5t34.5 -7.5
q4 0 4 -19q0 -8 -2 -14q-120 6 -127 6q-20 0 -42 -1t-48.5 -2.5t-42.5 -2.5q-4 4 -4 14q0 19 4 19q12 0 37.5 7t28.5 15q8 31 8 84v386z" />
    <glyph glyph-name="ij" unicode="&#x133;" horiz-adv-x="560" 
d="M334 288q0 47 -16 64q-8 10 -22 15t-24 6t-10 3q0 29 6 30q28 2 81 12t79 18q1 0 4.5 1l3.5 1q5 0 8 -7t2 -11q-8 -68 -8 -86v-240q0 -137 -44 -205q-24 -38 -73.5 -72.5t-77.5 -40.5q-13 7 -15 19v4.5t1 4.5l6.5 3t15.5 10.5t20.5 19t22.5 32t20 47.5t14.5 67.5
t5.5 88.5v216zM313 604.5q0 25.5 18 43.5t44 18t44 -18t18 -43.5t-18 -44t-44 -18.5t-44 18.5t-18 44zM83 604.5q0 25.5 18 43.5t44 18t44 -18t18 -43.5t-18 -44t-44 -18.5t-44 18.5t-18 44zM205 142q0 -61 8 -90q2 -7 27 -14.5t34 -7.5q4 0 4.5 -14.5t-1.5 -19.5
q-7 1 -53.5 4t-68.5 3q-25 0 -70.5 -3t-52.5 -4q-4 4 -4 19t4 15q11 0 36 7.5t27 14.5q7 30 7 73v163q0 47 -16 64q-9 10 -23 15t-24 6t-10 3q0 29 6 30q28 2 81 12t79 18q1 0 4.5 1l3.5 1q5 0 8 -7t2 -11q-8 -64 -8 -86v-192z" />
    <glyph glyph-name="Jcircumflex" unicode="&#x134;" horiz-adv-x="466" 
d="M417 728q-19 0 -112 60q-24 -17 -63.5 -38.5t-48.5 -21.5q-10 0 -10 19q1 1 23.5 20.5t44.5 40.5q26 25 42 47q8 9 12 9q5 0 12 -9q30 -35 41 -46q17 -16 33 -30.5t25.5 -22.5t10.5 -9q0 -19 -10 -19zM364 518v-404q0 -148 -75 -242t-198 -94q-15 0 -33 6t-22 10
q-13 17 -13 45q0 23 19 39t44 16q21 0 45.5 -26t38.5 -26q37 0 58.5 68.5t21.5 195.5v418q0 56 -7 82q-3 12 -27.5 17.5t-40.5 5.5q-4 0 -4 15q0 16 2 18q15 -1 43 -2.5t51 -2.5t43 -1q7 0 127 6q3 -9 3 -16q0 -17 -4 -17q-9 0 -35.5 -8t-28.5 -15q-8 -31 -8 -88z" />
    <glyph glyph-name="jcircumflex" unicode="&#x135;" horiz-adv-x="274" 
d="M242 506q-8 0 -41.5 24.5t-58.5 45.5q-23 -21 -57.5 -45.5t-42.5 -24.5q-9 0 -9 24q49 56 60 70q15 19 38 55q5 9 11 9q4 0 10 -9q33 -48 37 -53q15 -19 29.5 -36t23 -26t9.5 -10q0 -24 -9 -24zM200 334v-234q0 -136 -44 -211q-45 -78 -146 -113q-20 9 -20 22q0 5 2 7
l6 4q7 4 13.5 8.5t16.5 14.5t19 22.5t18 33t16 44.5t11 58t4 73v226q0 46 -16 64q-8 10 -22.5 14.5t-24.5 5.5t-10 3q0 30 5 30q64 7 162 31q9 3 10 3q7 0 7 -20q0 -6 -3.5 -36.5t-3.5 -49.5z" />
    <glyph glyph-name="Kcommaaccent" unicode="&#x136;" horiz-adv-x="722" 
d="M308 -99q0 23 25.5 38t65.5 15q9 -8 15.5 -25.5t6.5 -32.5q0 -68 -87 -120h-5q-7 0 -15.5 4t-8.5 7q0 1 11 9.5t22 20.5t11 23q0 16 -20.5 30t-20.5 31zM217 518v-161q0 -3 1.5 -4.5t3.5 -2.5h1h8q21 0 52 34q80 86 176 200q16 19 16 30q0 10 -22 14t-37 4q-4 0 -5 11.5
t1 18.5q111 -6 121 -6q19 0 37.5 1t40 2.5t35.5 2.5q2 -4 1.5 -17t-3.5 -13q-70 -8 -101 -42l-186 -212q-11 -13 2 -28l234 -278q18 -22 48.5 -32t44.5 -10q5 0 5 -19q0 -8 -3 -14q-120 6 -137 6q-32 0 -76.5 -2.5t-62.5 -3.5q-4 4 -4 18.5t4 14.5q11 0 28 7t17 15
q0 5 -28 42t-77 94.5t-97 107.5q-4 4 -22 4q-16 0 -16 -12v-148q0 -53 9 -88q2 -7 27.5 -14.5t34.5 -7.5q4 0 4 -19q0 -8 -2 -14q-120 6 -127 6q-20 0 -42 -1t-48.5 -2.5t-42.5 -2.5q-4 4 -4 14q0 19 4 19q12 0 37.5 7t28.5 15q8 31 8 84v386q0 60 -8 84q-4 8 -28 15.5
t-36 7.5q-4 0 -4 15q0 16 2 18q5 0 55.5 -3t77.5 -3q8 0 128 6q3 -9 3 -16q0 -17 -4 -17q-9 0 -36 -8t-29 -15q-8 -31 -8 -88z" />
    <glyph glyph-name="kcommaaccent" unicode="&#x137;" horiz-adv-x="596" 
d="M245 -99q0 23 25.5 38t65.5 15q9 -8 15.5 -25.5t6.5 -32.5q0 -68 -87 -120h-5q-7 0 -15.5 4t-8.5 7q0 1 11 9.5t22 20.5t11 23q0 16 -20.5 30t-20.5 31zM445 375q-20 -12 -63.5 -45t-79.5 -70q29 -31 73 -81t73 -82t40 -41q15 -12 38.5 -20t33.5 -8q4 0 4 -17
q0 -11 -1 -14q-110 5 -117 5q-19 0 -38.5 -1t-43 -2.5t-37.5 -2.5q-4 4 -4 18t4 14q10 0 23 4.5t13 9.5q0 2 -1 2l-146 163l-12 -3v-62q1 -65 8 -90q2 -7 27 -14.5t35 -7.5q3 0 3.5 -14.5t-1.5 -19.5q-7 1 -53 4t-69 3q-24 0 -69.5 -3t-53.5 -4q-4 4 -4 19t4 15
q12 0 36.5 7.5t26.5 14.5q7 30 7 73v415q0 40 -5 68q-5 16 -52 16h-9q-6 0 -6 16t6 16q31 3 59 8t46.5 10t32 10t21 7.5l7.5 2.5h2q4 0 8 -5.5t5 -10.5q-12 -39 -12 -94v-334q24 6 30 11q21 19 45.5 39.5t35.5 29.5t22 19.5t14.5 16.5t3.5 12q0 11 -22.5 13.5t-22.5 3.5
q-3 7 -3 17.5t4 11.5h97q27 0 106 4q4 -3 5 -11t-0.5 -15t-4.5 -7q-36 0 -69 -20z" />
    <glyph glyph-name="kgreenlandic" unicode="&#x138;" horiz-adv-x="562" 
d="M224 261q44 35 61 48.5t40.5 33.5t31 29.5t7.5 15.5q0 12 -22.5 14.5t-23.5 3.5q-2 7 -2 18t4 12q75 -2 96 -2t64 2.5t56 3.5q5 -5 4.5 -17t-2.5 -15l-20 -3q-42 -6 -64 -19q-17 -10 -69 -50.5t-89 -75.5q30 -33 72.5 -82.5t70 -81t37.5 -40.5q15 -12 39 -20t33 -8
q5 0 5 -17q0 -12 -1 -14q-100 5 -118 5t-37.5 -1t-43 -2.5t-37.5 -2.5q-4 4 -4 18t4 14q9 0 22.5 4.5t13.5 9.5l-2 2l-144 163l-12 -3v-62q0 -59 8 -90q2 -7 27.5 -14.5t34.5 -7.5q3 0 3.5 -15t-1.5 -19q-10 0 -55 3.5t-67 3.5q-24 0 -67.5 -3t-55.5 -4q-4 4 -4 19t4 15
q12 0 36.5 7.5t26.5 14.5q7 30 7 73v159q0 43 -5 68q-5 16 -52 16h-9q-6 0 -6 16t6 16q31 3 59 8t46.5 10t32 9.5t21.5 7.5l7 3h2q4 0 8 -5.5t5 -10.5q-12 -38 -12 -94v-78q20 3 30 11z" />
    <glyph glyph-name="Lacute" unicode="&#x139;" horiz-adv-x="584" 
d="M106 745q0 6 45.5 50.5t74.5 66.5q6 3 18 3q22 0 38 -9t16 -24q0 -24 -80.5 -64t-99.5 -40q-4 0 -8 5.5t-4 11.5zM217 518v-376q0 -49 9 -80q5 -13 68 -13h37q78 0 119 21q16 8 36 35t31 61q1 6 14 6q22 0 28 -6q-3 -9 -14.5 -41t-17.5 -48.5t-13 -40.5t-9 -39
q-40 0 -165.5 3t-176.5 1l-133 -4q-3 3 -3 16q0 17 3 17q13 0 38 6.5t29 15.5q7 21 7 91v378q0 61 -8 85q-4 8 -28 15.5t-36 7.5q-4 0 -4 15q0 16 2 18q5 0 55.5 -3t77.5 -3q8 0 128 6q3 -9 3 -16q0 -17 -4 -17q-9 0 -36 -8t-29 -15q-8 -31 -8 -88z" />
    <glyph glyph-name="lacute" unicode="&#x13a;" horiz-adv-x="295" 
d="M78 745q0 6 45.5 50.5t74.5 66.5q6 3 18 3q22 0 38 -9t16 -24q0 -24 -80.5 -64t-99.5 -40q-4 0 -8 5.5t-4 11.5zM201 144q0 -62 7 -90q2 -7 24.5 -15.5t30.5 -8.5q3 0 3.5 -14t-1.5 -19q-14 1 -37.5 2.5t-42.5 2.5t-36 1q-19 0 -38 -1t-42 -2.5t-38 -2.5q-4 4 -4 18.5
t4 14.5q11 0 33.5 8.5t24.5 15.5q8 35 8 74v416q0 38 -6 68q-5 16 -50 16h-10q-6 0 -6 12q0 16 6 16q31 3 59 8t46.5 10t32 9.5t21.5 7.5l7 3h2q4 0 8.5 -6t5.5 -10q-12 -38 -12 -94v-440z" />
    <glyph glyph-name="Lcommaaccent" unicode="&#x13b;" horiz-adv-x="584" 
d="M217 -99q0 23 25.5 38t65.5 15q9 -8 15.5 -25.5t6.5 -32.5q0 -68 -87 -120h-5q-7 0 -15.5 4t-8.5 7q0 1 11 9.5t22 20.5t11 23q0 16 -20.5 30t-20.5 31zM217 518v-376q0 -49 9 -80q5 -13 68 -13h37q78 0 119 21q16 8 36 35t31 61q1 6 14 6q22 0 28 -6q-3 -9 -14.5 -41
t-17.5 -48.5t-13 -40.5t-9 -39q-40 0 -165.5 3t-176.5 1l-133 -4q-3 3 -3 16q0 17 3 17q13 0 38 6.5t29 15.5q7 21 7 91v378q0 61 -8 85q-4 8 -28 15.5t-36 7.5q-4 0 -4 15q0 16 2 18q5 0 55.5 -3t77.5 -3q8 0 128 6q3 -9 3 -16q0 -17 -4 -17q-9 0 -36 -8t-29 -15
q-8 -31 -8 -88z" />
    <glyph glyph-name="lcommaaccent" unicode="&#x13c;" horiz-adv-x="295" 
d="M97 -99q0 23 25.5 38t65.5 15q9 -8 15.5 -25.5t6.5 -32.5q0 -68 -87 -120h-5q-7 0 -15.5 4t-8.5 7q0 1 11 9.5t22 20.5t11 23q0 16 -20.5 30t-20.5 31zM201 144q0 -62 7 -90q2 -7 24.5 -15.5t30.5 -8.5q3 0 3.5 -14t-1.5 -19q-14 1 -37.5 2.5t-42.5 2.5t-36 1
q-19 0 -38 -1t-42 -2.5t-38 -2.5q-4 4 -4 18.5t4 14.5q11 0 33.5 8.5t24.5 15.5q8 35 8 74v416q0 38 -6 68q-5 16 -50 16h-10q-6 0 -6 12q0 16 6 16q31 3 59 8t46.5 10t32 9.5t21.5 7.5l7 3h2q4 0 8.5 -6t5.5 -10q-12 -38 -12 -94v-440z" />
    <glyph glyph-name="Lcaron" unicode="&#x13d;" horiz-adv-x="584" 
d="M474 644q0 51 78 51q14 -20 14 -67q0 -38 -27 -81t-54 -59h-5q-4 0 -11 7t-7 11q0 1 10 10.5t20 26.5t10 35q0 9 -14 27.5t-14 38.5zM217 518v-376q0 -49 9 -80q5 -13 68 -13h37q78 0 119 21q16 8 36 35t31 61q1 6 14 6q22 0 28 -6q-3 -9 -14.5 -41t-17.5 -48.5
t-13 -40.5t-9 -39q-40 0 -165.5 3t-176.5 1l-133 -4q-3 3 -3 16q0 17 3 17q13 0 38 6.5t29 15.5q7 21 7 91v378q0 61 -8 85q-4 8 -28 15.5t-36 7.5q-4 0 -4 15q0 16 2 18q5 0 55.5 -3t77.5 -3q8 0 128 6q3 -9 3 -16q0 -17 -4 -17q-9 0 -36 -8t-29 -15q-8 -31 -8 -88z" />
    <glyph glyph-name="lcaron" unicode="&#x13e;" horiz-adv-x="295" 
d="M254 644q0 51 78 51q14 -20 14 -67q0 -38 -27 -81t-54 -59h-5q-4 0 -11 7t-7 11q0 1 10 10.5t20 26.5t10 35q0 9 -14 27.5t-14 38.5zM201 144q0 -62 7 -90q2 -7 24.5 -15.5t30.5 -8.5q3 0 3.5 -14t-1.5 -19q-14 1 -37.5 2.5t-42.5 2.5t-36 1q-19 0 -38 -1t-42 -2.5
t-38 -2.5q-4 4 -4 18.5t4 14.5q11 0 33.5 8.5t24.5 15.5q8 35 8 74v416q0 38 -6 68q-5 16 -50 16h-10q-6 0 -6 12q0 16 6 16q31 3 59 8t46.5 10t32 9.5t21.5 7.5l7 3h2q4 0 8.5 -6t5.5 -10q-12 -38 -12 -94v-440z" />
    <glyph glyph-name="Ldot" unicode="&#x13f;" horiz-adv-x="584" 
d="M366 330q0 26 18 44t44 18t44 -18t18 -44t-18 -44t-44 -18t-44 18t-18 44zM217 518v-376q0 -49 9 -80q5 -13 68 -13h37q78 0 119 21q16 8 36 35t31 61q1 6 14 6q22 0 28 -6q-3 -9 -14.5 -41t-17.5 -48.5t-13 -40.5t-9 -39q-40 0 -165.5 3t-176.5 1l-133 -4q-3 3 -3 16
q0 17 3 17q13 0 38 6.5t29 15.5q7 21 7 91v378q0 61 -8 85q-4 8 -28 15.5t-36 7.5q-4 0 -4 15q0 16 2 18q5 0 55.5 -3t77.5 -3q8 0 128 6q3 -9 3 -16q0 -17 -4 -17q-9 0 -36 -8t-29 -15q-8 -31 -8 -88z" />
    <glyph glyph-name="ldot" unicode="&#x140;" horiz-adv-x="455" 
d="M300 290q0 26 18 44t44 18t44 -18t18 -44t-18 -44t-44 -18t-44 18t-18 44zM201 144q0 -62 7 -90q2 -7 24.5 -15.5t30.5 -8.5q3 0 3.5 -14t-1.5 -19q-14 1 -37.5 2.5t-42.5 2.5t-36 1q-19 0 -38 -1t-42 -2.5t-38 -2.5q-4 4 -4 18.5t4 14.5q11 0 33.5 8.5t24.5 15.5
q8 35 8 74v416q0 38 -6 68q-5 16 -50 16h-10q-6 0 -6 12q0 16 6 16q31 3 59 8t46.5 10t32 9.5t21.5 7.5l7 3h2q4 0 8.5 -6t5.5 -10q-12 -38 -12 -94v-440z" />
    <glyph glyph-name="Lslash" unicode="&#x141;" horiz-adv-x="565" 
d="M153 656q8 0 128 6q3 -9 3 -16q0 -17 -4 -17q-9 0 -36 -8t-29 -15q-8 -31 -8 -86v-174l161 112q6 0 12 -10q14 -22 14 -29q1 -7 -4 -11l-183 -125v-141q0 -49 9 -80q5 -13 68 -13h36q79 0 120 21q16 8 36 35t31 61q1 6 14 6q21 0 27 -6q-3 -9 -14.5 -41t-17.5 -48.5
t-13 -40.5t-9 -39q-54 0 -170 2.5t-171 2.5l-133 -4q-4 4 -4 16q0 16 4 16q13 0 38 6.5t29 15.5q7 21 7 91v62l-51 -34q-3 0 -10.5 8t-9.5 15q-7 20 -3 22l74 51v256q0 59 -8 83q-4 8 -28 15.5t-36 7.5q-4 0 -4 15q0 16 2 18q5 0 55.5 -3t77.5 -3z" />
    <glyph glyph-name="lslash" unicode="&#x142;" horiz-adv-x="295" 
d="M99 325v215q0 43 -5 68q-5 16 -52 16h-9q-6 0 -6 16t6 16q31 3 59 8t46.5 10t32 9.5t21.5 7.5l7 3h2q4 0 8 -5.5t5 -10.5q-11 -38 -11 -94v-188l49 34q5 0 10 -6q16 -21 16 -32q1 -6 -4 -11l-71 -48l-1 -191q0 -59 8 -90q2 -7 27.5 -14.5t34.5 -7.5q3 0 3.5 -15t-1.5 -19
q-10 0 -55 3.5t-67 3.5q-24 0 -67.5 -3t-55.5 -4q-4 4 -4 19t4 15q12 0 36.5 7.5t26.5 14.5q7 30 7 73v138l-51 -35q-3 0 -10.5 8.5t-9.5 15.5q0 1 -2 4t-3 6t-1 6.5t2 4.5z" />
    <glyph glyph-name="Nacute" unicode="&#x143;" horiz-adv-x="753" 
d="M328 745q0 6 45.5 50.5t74.5 66.5q6 3 18 3q22 0 38 -9t16 -24q0 -24 -80.5 -64t-99.5 -40q-4 0 -8 5.5t-4 11.5zM571 523q0 53 -10 80q-5 12 -33.5 19t-44.5 7q-4 0 -4.5 14.5t2.5 18.5q107 -7 126 -7q26 0 67 3.5t51 3.5q2 -4 2 -16q0 -17 -4 -17q-14 0 -43 -7.5
t-38 -20.5q-11 -27 -11 -83v-379q0 -36 4 -140q-4 -4 -22 -4q-16 0 -32 23l-398 528v-405q0 -60 8 -82q5 -12 37 -20.5t45 -8.5q3 0 3.5 -14t-1.5 -19q-120 6 -125 6q-27 0 -66.5 -2.5t-52.5 -3.5q-4 4 -4 17q0 16 4 16q17 0 45.5 7.5t36.5 22.5q10 21 10 84v392
q0 54 -11 73q-4 7 -34.5 13t-44.5 6q-4 0 -4.5 15t3.5 19q105 -5 119 -5q33 0 90 5q19 -36 69.5 -106.5t138.5 -186t120 -159.5q2 12 2 41v272z" />
    <glyph glyph-name="nacute" unicode="&#x144;" horiz-adv-x="584" 
d="M392 668q16 0 26 -5.5t13 -11t3 -9.5q0 -25 -71 -80.5t-84 -55.5q-5 0 -10 5.5t-5 10.5t34.5 57t59.5 81q8 8 34 8zM354 442q129 0 129 -205v-95q0 -61 7 -90q2 -7 27.5 -14.5t34.5 -7.5q3 0 3.5 -14.5t-1.5 -19.5q-6 1 -52.5 4t-69.5 3q-24 0 -66.5 -3t-51.5 -4
q-4 4 -4 19t4 15q11 0 33.5 7.5t24.5 14.5q8 30 8 73v95q0 83 -22.5 116t-71.5 33q-32 0 -56 -17.5t-24 -37.5v-172q0 -61 7 -90q2 -7 26.5 -14.5t32.5 -7.5q4 0 4.5 -14.5t-1.5 -19.5q-8 1 -52.5 4t-67.5 3q-24 0 -69.5 -3t-53.5 -4q-4 4 -4 19t4 15q12 0 36.5 7.5
t26.5 14.5q7 30 7 73v163q0 47 -16 64q-8 10 -22.5 15t-24 6t-9.5 3q0 29 5 30q46 4 161 30q1 1 2.5 1.5t3 0.5h2.5q4 0 7 -7t3 -11q-4 -28 -4 -36q0 -4 1 -5q1 0 5 3q24 24 61.5 42t76.5 18z" />
    <glyph glyph-name="Ncommaaccent" unicode="&#x145;" horiz-adv-x="753" 
d="M373 -99q0 23 25.5 38t65.5 15q9 -8 15.5 -25.5t6.5 -32.5q0 -68 -87 -120h-5q-7 0 -15.5 4t-8.5 7q0 1 11 9.5t22 20.5t11 23q0 16 -20.5 30t-20.5 31zM571 523q0 53 -10 80q-5 12 -33.5 19t-44.5 7q-4 0 -4.5 14.5t2.5 18.5q107 -7 126 -7q26 0 67 3.5t51 3.5
q2 -4 2 -16q0 -17 -4 -17q-14 0 -43 -7.5t-38 -20.5q-11 -27 -11 -83v-379q0 -36 4 -140q-4 -4 -22 -4q-16 0 -32 23l-398 528v-405q0 -60 8 -82q5 -12 37 -20.5t45 -8.5q3 0 3.5 -14t-1.5 -19q-120 6 -125 6q-27 0 -66.5 -2.5t-52.5 -3.5q-4 4 -4 17q0 16 4 16
q17 0 45.5 7.5t36.5 22.5q10 21 10 84v392q0 54 -11 73q-4 7 -34.5 13t-44.5 6q-4 0 -4.5 15t3.5 19q105 -5 119 -5q33 0 90 5q19 -36 69.5 -106.5t138.5 -186t120 -159.5q2 12 2 41v272z" />
    <glyph glyph-name="ncommaaccent" unicode="&#x146;" horiz-adv-x="584" 
d="M237 -99q0 23 25.5 38t65.5 15q9 -8 15.5 -25.5t6.5 -32.5q0 -68 -87 -120h-5q-7 0 -15.5 4t-8.5 7q0 1 11 9.5t22 20.5t11 23q0 16 -20.5 30t-20.5 31zM354 442q129 0 129 -205v-95q0 -61 7 -90q2 -7 27.5 -14.5t34.5 -7.5q3 0 3.5 -14.5t-1.5 -19.5q-6 1 -52.5 4
t-69.5 3q-24 0 -66.5 -3t-51.5 -4q-4 4 -4 19t4 15q11 0 33.5 7.5t24.5 14.5q8 30 8 73v95q0 83 -22.5 116t-71.5 33q-32 0 -56 -17.5t-24 -37.5v-172q0 -61 7 -90q2 -7 26.5 -14.5t32.5 -7.5q4 0 4.5 -14.5t-1.5 -19.5q-8 1 -52.5 4t-67.5 3q-24 0 -69.5 -3t-53.5 -4
q-4 4 -4 19t4 15q12 0 36.5 7.5t26.5 14.5q7 30 7 73v163q0 47 -16 64q-8 10 -22.5 15t-24 6t-9.5 3q0 29 5 30q46 4 161 30q1 1 2.5 1.5t3 0.5h2.5q4 0 7 -7t3 -11q-4 -28 -4 -36q0 -4 1 -5q1 0 5 3q24 24 61.5 42t76.5 18z" />
    <glyph glyph-name="Ncaron" unicode="&#x147;" horiz-adv-x="753" 
d="M490 864q10 0 10 -20q-1 -1 -10.5 -9t-25.5 -22.5t-33 -30.5q-11 -11 -41 -46q-6 -8 -12 -8q-5 0 -12 8q-16 22 -42 47q-22 21 -44.5 40.5t-23.5 20.5q0 20 10 20q9 0 48.5 -21.5t63.5 -38.5q93 60 112 60zM571 523q0 53 -10 80q-5 12 -33.5 19t-44.5 7q-4 0 -4.5 14.5
t2.5 18.5q107 -7 126 -7q26 0 67 3.5t51 3.5q2 -4 2 -16q0 -17 -4 -17q-14 0 -43 -7.5t-38 -20.5q-11 -27 -11 -83v-379q0 -36 4 -140q-4 -4 -22 -4q-16 0 -32 23l-398 528v-405q0 -60 8 -82q5 -12 37 -20.5t45 -8.5q3 0 3.5 -14t-1.5 -19q-120 6 -125 6q-27 0 -66.5 -2.5
t-52.5 -3.5q-4 4 -4 17q0 16 4 16q17 0 45.5 7.5t36.5 22.5q10 21 10 84v392q0 54 -11 73q-4 7 -34.5 13t-44.5 6q-4 0 -4.5 15t3.5 19q105 -5 119 -5q33 0 90 5q19 -36 69.5 -106.5t138.5 -186t120 -159.5q2 12 2 41v272z" />
    <glyph glyph-name="ncaron" unicode="&#x148;" horiz-adv-x="584" 
d="M285 594q25 21 58.5 45.5t41.5 24.5q9 0 9 -23q-1 -1 -9.5 -10t-23 -26t-29.5 -36q-7 -9 -13.5 -18.5t-13 -20t-10.5 -15.5q-6 -9 -10 -9q-6 0 -11 9q-23 36 -38 55q-19 24 -60 71q0 23 9 23q8 0 42.5 -24.5t57.5 -45.5zM354 442q129 0 129 -205v-95q0 -61 7 -90
q2 -7 27.5 -14.5t34.5 -7.5q3 0 3.5 -14.5t-1.5 -19.5q-6 1 -52.5 4t-69.5 3q-24 0 -66.5 -3t-51.5 -4q-4 4 -4 19t4 15q11 0 33.5 7.5t24.5 14.5q8 30 8 73v95q0 83 -22.5 116t-71.5 33q-32 0 -56 -17.5t-24 -37.5v-172q0 -61 7 -90q2 -7 26.5 -14.5t32.5 -7.5
q4 0 4.5 -14.5t-1.5 -19.5q-8 1 -52.5 4t-67.5 3q-24 0 -69.5 -3t-53.5 -4q-4 4 -4 19t4 15q12 0 36.5 7.5t26.5 14.5q7 30 7 73v163q0 47 -16 64q-8 10 -22.5 15t-24 6t-9.5 3q0 29 5 30q46 4 161 30q1 1 2.5 1.5t3 0.5h2.5q4 0 7 -7t3 -11q-4 -28 -4 -36q0 -4 1 -5
q1 0 5 3q24 24 61.5 42t76.5 18z" />
    <glyph glyph-name="Eng" unicode="&#x14a;" horiz-adv-x="746" 
d="M632 114q0 -154 -61 -245t-181 -91q-15 0 -32.5 6t-21.5 10q-14 19 -14 45q0 23 18.5 39t43.5 16q21 0 46 -26t39 -26q33 0 61.5 51t37.5 142l-384 511v-405q0 -60 8 -82q5 -12 37 -20.5t45 -8.5q3 0 3.5 -15t-1.5 -19q-7 0 -53 3.5t-72 3.5t-64 -3t-55 -4q-4 4 -4 17
q0 17 4 17q17 0 45.5 7.5t36.5 22.5q10 21 10 84v393q0 52 -11 73q-4 7 -34.5 13t-44.5 6q-4 0 -4.5 14.5t3.5 18.5q105 -5 119 -5q32 0 90 5q19 -36 69.5 -106.5t138.5 -186t120 -159.5q2 12 2 41v273q0 60 -10 80q-7 9 -36.5 17.5t-41.5 8.5q-4 0 -4.5 14t2.5 18
q107 -7 126 -7q26 0 67 3.5t51 3.5q2 -4 2 -16q0 -16 -4 -16q-14 0 -43 -7.5t-38 -20.5q-11 -28 -11 -83v-405z" />
    <glyph glyph-name="eng" unicode="&#x14b;" horiz-adv-x="550" 
d="M372 64v162q0 78 -21 111.5t-67 33.5q-30 0 -57 -20.5t-29 -34.5v-172q0 -62 7 -90q2 -7 24.5 -15.5t30.5 -8.5q3 0 3.5 -14t-1.5 -19q-14 1 -37.5 2.5t-42.5 2.5t-36 1q-19 0 -38 -1t-42 -2.5t-38 -2.5q-4 4 -4 18.5t4 14.5q11 0 33.5 8.5t24.5 15.5q8 35 8 74v161
q0 46 -16 64q-8 10 -22.5 14.5t-24.5 5.5t-10 3q0 30 5 30q64 7 162 31q9 3 10 3q7 0 7 -20q0 -5 -2 -20.5t-2 -17.5q0 -5 4 -5l3 1q18 18 27 26.5t37.5 23t57.5 14.5q67 0 106.5 -42.5t39.5 -123.5v-176q0 -136 -44 -211q-45 -78 -146 -113q-20 9 -20 22q0 5 2 7l6 4
q7 4 13.5 8.5t16.5 15t19 22.5t18 32.5t16 44.5t11 58.5t4 73.5z" />
    <glyph glyph-name="Omacron" unicode="&#x14c;" horiz-adv-x="693" 
d="M201 736q0 19 4 35t10 16h268q6 0 6 -8q-1 -19 -10 -47h-148h-124q-6 0 -6 4zM330 618q-86 0 -131.5 -78.5t-45.5 -189.5q0 -75 20.5 -143t69.5 -117.5t118 -49.5q85 0 131.5 79.5t46.5 189.5q0 77 -20 144.5t-69 116t-120 48.5zM25 328q0 140 94 239.5t226 99.5
t226.5 -99.5t94.5 -239.5t-94.5 -239t-226.5 -99t-226 99t-94 239z" />
    <glyph glyph-name="omacron" unicode="&#x14d;" horiz-adv-x="507" 
d="M129 516q2 48 14 48h228q5 0 5 -9q-1 -23 -7 -41l-6 -8h-228l-4 2q-2 2 -2 8zM240 395q-47 0 -73 -45.5t-26 -108.5q0 -81 32.5 -141t90.5 -60q47 0 73.5 46t26.5 108q0 52 -13 96.5t-42 74.5t-69 30zM253 442q94 0 160.5 -65.5t66.5 -158.5t-65.5 -159t-160.5 -66
t-161 66t-66 159q0 94 65.5 159t160.5 65z" />
    <glyph glyph-name="Obreve" unicode="&#x14e;" horiz-adv-x="693" 
d="M345 782q27 0 51 15t34 37q1 2 4 2q5 -1 13.5 -8.5t7.5 -11.5q0 -3 -2 -7q-15 -36 -44 -58.5t-64 -22.5t-64.5 22t-43.5 59q-2 4 -2 7q-1 4 7.5 11.5t13.5 8.5q3 0 4 -2q10 -22 34 -37t51 -15zM330 618q-86 0 -131.5 -78.5t-45.5 -189.5q0 -75 20.5 -143t69.5 -117.5
t118 -49.5q85 0 131.5 79.5t46.5 189.5q0 77 -20 144.5t-69 116t-120 48.5zM25 328q0 140 94 239.5t226 99.5t226.5 -99.5t94.5 -239.5t-94.5 -239t-226.5 -99t-226 99t-94 239z" />
    <glyph glyph-name="obreve" unicode="&#x14f;" horiz-adv-x="507" 
d="M255 559q28 0 51 18t30 47q0 4 4 4q5 0 14.5 -7t9.5 -11q0 -1 -0.5 -4t-0.5 -4q-9 -41 -39 -68.5t-69 -27.5q-40 0 -71.5 27.5t-40.5 69.5q0 1 -0.5 3.5t-0.5 3.5q0 4 9.5 11t14.5 7q4 0 4 -4q7 -29 32 -47t53 -18zM240 395q-47 0 -73 -45.5t-26 -108.5q0 -81 32.5 -141
t90.5 -60q47 0 73.5 46t26.5 108q0 52 -13 96.5t-42 74.5t-69 30zM253 442q94 0 160.5 -65.5t66.5 -158.5t-65.5 -159t-160.5 -66t-161 66t-66 159q0 94 65.5 159t160.5 65z" />
    <glyph glyph-name="Ohungarumlaut" unicode="&#x150;" horiz-adv-x="693" 
d="M524 890q16 0 26.5 -5.5t14 -11t3.5 -9.5q0 -25 -71.5 -80.5t-84.5 -55.5q-5 0 -9.5 5.5t-4.5 10.5q0 3 15 28t37.5 58t39.5 52q8 8 34 8zM392 890q16 0 26.5 -5.5t13.5 -11t3 -9.5q0 -25 -71.5 -80.5t-84.5 -55.5q-5 0 -10 5.5t-5 10.5t34.5 57t59.5 81q8 8 34 8z
M330 618q-86 0 -131.5 -78.5t-45.5 -189.5q0 -75 20.5 -143t69.5 -117.5t118 -49.5q85 0 131.5 79.5t46.5 189.5q0 77 -20 144.5t-69 116t-120 48.5zM25 328q0 140 94 239.5t226 99.5t226.5 -99.5t94.5 -239.5t-94.5 -239t-226.5 -99t-226 99t-94 239z" />
    <glyph glyph-name="ohungarumlaut" unicode="&#x151;" horiz-adv-x="507" 
d="M412 668q16 0 26.5 -5.5t14 -11t3.5 -9.5q0 -25 -71.5 -80.5t-84.5 -55.5q-5 0 -9.5 5.5t-4.5 10.5q0 3 15 28t37.5 58t39.5 52q8 8 34 8zM280 668q16 0 26.5 -5.5t13.5 -11t3 -9.5q0 -25 -71.5 -80.5t-84.5 -55.5q-5 0 -10 5.5t-5 10.5t34.5 57t59.5 81q8 8 34 8z
M240 395q-47 0 -73 -45.5t-26 -108.5q0 -81 32.5 -141t90.5 -60q47 0 73.5 46t26.5 108q0 52 -13 96.5t-42 74.5t-69 30zM253 442q94 0 160.5 -65.5t66.5 -158.5t-65.5 -159t-160.5 -66t-161 66t-66 159q0 94 65.5 159t160.5 65z" />
    <glyph glyph-name="OE" unicode="&#x152;" horiz-adv-x="1011" 
d="M338 618q-59 0 -100.5 -40t-59.5 -99t-18 -129q0 -75 22 -143.5t73 -118.5t122 -50q31 0 48.5 1t37.5 8t32 21q39 40 39 145v261q0 76 -39 109q-26 22 -62.5 28.5t-94.5 6.5zM352 667q30 0 118 -4.5t122 -4.5q44 0 154.5 3t167.5 3q4 -29 16 -80.5t14 -61.5q-5 -5 -21 -5
q-11 0 -14 7q-33 89 -128 89h-53q-74 0 -76 -13q-5 -24 -5 -81v-157q0 -6 43 -6h53h4q58 0 69 5t17 35q3 15 6 25q1 7 15 7q15 0 20 -5v-189q-4 -4 -19 -4q-13 0 -16 8q-7 27 -12.5 40t-7 14t-8.5 6q-13 8 -92 8q-72 0 -72 -8v-155q0 -55 9 -81q5 -13 68 -13h36q79 0 120 21
q16 8 36 35t31 61q1 6 14 6q21 0 27 -6q-3 -9 -14.5 -41t-17.5 -48.5t-13 -40.5t-9 -39q-54 0 -169.5 2.5t-171.5 2.5q-61 0 -113 -4q-87 -6 -130 -6q-132 0 -225 98t-93 238q0 141 93 240t227 99z" />
    <glyph glyph-name="oe" unicode="&#x153;" horiz-adv-x="793" 
d="M265 40q45 0 73 47.5t28 115.5q0 80 -36 137.5t-84 57.5q-45 0 -73 -47.5t-28 -115.5q0 -80 36 -137.5t84 -57.5zM648 284q0 31 -21.5 71.5t-56.5 40.5q-27 0 -46 -14t-26.5 -35t-10.5 -36.5t-3 -29.5q0 -6 6 -6h152q6 3 6 9zM582 442q47 0 82 -17.5t53.5 -46t27.5 -58.5
t9 -60q0 -32 -44 -32q-124 -3 -219 -3q-9 0 -9 -8v-8q0 -62 34.5 -104t97.5 -42q33 0 62 11.5t45 22.5t17 11t3 -2t4.5 -5.5t2.5 -6.5q0 -13 -4 -20q-20 -29 -67.5 -55.5t-94.5 -26.5q-94 0 -157 71q-63 -70 -166 -70q-98 0 -164 66t-66 161t64.5 160t162.5 65
q102 0 167 -72q59 69 159 69z" />
    <glyph glyph-name="Racute" unicode="&#x154;" horiz-adv-x="685" 
d="M216 745q0 6 45.5 50.5t74.5 66.5q6 3 18 3q22 0 38 -9t16 -24q0 -24 -80.5 -64t-99.5 -40q-4 0 -8 5.5t-4 11.5zM288 610q-42 0 -58 -7q-11 -5 -12 -104v-115q0 -22 17 -29t47 -7h26q37 0 66.5 35t29.5 91q0 136 -116 136zM304 660q26 0 54.5 -5.5t59 -18.5t54.5 -32
t39 -50t15 -70q0 -54 -35 -102t-85 -68q-8 -3 -4 -10q56 -101 112 -170q35 -43 75.5 -73.5t74.5 -30.5q4 -6 4 -16t-4 -18q-12 -2 -31 -2q-51 0 -92.5 12t-72 35.5t-50.5 45.5t-42 56q-14 20 -32 47t-27.5 41.5t-21.5 30.5t-20.5 24t-16.5 11q-6 3 -24 3q-16 0 -16 -17v-141
q0 -60 8 -85q3 -12 33.5 -19.5t44.5 -7.5q4 0 4 -17q0 -11 -2 -17q-110 6 -142 6q-27 0 -60.5 -1.5t-53.5 -2.5l-20 -2q-3 4 -3 18q0 16 3 16q13 0 38.5 6.5t29.5 15.5q6 18 6 91v378q0 57 -6 82q-3 8 -29.5 16.5t-38.5 8.5q-4 0 -4 15t4 18q106 -3 133 -3q28 0 69.5 1
t71.5 1z" />
    <glyph glyph-name="racute" unicode="&#x155;" horiz-adv-x="430" 
d="M337 668q16 0 26 -5.5t13 -11t3 -9.5q0 -25 -71 -80.5t-84 -55.5q-5 0 -10 5.5t-5 10.5t34.5 57t59.5 81q8 8 34 8zM320 442q55 0 82 -33q0 -85 -48 -85q-18 0 -39 20t-43 20q-31 0 -48.5 -31.5t-17.5 -65.5v-125q0 -61 7 -90q2 -7 26.5 -14.5t33.5 -7.5q3 0 3.5 -14.5
t-0.5 -19.5q-8 1 -53 4t-68 3q-24 0 -69.5 -3t-53.5 -4q-4 4 -4 19t4 15q12 0 36.5 7.5t26.5 14.5q7 30 7 73v163q0 47 -16 64q-8 10 -22.5 15t-24 6t-9.5 3q0 29 5 30q46 4 161 30l3.5 1t4.5 1q4 0 7 -7t2.5 -11.5t-1.5 -14t-2.5 -20t-1.5 -13.5q18 27 49 48.5t63 21.5z
" />
    <glyph glyph-name="Rcommaaccent" unicode="&#x156;" horiz-adv-x="685" 
d="M298 -99q0 23 25.5 38t65.5 15q9 -8 15.5 -25.5t6.5 -32.5q0 -68 -87 -120h-5q-7 0 -15.5 4t-8.5 7q0 1 11 9.5t22 20.5t11 23q0 16 -20.5 30t-20.5 31zM288 610q-42 0 -58 -7q-11 -5 -12 -104v-115q0 -22 17 -29t47 -7h26q37 0 66.5 35t29.5 91q0 136 -116 136zM304 660
q26 0 54.5 -5.5t59 -18.5t54.5 -32t39 -50t15 -70q0 -54 -35 -102t-85 -68q-8 -3 -4 -10q56 -101 112 -170q35 -43 75.5 -73.5t74.5 -30.5q4 -6 4 -16t-4 -18q-12 -2 -31 -2q-51 0 -92.5 12t-72 35.5t-50.5 45.5t-42 56q-14 20 -32 47t-27.5 41.5t-21.5 30.5t-20.5 24
t-16.5 11q-6 3 -24 3q-16 0 -16 -17v-141q0 -60 8 -85q3 -12 33.5 -19.5t44.5 -7.5q4 0 4 -17q0 -11 -2 -17q-110 6 -142 6q-27 0 -60.5 -1.5t-53.5 -2.5l-20 -2q-3 4 -3 18q0 16 3 16q13 0 38.5 6.5t29.5 15.5q6 18 6 91v378q0 57 -6 82q-3 8 -29.5 16.5t-38.5 8.5
q-4 0 -4 15t4 18q106 -3 133 -3q28 0 69.5 1t71.5 1z" />
    <glyph glyph-name="rcommaaccent" unicode="&#x157;" horiz-adv-x="430" 
d="M98 -99q0 23 25.5 38t65.5 15q9 -8 15.5 -25.5t6.5 -32.5q0 -68 -87 -120h-5q-7 0 -15.5 4t-8.5 7q0 1 11 9.5t22 20.5t11 23q0 16 -20.5 30t-20.5 31zM320 442q55 0 82 -33q0 -85 -48 -85q-18 0 -39 20t-43 20q-31 0 -48.5 -31.5t-17.5 -65.5v-125q0 -61 7 -90
q2 -7 26.5 -14.5t33.5 -7.5q3 0 3.5 -14.5t-0.5 -19.5q-8 1 -53 4t-68 3q-24 0 -69.5 -3t-53.5 -4q-4 4 -4 19t4 15q12 0 36.5 7.5t26.5 14.5q7 30 7 73v163q0 47 -16 64q-8 10 -22.5 15t-24 6t-9.5 3q0 29 5 30q46 4 161 30l3.5 1t4.5 1q4 0 7 -7t2.5 -11.5t-1.5 -14
t-2.5 -20t-1.5 -13.5q18 27 49 48.5t63 21.5z" />
    <glyph glyph-name="Rcaron" unicode="&#x158;" horiz-adv-x="685" 
d="M391 864q10 0 10 -20q-1 -1 -10.5 -9t-25.5 -22.5t-33 -30.5q-11 -11 -41 -46q-6 -8 -12 -8q-5 0 -12 8q-16 22 -42 47q-22 21 -44.5 40.5t-23.5 20.5q0 20 10 20q9 0 48.5 -21.5t63.5 -38.5q93 60 112 60zM288 610q-42 0 -58 -7q-11 -5 -12 -104v-115q0 -22 17 -29
t47 -7h26q37 0 66.5 35t29.5 91q0 136 -116 136zM304 660q26 0 54.5 -5.5t59 -18.5t54.5 -32t39 -50t15 -70q0 -54 -35 -102t-85 -68q-8 -3 -4 -10q56 -101 112 -170q35 -43 75.5 -73.5t74.5 -30.5q4 -6 4 -16t-4 -18q-12 -2 -31 -2q-51 0 -92.5 12t-72 35.5t-50.5 45.5
t-42 56q-14 20 -32 47t-27.5 41.5t-21.5 30.5t-20.5 24t-16.5 11q-6 3 -24 3q-16 0 -16 -17v-141q0 -60 8 -85q3 -12 33.5 -19.5t44.5 -7.5q4 0 4 -17q0 -11 -2 -17q-110 6 -142 6q-27 0 -60.5 -1.5t-53.5 -2.5l-20 -2q-3 4 -3 18q0 16 3 16q13 0 38.5 6.5t29.5 15.5
q6 18 6 91v378q0 57 -6 82q-3 8 -29.5 16.5t-38.5 8.5q-4 0 -4 15t4 18q106 -3 133 -3q28 0 69.5 1t71.5 1z" />
    <glyph glyph-name="rcaron" unicode="&#x159;" horiz-adv-x="430" 
d="M212 594q25 21 58.5 45.5t41.5 24.5q9 0 9 -23q-1 -1 -9.5 -10t-23 -26t-29.5 -36q-7 -9 -13.5 -18.5t-13 -20t-10.5 -15.5q-6 -9 -10 -9q-6 0 -11 9q-23 36 -38 55q-19 24 -60 71q0 23 9 23q8 0 42.5 -24.5t57.5 -45.5zM320 442q55 0 82 -33q0 -85 -48 -85q-18 0 -39 20
t-43 20q-31 0 -48.5 -31.5t-17.5 -65.5v-125q0 -61 7 -90q2 -7 26.5 -14.5t33.5 -7.5q3 0 3.5 -14.5t-0.5 -19.5q-8 1 -53 4t-68 3q-24 0 -69.5 -3t-53.5 -4q-4 4 -4 19t4 15q12 0 36.5 7.5t26.5 14.5q7 30 7 73v163q0 47 -16 64q-8 10 -22.5 15t-24 6t-9.5 3q0 29 5 30
q46 4 161 30l3.5 1t4.5 1q4 0 7 -7t2.5 -11.5t-1.5 -14t-2.5 -20t-1.5 -13.5q18 27 49 48.5t63 21.5z" />
    <glyph glyph-name="Sacute" unicode="&#x15a;" horiz-adv-x="474" 
d="M198 745q0 6 45.5 50.5t74.5 66.5q6 3 18 3q22 0 38 -9t16 -24q0 -24 -80.5 -64t-99.5 -40q-4 0 -8 5.5t-4 11.5zM38 490q0 75 63 126.5t142 51.5q28 0 49 -3t58.5 -12.5t51.5 -12.5q12 -68 12 -154q-2 -9 -12 -9q-27 0 -29 9q-6 46 -43 90t-90 44q-46 0 -70.5 -26
t-24.5 -70q0 -15 3.5 -28.5t14 -26.5t17 -21.5t25 -21.5t25 -18t30 -19.5t28.5 -16.5q6 -5 33.5 -21.5t38.5 -24t32 -25.5t30.5 -34t17.5 -40.5t8 -52.5q0 -80 -64.5 -132t-149.5 -52q-60 0 -184 28q-9 36 -16.5 90.5t-7.5 71.5q1 8 16 8q26 0 29 -8q4 -18 14 -39.5
t27.5 -46t47 -40t66.5 -15.5q47 0 78 28t31 84q0 17 -6.5 33t-15 27t-25 24t-27.5 20t-32.5 19.5t-30.5 17.5q-3 3 -11 8q-29 18 -44 28t-38.5 29.5t-35.5 36.5t-21.5 42t-9.5 54z" />
    <glyph glyph-name="sacute" unicode="&#x15b;" horiz-adv-x="366" 
d="M276 668q16 0 26 -5.5t13 -11t3 -9.5q0 -25 -71 -80.5t-84 -55.5q-5 0 -10 5.5t-5 10.5t34.5 57t59.5 81q8 8 34 8zM190 443q56 0 116 -17q10 -45 11 -112q0 -8 -13 -8q-22 0 -24 8q-7 35 -29.5 59.5t-60.5 24.5q-29 0 -45.5 -13t-16.5 -37q0 -14 5.5 -25.5t18 -21.5
t22 -16t28.5 -16q7 -4 10 -5q2 -1 15 -8t16.5 -9t16 -9.5t17.5 -11.5t15.5 -12t15 -14t12 -15.5t10.5 -18t5.5 -19t2.5 -21.5q0 -63 -48.5 -99.5t-117.5 -36.5q-62 0 -129 28q-5 17 -10 55.5t-5 57.5q6 5 14 5q23 0 24 -8q8 -42 39.5 -67.5t68.5 -25.5q28 0 46 14t18 41
q0 10 -2.5 18.5t-9.5 17t-11.5 14t-18 13.5t-20 11.5t-25 13t-25.5 13.5q-46 24 -71 53.5t-25 71.5q0 61 48 94t112 33z" />
    <glyph glyph-name="Scircumflex" unicode="&#x15c;" horiz-adv-x="474" 
d="M355 729q-19 0 -112 60q-24 -17 -63.5 -38.5t-48.5 -21.5q-10 0 -10 19q1 1 23.5 20.5t44.5 40.5q26 25 42 47q8 9 12 9q5 0 12 -9q30 -35 41 -46q17 -16 33 -30.5t25.5 -22.5t10.5 -9q0 -19 -10 -19zM38 490q0 75 63 126.5t142 51.5q28 0 49 -3t58.5 -12.5t51.5 -12.5
q12 -68 12 -154q-2 -9 -12 -9q-27 0 -29 9q-6 46 -43 90t-90 44q-46 0 -70.5 -26t-24.5 -70q0 -15 3.5 -28.5t14 -26.5t17 -21.5t25 -21.5t25 -18t30 -19.5t28.5 -16.5q6 -5 33.5 -21.5t38.5 -24t32 -25.5t30.5 -34t17.5 -40.5t8 -52.5q0 -80 -64.5 -132t-149.5 -52
q-60 0 -184 28q-9 36 -16.5 90.5t-7.5 71.5q1 8 16 8q26 0 29 -8q4 -18 14 -39.5t27.5 -46t47 -40t66.5 -15.5q47 0 78 28t31 84q0 17 -6.5 33t-15 27t-25 24t-27.5 20t-32.5 19.5t-30.5 17.5q-3 3 -11 8q-29 18 -44 28t-38.5 29.5t-35.5 36.5t-21.5 42t-9.5 54z" />
    <glyph glyph-name="scircumflex" unicode="&#x15d;" horiz-adv-x="366" 
d="M291 497q-8 0 -41.5 24.5t-58.5 45.5q-23 -21 -57.5 -45.5t-42.5 -24.5q-9 0 -9 24q49 56 60 70q15 19 38 55q5 9 11 9q4 0 10 -9q33 -48 37 -53q15 -19 29.5 -36t23 -26t9.5 -10q0 -24 -9 -24zM190 443q56 0 116 -17q10 -45 11 -112q0 -8 -13 -8q-22 0 -24 8
q-7 35 -29.5 59.5t-60.5 24.5q-29 0 -45.5 -13t-16.5 -37q0 -14 5.5 -25.5t18 -21.5t22 -16t28.5 -16q7 -4 10 -5q2 -1 15 -8t16.5 -9t16 -9.5t17.5 -11.5t15.5 -12t15 -14t12 -15.5t10.5 -18t5.5 -19t2.5 -21.5q0 -63 -48.5 -99.5t-117.5 -36.5q-62 0 -129 28
q-5 17 -10 55.5t-5 57.5q6 5 14 5q23 0 24 -8q8 -42 39.5 -67.5t68.5 -25.5q28 0 46 14t18 41q0 10 -2.5 18.5t-9.5 17t-11.5 14t-18 13.5t-20 11.5t-25 13t-25.5 13.5q-46 24 -71 53.5t-25 71.5q0 61 48 94t112 33z" />
    <glyph glyph-name="Scedilla" unicode="&#x15e;" horiz-adv-x="474" 
d="M231 -33h26q24 0 41 -17.5t17 -40.5q0 -41 -31.5 -66t-81.5 -25q-28 0 -48 15q-3 15 -3 18q0 6 4 11t9 5q4 0 21 -8t29 -8q23 0 36 10.5t13 25.5q0 16 -9.5 26.5t-23.5 10.5q-15 0 -32 -7q-2 0 -8.5 6.5t-5.5 9.5q12 20 35 63h31zM38 490q0 75 63 126.5t142 51.5
q28 0 49 -3t58.5 -12.5t51.5 -12.5q12 -68 12 -154q-2 -9 -12 -9q-27 0 -29 9q-6 46 -43 90t-90 44q-46 0 -70.5 -26t-24.5 -70q0 -15 3.5 -28.5t14 -26.5t17 -21.5t25 -21.5t25 -18t30 -19.5t28.5 -16.5q6 -5 33.5 -21.5t38.5 -24t32 -25.5t30.5 -34t17.5 -40.5t8 -52.5
q0 -80 -64.5 -132t-149.5 -52q-60 0 -184 28q-9 36 -16.5 90.5t-7.5 71.5q1 8 16 8q26 0 29 -8q4 -18 14 -39.5t27.5 -46t47 -40t66.5 -15.5q47 0 78 28t31 84q0 17 -6.5 33t-15 27t-25 24t-27.5 20t-32.5 19.5t-30.5 17.5q-3 3 -11 8q-29 18 -44 28t-38.5 29.5t-35.5 36.5
t-21.5 42t-9.5 54z" />
    <glyph glyph-name="scedilla" unicode="&#x15f;" horiz-adv-x="366" 
d="M165 -30q18 1 22 1q21 0 35 -15t14 -35q0 -35 -27 -56t-69 -21q-28 0 -40 12q-3 12 -3 16q0 5 4 9.5t7 4.5t17.5 -7t25.5 -7q20 0 30.5 9t10.5 22q0 14 -8 22.5t-20 8.5q-13 0 -28 -6q-2 0 -7.5 5.5t-4.5 8.5q5 9 16.5 29.5t13.5 23.5h27zM190 443q56 0 116 -17
q10 -45 11 -112q0 -8 -13 -8q-22 0 -24 8q-7 35 -29.5 59.5t-60.5 24.5q-29 0 -45.5 -13t-16.5 -37q0 -14 5.5 -25.5t18 -21.5t22 -16t28.5 -16q7 -4 10 -5q2 -1 15 -8t16.5 -9t16 -9.5t17.5 -11.5t15.5 -12t15 -14t12 -15.5t10.5 -18t5.5 -19t2.5 -21.5q0 -63 -48.5 -99.5
t-117.5 -36.5q-62 0 -129 28q-5 17 -10 55.5t-5 57.5q6 5 14 5q23 0 24 -8q8 -42 39.5 -67.5t68.5 -25.5q28 0 46 14t18 41q0 10 -2.5 18.5t-9.5 17t-11.5 14t-18 13.5t-20 11.5t-25 13t-25.5 13.5q-46 24 -71 53.5t-25 71.5q0 61 48 94t112 33z" />
    <glyph glyph-name="Scaron" unicode="&#x160;" horiz-adv-x="474" 
d="M343 865q10 0 10 -20q-1 -1 -10.5 -9t-25.5 -22.5t-33 -30.5q-11 -11 -41 -46q-6 -8 -12 -8q-5 0 -12 8q-16 22 -42 47q-22 21 -44.5 40.5t-23.5 20.5q0 20 10 20q9 0 48.5 -21.5t63.5 -38.5q93 60 112 60zM38 490q0 75 63 126.5t142 51.5q28 0 49 -3t58.5 -12.5
t51.5 -12.5q12 -68 12 -154q-2 -9 -12 -9q-27 0 -29 9q-6 46 -43 90t-90 44q-46 0 -70.5 -26t-24.5 -70q0 -15 3.5 -28.5t14 -26.5t17 -21.5t25 -21.5t25 -18t30 -19.5t28.5 -16.5q6 -5 33.5 -21.5t38.5 -24t32 -25.5t30.5 -34t17.5 -40.5t8 -52.5q0 -80 -64.5 -132
t-149.5 -52q-60 0 -184 28q-9 36 -16.5 90.5t-7.5 71.5q1 8 16 8q26 0 29 -8q4 -18 14 -39.5t27.5 -46t47 -40t66.5 -15.5q47 0 78 28t31 84q0 17 -6.5 33t-15 27t-25 24t-27.5 20t-32.5 19.5t-30.5 17.5q-3 3 -11 8q-29 18 -44 28t-38.5 29.5t-35.5 36.5t-21.5 42t-9.5 54z
" />
    <glyph glyph-name="scaron" unicode="&#x161;" horiz-adv-x="366" 
d="M170 594q25 21 58.5 45.5t41.5 24.5q9 0 9 -23q-1 -1 -9.5 -10t-23 -26t-29.5 -36q-7 -9 -13.5 -18.5t-13 -20t-10.5 -15.5q-6 -9 -10 -9q-6 0 -11 9q-23 36 -38 55q-19 24 -60 71q0 23 9 23q8 0 42.5 -24.5t57.5 -45.5zM190 443q56 0 116 -17q10 -45 11 -112
q0 -8 -13 -8q-22 0 -24 8q-7 35 -29.5 59.5t-60.5 24.5q-29 0 -45.5 -13t-16.5 -37q0 -14 5.5 -25.5t18 -21.5t22 -16t28.5 -16q7 -4 10 -5q2 -1 15 -8t16.5 -9t16 -9.5t17.5 -11.5t15.5 -12t15 -14t12 -15.5t10.5 -18t5.5 -19t2.5 -21.5q0 -63 -48.5 -99.5t-117.5 -36.5
q-62 0 -129 28q-5 17 -10 55.5t-5 57.5q6 5 14 5q23 0 24 -8q8 -42 39.5 -67.5t68.5 -25.5q28 0 46 14t18 41q0 10 -2.5 18.5t-9.5 17t-11.5 14t-18 13.5t-20 11.5t-25 13t-25.5 13.5q-46 24 -71 53.5t-25 71.5q0 61 48 94t112 33z" />
    <glyph glyph-name="Tcommaaccent" unicode="&#x162;" horiz-adv-x="664" 
d="M331 656q43 0 111 2.5t109 3.5q25 0 69 10l19 -153q-7 -7 -27 -7q-8 0 -10 5q-14 55 -37 74.5t-72 19.5q-93 0 -97 -17q-9 -29 -9 -94v-361q0 -54 9 -87q1 -7 27 -14.5t35 -7.5q4 0 4 -18q0 -10 -2 -16q-13 1 -38.5 3t-47 3t-41.5 1q-27 0 -74.5 -3t-58.5 -4q-4 4 -4 16
q0 18 4 18q12 0 37.5 7t28.5 15q8 27 8 83v362q0 83 -9 97q-8 17 -95 17q-49 0 -72 -19.5t-38 -73.5q-1 -6 -10 -6q-19 0 -26 8l19 152q44 -10 69 -10q41 -1 108.5 -3.5t110.5 -2.5zM274 -99q0 23 25.5 38t65.5 15q9 -8 15.5 -25.5t6.5 -32.5q0 -68 -87 -120h-5
q-7 0 -15.5 4t-8.5 7q0 1 11 9.5t22 20.5t11 23q0 16 -20.5 30t-20.5 31z" />
    <glyph glyph-name="tcommaaccent" unicode="&#x163;" horiz-adv-x="350" 
d="M85 372h-61q-7 0 -7 26q0 7 1 9q40 18 77 53q13 13 28.5 29.5t26 29.5l10.5 13q10 0 19 -2.5t9 -5.5v-98q26 0 72.5 -0.5t49.5 -0.5q8 0 8 -9q0 -24 -10 -44h-120v-241q0 -40 17 -61t47 -21q10 0 21 2.5t18 5.5t13 6t7 3q4 1 9 -9t4 -13q-6 -14 -42.5 -32.5t-71.5 -18.5
q-52 0 -88.5 33.5t-36.5 103.5v242zM152 -99q0 23 25.5 38t65.5 15q9 -8 15.5 -25.5t6.5 -32.5q0 -68 -87 -120h-5q-7 0 -15.5 4t-8.5 7q0 1 11 9.5t22 20.5t11 23q0 16 -20.5 30t-20.5 31z" />
    <glyph glyph-name="Tcaron" unicode="&#x164;" horiz-adv-x="664" 
d="M443 869q10 0 10 -20q-1 -1 -10.5 -9t-25.5 -22.5t-33 -30.5q-11 -11 -41 -46q-6 -8 -12 -8q-5 0 -12 8q-16 22 -42 47q-22 21 -44.5 40.5t-23.5 20.5q0 20 10 20q9 0 48.5 -21.5t63.5 -38.5q93 60 112 60zM331 656q43 0 111 2.5t109 3.5q25 0 69 10l19 -153
q-7 -7 -27 -7q-8 0 -10 5q-14 55 -37 74.5t-72 19.5q-93 0 -97 -17q-9 -29 -9 -94v-361q0 -54 9 -87q1 -7 27 -14.5t35 -7.5q4 0 4 -18q0 -10 -2 -16q-13 1 -38.5 3t-47 3t-41.5 1q-27 0 -74.5 -3t-58.5 -4q-4 4 -4 16q0 18 4 18q12 0 37.5 7t28.5 15q8 27 8 83v362
q0 83 -9 97q-8 17 -95 17q-49 0 -72 -19.5t-38 -73.5q-1 -6 -10 -6q-19 0 -26 8l19 152q44 -10 69 -10q41 -1 108.5 -3.5t110.5 -2.5z" />
    <glyph glyph-name="tcaron" unicode="&#x165;" horiz-adv-x="350" 
d="M260 644q0 51 78 51q14 -20 14 -67q0 -38 -27 -81t-54 -59h-5q-4 0 -11 7t-7 11q0 1 10 10.5t20 26.5t10 35q0 9 -14 27.5t-14 38.5zM85 372h-61q-7 0 -7 26q0 7 1 9q40 18 77 53q13 13 28.5 29.5t26 29.5l10.5 13q10 0 19 -2.5t9 -5.5v-98q26 0 72.5 -0.5t49.5 -0.5
q8 0 8 -9q0 -24 -10 -44h-120v-241q0 -40 17 -61t47 -21q10 0 21 2.5t18 5.5t13 6t7 3q4 1 9 -9t4 -13q-6 -14 -42.5 -32.5t-71.5 -18.5q-52 0 -88.5 33.5t-36.5 103.5v242z" />
    <glyph glyph-name="Tbar" unicode="&#x166;" horiz-adv-x="656" 
d="M159 351h345q6 0 6 -12q0 -17 -6 -30h-346q-5 0 -5 14q0 19 6 28zM329 656q43 0 111 2.5t109 2.5q25 0 69 11l18 -153q-7 -7 -26 -7q-9 0 -10 5q-14 55 -37 74.5t-72 19.5q-93 0 -97 -17q-8 -28 -8 -94v-361q0 -56 8 -87q2 -7 27.5 -15t34.5 -8q4 0 4 -17q0 -10 -2 -16
q-6 0 -53.5 3.5t-73.5 3.5q-27 0 -73.5 -3t-59.5 -4q-4 4 -4 16q0 17 4 17q12 0 37.5 7.5t28.5 15.5q8 31 8 83v362q0 81 -9 97q-9 17 -95 17q-49 0 -72.5 -19t-37.5 -74q-2 -6 -10 -6q-18 0 -26 8l19 152q44 -11 69 -11q41 0 108.5 -2.5t110.5 -2.5z" />
    <glyph glyph-name="tbar" unicode="&#x167;" horiz-adv-x="350" 
d="M160 532q10 0 19 -2.5t9 -5.5v-98q26 0 72.5 -0.5t49.5 -0.5q8 0 8 -9q0 -24 -10 -44h-120v-241q0 -40 17 -61t47 -21q10 0 21 2.5t18 5.5t13 6t7 3q4 1 9 -9t4 -13q-6 -14 -42.5 -32.5t-71.5 -18.5q-52 0 -88.5 33.5t-36.5 103.5v242h-61q-7 0 -7 26q0 7 1 9
q40 18 77 53q13 13 28.5 29.5t26 29.5zM24 311h280q6 0 6 -12q0 -17 -6 -31h-281q-5 0 -5 14q0 20 6 29z" />
    <glyph glyph-name="Utilde" unicode="&#x168;" horiz-adv-x="733" 
d="M194 738q-8 0 -8 19q0 17 18 44q37 46 83 46q36 0 91 -30.5t91 -30.5q18 0 42.5 25.5t26.5 25.5q7 0 7 -20q0 -18 -17 -44q-34 -45 -82 -45q-36 0 -91 30.5t-91 30.5q-13 0 -28.5 -13t-26.5 -25.5t-15 -12.5zM160 656q18 0 128 6q2 -8 2 -16q0 -17 -4 -17q-9 0 -36 -7.5
t-28 -15.5q-8 -30 -8 -88v-230q0 -103 44.5 -164.5t123.5 -61.5q77 0 123.5 50.5t46.5 167.5v244q0 61 -10 80q-6 9 -35.5 17.5t-42.5 8.5q-4 0 -4.5 14t2.5 18q108 -7 126 -7q25 0 66.5 3.5t51.5 3.5q2 -7 2 -16q0 -16 -4 -16q-14 0 -43 -7.5t-38 -20.5q-11 -25 -11 -83
v-235q0 -78 -19 -134.5t-54 -89t-79.5 -47.5t-101.5 -15q-120 0 -189 72.5t-69 233.5v218q0 64 -8 84q-4 8 -28 15.5t-36 7.5q-4 0 -4 15t3 18q127 -6 133 -6z" />
    <glyph glyph-name="utilde" unicode="&#x169;" horiz-adv-x="555" 
d="M134 515q-7 0 -7 17q0 16 16 39q30 40 67 40q29 0 74 -26.5t75 -26.5q15 0 35 22.5t22 22.5q5 0 5 -18q0 -20 -14 -40q-28 -39 -66 -39q-30 0 -75 26.5t-75 26.5q-14 0 -34 -22t-23 -22zM464 334v-198q0 -48 8 -70q3 -5 11.5 -8t17.5 -4t16.5 -1t8.5 -1q4 -1 4 -9
q0 -4 -2 -13.5t-6 -9.5q-14 0 -35.5 -3.5t-41.5 -7t-38 -7.5t-29 -6l-11 -2q-7 0 -7 16v44q-1 5 -3 5q-23 -25 -61 -45t-79 -20q-34 0 -59.5 17t-40 44t-21 58t-6.5 63v112q0 47 -16 64q-9 10 -23 15t-24 6t-10 3q0 29 5 30q29 2 82 12t79 18q1 0 4 1t4 1q5 0 7.5 -7
t2.5 -11q-9 -68 -9 -88v-120q0 -78 22 -112t71 -34q32 0 54 19.5t22 37.5v165q0 47 -16 64q-8 10 -22.5 15t-24.5 6t-10 3q0 29 6 30q28 2 81 12t79 18q1 0 4.5 1l3.5 1q5 0 8 -7t2 -11q-8 -68 -8 -86z" />
    <glyph glyph-name="Umacron" unicode="&#x16a;" horiz-adv-x="733" 
d="M222 736q0 19 4 35t10 16h268q6 0 6 -8q-1 -19 -10 -47h-148h-124q-6 0 -6 4zM160 656q18 0 128 6q2 -8 2 -16q0 -17 -4 -17q-9 0 -36 -7.5t-28 -15.5q-8 -30 -8 -88v-230q0 -103 44.5 -164.5t123.5 -61.5q77 0 123.5 50.5t46.5 167.5v244q0 61 -10 80q-6 9 -35.5 17.5
t-42.5 8.5q-4 0 -4.5 14t2.5 18q108 -7 126 -7q25 0 66.5 3.5t51.5 3.5q2 -7 2 -16q0 -16 -4 -16q-14 0 -43 -7.5t-38 -20.5q-11 -25 -11 -83v-235q0 -78 -19 -134.5t-54 -89t-79.5 -47.5t-101.5 -15q-120 0 -189 72.5t-69 233.5v218q0 64 -8 84q-4 8 -28 15.5t-36 7.5
q-4 0 -4 15t3 18q127 -6 133 -6z" />
    <glyph glyph-name="umacron" unicode="&#x16b;" horiz-adv-x="555" 
d="M155 516q2 48 14 48h228q5 0 5 -9q-1 -23 -7 -41l-6 -8h-228l-4 2q-2 2 -2 8zM464 334v-198q0 -48 8 -70q3 -5 11.5 -8t17.5 -4t16.5 -1t8.5 -1q4 -1 4 -9q0 -4 -2 -13.5t-6 -9.5q-14 0 -35.5 -3.5t-41.5 -7t-38 -7.5t-29 -6l-11 -2q-7 0 -7 16v44q-1 5 -3 5
q-23 -25 -61 -45t-79 -20q-34 0 -59.5 17t-40 44t-21 58t-6.5 63v112q0 47 -16 64q-9 10 -23 15t-24 6t-10 3q0 29 5 30q29 2 82 12t79 18q1 0 4 1t4 1q5 0 7.5 -7t2.5 -11q-9 -68 -9 -88v-120q0 -78 22 -112t71 -34q32 0 54 19.5t22 37.5v165q0 47 -16 64q-8 10 -22.5 15
t-24.5 6t-10 3q0 29 6 30q28 2 81 12t79 18q1 0 4.5 1l3.5 1q5 0 8 -7t2 -11q-8 -68 -8 -86z" />
    <glyph glyph-name="Ubreve" unicode="&#x16c;" horiz-adv-x="733" 
d="M366 782q27 0 51 15t34 37q1 2 4 2q5 -1 13.5 -8.5t7.5 -11.5q0 -3 -2 -7q-15 -36 -44 -58.5t-64 -22.5t-64.5 22t-43.5 59q-2 4 -2 7q-1 4 7.5 11.5t13.5 8.5q3 0 4 -2q10 -22 34 -37t51 -15zM160 656q18 0 128 6q2 -8 2 -16q0 -17 -4 -17q-9 0 -36 -7.5t-28 -15.5
q-8 -30 -8 -88v-230q0 -103 44.5 -164.5t123.5 -61.5q77 0 123.5 50.5t46.5 167.5v244q0 61 -10 80q-6 9 -35.5 17.5t-42.5 8.5q-4 0 -4.5 14t2.5 18q108 -7 126 -7q25 0 66.5 3.5t51.5 3.5q2 -7 2 -16q0 -16 -4 -16q-14 0 -43 -7.5t-38 -20.5q-11 -25 -11 -83v-235
q0 -78 -19 -134.5t-54 -89t-79.5 -47.5t-101.5 -15q-120 0 -189 72.5t-69 233.5v218q0 64 -8 84q-4 8 -28 15.5t-36 7.5q-4 0 -4 15t3 18q127 -6 133 -6z" />
    <glyph glyph-name="ubreve" unicode="&#x16d;" horiz-adv-x="555" 
d="M281 559q28 0 51 18t30 47q0 4 4 4q5 0 14.5 -7t9.5 -11q0 -1 -0.5 -4t-0.5 -4q-9 -41 -39 -68.5t-69 -27.5q-40 0 -71.5 27.5t-40.5 69.5q0 1 -0.5 3.5t-0.5 3.5q0 4 9.5 11t14.5 7q4 0 4 -4q7 -29 32 -47t53 -18zM464 334v-198q0 -48 8 -70q3 -5 11.5 -8t17.5 -4
t16.5 -1t8.5 -1q4 -1 4 -9q0 -4 -2 -13.5t-6 -9.5q-14 0 -35.5 -3.5t-41.5 -7t-38 -7.5t-29 -6l-11 -2q-7 0 -7 16v44q-1 5 -3 5q-23 -25 -61 -45t-79 -20q-34 0 -59.5 17t-40 44t-21 58t-6.5 63v112q0 47 -16 64q-9 10 -23 15t-24 6t-10 3q0 29 5 30q29 2 82 12t79 18
q1 0 4 1t4 1q5 0 7.5 -7t2.5 -11q-9 -68 -9 -88v-120q0 -78 22 -112t71 -34q32 0 54 19.5t22 37.5v165q0 47 -16 64q-8 10 -22.5 15t-24.5 6t-10 3q0 29 6 30q28 2 81 12t79 18q1 0 4.5 1l3.5 1q5 0 8 -7t2 -11q-8 -68 -8 -86z" />
    <glyph glyph-name="Uring" unicode="&#x16e;" horiz-adv-x="733" 
d="M313 823q0 -23 16 -39t38 -16t37.5 16t15.5 39t-15.5 38.5t-37.5 15.5q-23 0 -38.5 -16t-15.5 -38zM273 823q0 39 27.5 66t66.5 27q38 0 65 -27t27 -66t-27 -67t-65 -28t-66 28t-28 67zM160 656q18 0 128 6q2 -8 2 -16q0 -17 -4 -17q-9 0 -36 -7.5t-28 -15.5
q-8 -30 -8 -88v-230q0 -103 44.5 -164.5t123.5 -61.5q77 0 123.5 50.5t46.5 167.5v244q0 61 -10 80q-6 9 -35.5 17.5t-42.5 8.5q-4 0 -4.5 14t2.5 18q108 -7 126 -7q25 0 66.5 3.5t51.5 3.5q2 -7 2 -16q0 -16 -4 -16q-14 0 -43 -7.5t-38 -20.5q-11 -25 -11 -83v-235
q0 -78 -19 -134.5t-54 -89t-79.5 -47.5t-101.5 -15q-120 0 -189 72.5t-69 233.5v218q0 64 -8 84q-4 8 -28 15.5t-36 7.5q-4 0 -4 15t3 18q127 -6 133 -6z" />
    <glyph glyph-name="uring" unicode="&#x16f;" horiz-adv-x="555" 
d="M219 605q0 -24 17 -41t41 -17t40.5 17t16.5 41t-16.5 40.5t-40.5 16.5t-41 -16.5t-17 -40.5zM178 605q0 40 29 69t70 29t69.5 -29t28.5 -69q0 -41 -29 -70t-69 -29q-41 0 -70 29.5t-29 69.5zM464 334v-198q0 -48 8 -70q3 -5 11.5 -8t17.5 -4t16.5 -1t8.5 -1q4 -1 4 -9
q0 -4 -2 -13.5t-6 -9.5q-14 0 -35.5 -3.5t-41.5 -7t-38 -7.5t-29 -6l-11 -2q-7 0 -7 16v44q-1 5 -3 5q-23 -25 -61 -45t-79 -20q-34 0 -59.5 17t-40 44t-21 58t-6.5 63v112q0 47 -16 64q-9 10 -23 15t-24 6t-10 3q0 29 5 30q29 2 82 12t79 18q1 0 4 1t4 1q5 0 7.5 -7
t2.5 -11q-9 -68 -9 -88v-120q0 -78 22 -112t71 -34q32 0 54 19.5t22 37.5v165q0 47 -16 64q-8 10 -22.5 15t-24.5 6t-10 3q0 29 6 30q28 2 81 12t79 18q1 0 4.5 1l3.5 1q5 0 8 -7t2 -11q-8 -68 -8 -86z" />
    <glyph glyph-name="Uhungarumlaut" unicode="&#x170;" horiz-adv-x="733" 
d="M527 890q16 0 26.5 -5.5t14 -11t3.5 -9.5q0 -25 -71.5 -80.5t-84.5 -55.5q-5 0 -9.5 5.5t-4.5 10.5q0 3 15 28t37.5 58t39.5 52q8 8 34 8zM395 890q16 0 26.5 -5.5t13.5 -11t3 -9.5q0 -25 -71.5 -80.5t-84.5 -55.5q-5 0 -10 5.5t-5 10.5t34.5 57t59.5 81q8 8 34 8z
M160 656q18 0 128 6q2 -8 2 -16q0 -17 -4 -17q-9 0 -36 -7.5t-28 -15.5q-8 -30 -8 -88v-230q0 -103 44.5 -164.5t123.5 -61.5q77 0 123.5 50.5t46.5 167.5v244q0 61 -10 80q-6 9 -35.5 17.5t-42.5 8.5q-4 0 -4.5 14t2.5 18q108 -7 126 -7q25 0 66.5 3.5t51.5 3.5q2 -7 2 -16
q0 -16 -4 -16q-14 0 -43 -7.5t-38 -20.5q-11 -25 -11 -83v-235q0 -78 -19 -134.5t-54 -89t-79.5 -47.5t-101.5 -15q-120 0 -189 72.5t-69 233.5v218q0 64 -8 84q-4 8 -28 15.5t-36 7.5q-4 0 -4 15t3 18q127 -6 133 -6z" />
    <glyph glyph-name="uhungarumlaut" unicode="&#x171;" horiz-adv-x="555" 
d="M431 668q16 0 26.5 -5.5t14 -11t3.5 -9.5q0 -25 -71.5 -80.5t-84.5 -55.5q-5 0 -9.5 5.5t-4.5 10.5q0 3 15 28t37.5 58t39.5 52q8 8 34 8zM299 668q16 0 26.5 -5.5t13.5 -11t3 -9.5q0 -25 -71.5 -80.5t-84.5 -55.5q-5 0 -10 5.5t-5 10.5t34.5 57t59.5 81q8 8 34 8z
M464 334v-198q0 -48 8 -70q3 -5 11.5 -8t17.5 -4t16.5 -1t8.5 -1q4 -1 4 -9q0 -4 -2 -13.5t-6 -9.5q-14 0 -35.5 -3.5t-41.5 -7t-38 -7.5t-29 -6l-11 -2q-7 0 -7 16v44q-1 5 -3 5q-23 -25 -61 -45t-79 -20q-34 0 -59.5 17t-40 44t-21 58t-6.5 63v112q0 47 -16 64
q-9 10 -23 15t-24 6t-10 3q0 29 5 30q29 2 82 12t79 18q1 0 4 1t4 1q5 0 7.5 -7t2.5 -11q-9 -68 -9 -88v-120q0 -78 22 -112t71 -34q32 0 54 19.5t22 37.5v165q0 47 -16 64q-8 10 -22.5 15t-24.5 6t-10 3q0 29 6 30q28 2 81 12t79 18q1 0 4.5 1l3.5 1q5 0 8 -7t2 -11
q-8 -68 -8 -86z" />
    <glyph glyph-name="Uogonek" unicode="&#x172;" horiz-adv-x="731" 
d="M147 656q8 0 128 6q3 -9 3 -16q0 -17 -4 -17q-9 0 -36 -8t-29 -15q-8 -31 -8 -88v-230q0 -102 44.5 -164t124.5 -62q170 0 170 218v244q0 60 -10 80q-7 9 -36.5 17.5t-41.5 8.5q-4 0 -4.5 14t2.5 18q107 -7 125 -7q26 0 67 3.5t51 3.5q3 -6 3 -16q0 -16 -4 -16
q-14 0 -43.5 -7.5t-38.5 -20.5q-10 -25 -10 -83v-235q0 -95 -26.5 -153.5t-81.5 -96.5q-46 -32 -80 -73.5t-34 -76.5q0 -15 10 -26.5t30 -11.5q14 0 28.5 5t23 10.5t18.5 12.5t11 8q5 0 5 -16q0 -11 -6 -19q-18 -24 -49.5 -46t-64.5 -22q-32 0 -54 23t-22 54q0 37 29.5 80
t66.5 66q-24 -4 -58 -4q-258 0 -258 306v218q0 60 -8 84q-4 8 -28 15.5t-36 7.5q-4 0 -4 15q0 16 2 18q5 0 55.5 -3t77.5 -3z" />
    <glyph glyph-name="uogonek" unicode="&#x173;" horiz-adv-x="534" 
d="M86 288q0 46 -16 64q-8 10 -22.5 14.5t-24.5 6t-10 3.5q0 30 5 30q104 12 161 30q1 0 4 1t4 1q10 0 10 -18q-9 -72 -9 -87v-123q0 -79 21 -112.5t67 -33.5q30 0 55.5 19.5t25.5 33.5v171q0 46 -16 64q-8 10 -22.5 14.5t-24.5 6t-10 3.5q0 30 6 30q103 11 160 30l4 1l4 1
q10 0 10 -18q-8 -64 -8 -86v-200q0 -50 8 -69q3 -6 11.5 -9t17 -3.5t17.5 -0.5l8 -1q4 -2 4 -9q0 -4 -2.5 -13.5t-5.5 -9.5q-18 -2 -44 -13q-35 -13 -71 -51.5t-36 -72.5q0 -15 10.5 -26t30.5 -11q14 0 28.5 5t22.5 10t18 12t11 8q1 0 2 -2t2.5 -5.5t1.5 -7.5q0 -12 -6 -20
q-18 -24 -49.5 -45.5t-64.5 -21.5q-32 0 -54 23t-22 54q0 32 29 75t66 70q-26 -8 -30 -8q-7 0 -7 17v41q-1 5 -3 5q-62 -62 -122 -62q-70 0 -107.5 51.5t-37.5 115.5v128z" />
    <glyph glyph-name="Wcircumflex" unicode="&#x174;" horiz-adv-x="1078" 
d="M701 728q-19 0 -112 60q-24 -17 -63.5 -38.5t-48.5 -21.5q-10 0 -10 19q1 1 23.5 20.5t44.5 40.5q26 25 42 47q8 9 12 9q5 0 12 -9q30 -35 41 -46q17 -16 33 -30.5t25.5 -22.5t10.5 -9q0 -19 -10 -19zM141 656q11 0 121 6q1 -6 1.5 -19t-3.5 -14q-7 0 -16 -1.5t-20.5 -9
t-11.5 -20.5q0 -19 18 -53l196 -387q3 -5 7.5 -2.5t6.5 6.5l73 142l-107 216q-30 61 -51 85q-9 10 -26.5 17t-31.5 7q-4 0 -4 17q0 13 3 16q126 -6 132 -6q8 0 118 6q2 -6 2.5 -19t-2.5 -14q-9 0 -18.5 -2t-19.5 -9.5t-10 -19.5q0 -16 18 -52l61 -125l59 121q18 36 18 55
q0 18 -24.5 25.5t-42.5 7.5q-4 0 -4 14t3 18q88 -6 110 -6q23 0 41.5 1t39.5 2.5t34 2.5q2 -6 2 -18.5t-3 -13.5q-12 0 -36.5 -9t-34.5 -21q-22 -25 -57 -94l-73 -148l97 -198q6 -10 13 5q20 47 94 203t81 172q18 38 18 56t-24 26t-40 8q-4 0 -4.5 14t3.5 18q88 -6 110.5 -6
t40.5 1t38 2.5t34 2.5q2 -7 2 -20q0 -12 -4 -12q-12 0 -34.5 -8.5t-33.5 -19.5q-27 -31 -58 -95l-229 -485q-8 -16 -18.5 -24t-18.5 -8q-6 0 -10 4l-122 246l-114 -218q-8 -16 -18.5 -24.5t-17.5 -7.5q-6 0 -10 4l-265 526q-28 56 -52 87q-8 10 -27.5 16t-31.5 6q-4 0 -4 16
q0 14 3 17q127 -6 134 -6z" />
    <glyph glyph-name="wcircumflex" unicode="&#x175;" horiz-adv-x="815" 
d="M523 497q-8 0 -41.5 24.5t-58.5 45.5q-23 -21 -57.5 -45.5t-42.5 -24.5q-9 0 -9 24q49 56 60 70q15 19 38 55q5 9 11 9q4 0 10 -9q33 -48 37 -53q15 -19 29.5 -36t23 -26t9.5 -10q0 -24 -9 -24zM654 366q0 12 -8 20.5t-20.5 12t-23 5t-20.5 1.5h-4q-4 0 -4.5 15t2.5 18
q13 0 53 -3t64 -3q21 0 53.5 3t47.5 3q2 -7 2 -17q0 -15 -4 -15q-12 0 -39.5 -12.5t-34.5 -30.5l-148 -353q-4 -8 -13.5 -14.5t-19.5 -6.5t-13 7l-122 276l-107 -261q-3 -6 -11.5 -14t-21.5 -8q-10 0 -14 7q-23 52 -54.5 126.5t-57.5 131.5t-60 124q-7 13 -26 20t-32 7
q-4 0 -4 16q0 14 4 17q10 0 50.5 -3t63.5 -3t68 3t52 3q2 -5 2 -18t-3 -14q-13 0 -34.5 -7t-21.5 -21q0 -2 100 -230q11 28 25.5 63.5t22 54t15 37.5t10.5 28.5t3 12.5q0 20 -13 40q-7 10 -22 16q-11 6 -36 6q-4 0 -4 14.5t4 17.5q11 0 49.5 -3t62.5 -3q22 0 65 3t51 3
q2 -4 1.5 -18.5t-3.5 -14.5q-51 0 -51 -35q0 -19 94 -222q16 42 39.5 98.5t34.5 84t11 35.5z" />
    <glyph glyph-name="Ycircumflex" unicode="&#x176;" horiz-adv-x="657" 
d="M478 728q-19 0 -112 60q-24 -17 -63.5 -38.5t-48.5 -21.5q-10 0 -10 19q1 1 23.5 20.5t44.5 40.5q26 25 42 47q8 9 12 9q5 0 12 -9q30 -35 41 -46q17 -16 33 -30.5t25.5 -22.5t10.5 -9q0 -19 -10 -19zM156 656q18 0 138 6q2 -4 1.5 -18t-3.5 -14q-16 0 -36 -7t-20 -21
q0 -9 9 -26l106 -194q5 -5 10 2q43 64 83 132t40 86q0 11 -18.5 19.5t-48.5 8.5q-4 0 -4 14t3 18q101 -6 120 -6q23 0 41.5 1t38 2.5t30.5 2.5q2 -8 2 -16q0 -16 -4 -16q-15 0 -41.5 -9t-38.5 -24q-29 -43 -104 -164.5t-75 -134.5v-156q0 -59 8 -90q2 -7 27.5 -15.5
t33.5 -8.5q4 0 4 -16q0 -10 -2 -16q-13 1 -38 3t-46 3t-41 1q-27 0 -73.5 -3t-57.5 -4q-4 4 -4 16q0 16 3 16q12 0 37 8t28 16q8 29 8 88v148q0 5 -6.5 19.5t-22.5 44t-28 51t-39 69.5t-40 71q-29 54 -52 69q-10 7 -29.5 12.5t-28.5 5.5q-3 0 -3.5 10t1.5 14q24 2 132 2z
" />
    <glyph glyph-name="ycircumflex" unicode="&#x177;" horiz-adv-x="524" 
d="M398 497q-8 0 -41.5 24.5t-58.5 45.5q-23 -21 -57.5 -45.5t-42.5 -24.5q-9 0 -9 24q49 56 60 70q15 19 38 55q5 9 11 9q4 0 10 -9q33 -48 37 -53q15 -19 29.5 -36t23 -26t9.5 -10q0 -24 -9 -24zM134 432q22 0 63 3t51 3q2 -7 2 -18q0 -14 -4 -14q-10 0 -31.5 -7.5
t-22.5 -16.5v-6q2 -16 93 -228q8 18 39 98.5t36 92.5q6 17 6 31q0 13 -16 24.5t-48 11.5q-4 0 -4 15q0 13 4 17q12 0 49 -3t61 -3q21 0 51.5 3t44.5 3q4 -6 4 -16q0 -16 -4 -16q-14 0 -40.5 -10t-34.5 -30l-183 -442q-62 -146 -149 -146q-26 0 -40 14t-14 32q0 26 19 39
q104 0 137 82q24 60 27 68l-146 340q-8 18 -12 23q-10 15 -29.5 22.5t-32.5 7.5q-4 0 -4 14q0 16 3 18q6 0 53.5 -3t71.5 -3z" />
    <glyph glyph-name="Ydieresis" unicode="&#x178;" horiz-adv-x="657" 
d="M398 790q0 26 18 44t44 18t44 -18t18 -44t-18 -44t-44 -18t-44 18t-18 44zM192 790q0 26 18 44t44 18t44 -18t18 -44t-18 -44t-44 -18t-44 18t-18 44zM156 656q18 0 138 6q2 -4 1.5 -18t-3.5 -14q-16 0 -36 -7t-20 -21q0 -9 9 -26l106 -194q5 -5 10 2q43 64 83 132t40 86
q0 11 -18.5 19.5t-48.5 8.5q-4 0 -4 14t3 18q101 -6 120 -6q23 0 41.5 1t38 2.5t30.5 2.5q2 -8 2 -16q0 -16 -4 -16q-15 0 -41.5 -9t-38.5 -24q-29 -43 -104 -164.5t-75 -134.5v-156q0 -59 8 -90q2 -7 27.5 -15.5t33.5 -8.5q4 0 4 -16q0 -10 -2 -16q-13 1 -38 3t-46 3t-41 1
q-27 0 -73.5 -3t-57.5 -4q-4 4 -4 16q0 16 3 16q12 0 37 8t28 16q8 29 8 88v148q0 5 -6.5 19.5t-22.5 44t-28 51t-39 69.5t-40 71q-29 54 -52 69q-10 7 -29.5 12.5t-28.5 5.5q-3 0 -3.5 10t1.5 14q24 2 132 2z" />
    <glyph glyph-name="Zacute" unicode="&#x179;" horiz-adv-x="622" 
d="M245 745q0 6 45.5 50.5t74.5 66.5q6 3 18 3q22 0 38 -9t16 -24q0 -24 -80.5 -64t-99.5 -40q-4 0 -8 5.5t-4 11.5zM224 656h109q81 0 221 10q3 -1 6.5 -13t3.5 -20q-1 -4 -93.5 -142.5t-184.5 -274.5l-92 -137q-6 -11 -6 -15q0 -10 14 -10h192q118 0 161 119q2 5 13 5
q20 0 28 -8q-43 -135 -49 -170h-507q-8 9 -8 26q0 12 4 17l376 561h-192q-36 -1 -60 -8t-39 -25.5t-23 -36t-18 -50.5q-2 -5 -12 -5q-26 0 -32 7q25 125 31 178q10 -3 73.5 -5.5t83.5 -2.5z" />
    <glyph glyph-name="zacute" unicode="&#x17a;" horiz-adv-x="431" 
d="M292 668q16 0 26 -5.5t13 -11t3 -9.5q0 -25 -71 -80.5t-84 -55.5q-5 0 -10 5.5t-5 10.5t34.5 57t59.5 81q8 8 34 8zM158 54q0 -3 5 -5t7 -2h97q74 0 100 78q3 10 17.5 10t19.5 -8l-18 -127h-340q-20 12 -20 23q0 3 1 4l231 349l-106 2q-10 0 -19 -2.5t-16 -6t-13.5 -9.5
t-10 -11t-8 -12.5t-6.5 -11.5t-5 -11t-3 -8q-3 -6 -25 -6q-11 0 -11 2q0 5 7 51.5t9 76.5q59 -6 95 -6h122q60 0 126 8q2 -5 2 -24l-230 -340q-8 -10 -8 -14z" />
    <glyph glyph-name="Zdotaccent" unicode="&#x17b;" horiz-adv-x="622" 
d="M251 790q0 26 18 44t44 18t44 -18t18 -44t-18 -44t-44 -18t-44 18t-18 44zM224 656h109q81 0 221 10q3 -1 6.5 -13t3.5 -20q-1 -4 -93.5 -142.5t-184.5 -274.5l-92 -137q-6 -11 -6 -15q0 -10 14 -10h192q118 0 161 119q2 5 13 5q20 0 28 -8q-43 -135 -49 -170h-507
q-8 9 -8 26q0 12 4 17l376 561h-192q-36 -1 -60 -8t-39 -25.5t-23 -36t-18 -50.5q-2 -5 -12 -5q-26 0 -32 7q25 125 31 178q10 -3 73.5 -5.5t83.5 -2.5z" />
    <glyph glyph-name="zdotaccent" unicode="&#x17c;" horiz-adv-x="431" 
d="M169 590q0 26 18 44t44 18t44 -18t18 -44t-18 -44t-44 -18t-44 18t-18 44zM158 54q0 -3 5 -5t7 -2h97q74 0 100 78q3 10 17.5 10t19.5 -8l-18 -127h-340q-20 12 -20 23q0 3 1 4l231 349l-106 2q-10 0 -19 -2.5t-16 -6t-13.5 -9.5t-10 -11t-8 -12.5t-6.5 -11.5t-5 -11
t-3 -8q-3 -6 -25 -6q-11 0 -11 2q0 5 7 51.5t9 76.5q59 -6 95 -6h122q60 0 126 8q2 -5 2 -24l-230 -340q-8 -10 -8 -14z" />
    <glyph glyph-name="Zcaron" unicode="&#x17d;" horiz-adv-x="622" 
d="M429 864q10 0 10 -20q-1 -1 -10.5 -9t-25.5 -22.5t-33 -30.5q-11 -11 -41 -46q-6 -8 -12 -8q-5 0 -12 8q-16 22 -42 47q-22 21 -44.5 40.5t-23.5 20.5q0 20 10 20q9 0 48.5 -21.5t63.5 -38.5q93 60 112 60zM224 656h109q81 0 221 10q3 -1 6.5 -13t3.5 -20
q-1 -4 -93.5 -142.5t-184.5 -274.5l-92 -137q-6 -11 -6 -15q0 -10 14 -10h192q118 0 161 119q2 5 13 5q20 0 28 -8q-43 -135 -49 -170h-507q-8 9 -8 26q0 12 4 17l376 561h-192q-36 -1 -60 -8t-39 -25.5t-23 -36t-18 -50.5q-2 -5 -12 -5q-26 0 -32 7q25 125 31 178
q10 -3 73.5 -5.5t83.5 -2.5z" />
    <glyph glyph-name="zcaron" unicode="&#x17e;" horiz-adv-x="431" 
d="M224 594q25 21 58.5 45.5t41.5 24.5q9 0 9 -23q-1 -1 -9.5 -10t-23 -26t-29.5 -36q-7 -9 -13.5 -18.5t-13 -20t-10.5 -15.5q-6 -9 -10 -9q-6 0 -11 9q-23 36 -38 55q-19 24 -60 71q0 23 9 23q8 0 42.5 -24.5t57.5 -45.5zM158 54q0 -3 5 -5t7 -2h97q74 0 100 78
q3 10 17.5 10t19.5 -8l-18 -127h-340q-20 12 -20 23q0 3 1 4l231 349l-106 2q-10 0 -19 -2.5t-16 -6t-13.5 -9.5t-10 -11t-8 -12.5t-6.5 -11.5t-5 -11t-3 -8q-3 -6 -25 -6q-11 0 -11 2q0 5 7 51.5t9 76.5q59 -6 95 -6h122q60 0 126 8q2 -5 2 -24l-230 -340q-8 -10 -8 -14z
" />
    <glyph glyph-name="longs" unicode="&#x17f;" horiz-adv-x="309" 
d="M204 142q0 -56 8 -90q2 -7 26.5 -14.5t33.5 -7.5q3 0 3.5 -14.5t-1.5 -19.5q-6 1 -52 4t-70 3t-68 -3t-52 -4q-3 3 -4 11t0 15.5t4 7.5q11 0 35 7.5t26 14.5q9 35 9 82v230q0 7 -6 7h-60q-2 0 -2 6q0 11 14 29t32 18h16q6 0 6 6v10q0 105 62.5 180t147.5 75
q42 0 69.5 -10.5t36.5 -25.5q4 -31 -5.5 -55.5t-36.5 -24.5q-17 0 -30.5 16.5t-28.5 33t-35 16.5q-27 0 -45 -26t-25.5 -63t-7.5 -81v-333z" />
    <glyph glyph-name="uni01CD" unicode="&#x1cd;" horiz-adv-x="736" 
d="M491 864q10 0 10 -20q-1 -1 -10.5 -9t-25.5 -22.5t-33 -30.5q-11 -11 -41 -46q-6 -8 -12 -8q-5 0 -12 8q-16 22 -42 47q-22 21 -44.5 40.5t-23.5 20.5q0 20 10 20q9 0 48.5 -21.5t63.5 -38.5q93 60 112 60zM391 660l210 -524q15 -40 30 -73q6 -15 32 -24t38 -9q4 0 4 -18
q0 -12 -2 -15q-120 6 -126 6q-7 0 -130 -6q-4 4 -4 18.5t4 14.5q12 0 33 6t25 14q3 6 3 13q0 20 -19 69l-35 93q-4 4 -7 4q-32 2 -86 2t-114 -3q-6 0 -6 -4l-38 -93q-19 -52 -19 -65t11 -20q9 -6 31.5 -11t30.5 -5q3 -1 3 -14t-2 -19q-5 0 -47 3t-68 3t-61.5 -2.5
t-50.5 -3.5q-4 4 -4 15q0 18 2 18q12 0 38.5 8.5t33.5 19.5q19 30 38 78l186 450q23 60 37 72q8 7 17 7q7 0 12 -5zM271 288q35 -3 72 -3q35 0 82 3l2 4l-76 200l-82 -200q0 -4 2 -4z" />
    <glyph glyph-name="uni01CE" unicode="&#x1ce;" horiz-adv-x="452" 
d="M227 594q25 21 58.5 45.5t41.5 24.5q9 0 9 -23q-1 -1 -9.5 -10t-23 -26t-29.5 -36q-7 -9 -13.5 -18.5t-13 -20t-10.5 -15.5q-6 -9 -10 -9q-6 0 -11 9q-23 36 -38 55q-19 24 -60 71q0 23 9 23q8 0 42.5 -24.5t57.5 -45.5zM192 58q27 0 46.5 14t19.5 32v102
q-7 -3 -29.5 -10t-34.5 -12t-28 -14t-23.5 -22t-7.5 -28q0 -32 16 -47t41 -15zM237 442q62 0 93 -32.5t31 -111.5v-197q0 -20 9 -30.5t24 -10.5t34 13q6 -2 6 -11q0 -20 -6 -30q-15 -12 -40 -25t-48 -13t-45 17t-29 37q-1 -1 -7.5 -6.5t-18 -13.5t-26 -16t-34 -13.5
t-39.5 -5.5q-50 0 -81.5 27.5t-31.5 75.5q0 24 11.5 45t27.5 34.5t43 26.5t46.5 19.5t50 15.5t42.5 13q9 4 9 16v55q0 35 -16 55t-43 20q-30 0 -47 -18.5t-17 -52.5q0 -20 -15 -29.5t-34 -9.5q-37 0 -52 24q0 48 65.5 90t137.5 42z" />
    <glyph glyph-name="uni01CF" unicode="&#x1cf;" horiz-adv-x="323" 
d="M272 864q10 0 10 -20q-1 -1 -10.5 -9t-25.5 -22.5t-33 -30.5q-11 -11 -41 -46q-6 -8 -12 -8q-5 0 -12 8q-16 22 -42 47q-22 21 -44.5 40.5t-23.5 20.5q0 20 10 20q9 0 48.5 -21.5t63.5 -38.5q93 60 112 60zM104 522q0 60 -8 84q-4 8 -28 15.5t-36 7.5q-4 0 -4 15
q0 16 2 18q5 0 55.5 -3t77.5 -3q8 0 128 6q3 -9 3 -16q0 -17 -4 -17q-9 0 -36 -8t-29 -15q-8 -31 -8 -88v-376q0 -55 9 -90q2 -7 27.5 -14.5t34.5 -7.5q4 0 4 -19q0 -8 -2 -14q-120 6 -127 6q-20 0 -42 -1t-48.5 -2.5t-42.5 -2.5q-4 4 -4 14q0 19 4 19q12 0 37.5 7t28.5 15
q8 31 8 84v386z" />
    <glyph glyph-name="uni01D0" unicode="&#x1d0;" horiz-adv-x="300" 
d="M151 594q25 21 58.5 45.5t41.5 24.5q9 0 9 -23q-1 -1 -9.5 -10t-23 -26t-29.5 -36q-7 -9 -13.5 -18.5t-13 -20t-10.5 -15.5q-6 -9 -10 -9q-6 0 -11 9q-23 36 -38 55q-19 24 -60 71q0 23 9 23q8 0 42.5 -24.5t57.5 -45.5zM203 144q0 -62 7 -90q2 -7 24.5 -15.5t30.5 -8.5
q3 0 3.5 -14t-1.5 -19q-14 1 -37.5 2.5t-42.5 2.5t-36 1q-19 0 -38 -1t-42 -2.5t-38 -2.5q-4 4 -4 18.5t4 14.5q11 0 33.5 8.5t24.5 15.5q8 35 8 74v161q0 46 -16 64q-8 10 -22.5 14.5t-24.5 5.5t-10 3q0 30 5 30q64 7 162 31q9 3 10 3q7 0 7 -20q0 -6 -3.5 -36.5
t-3.5 -49.5v-190z" />
    <glyph glyph-name="uni01D1" unicode="&#x1d1;" horiz-adv-x="693" 
d="M457 864q10 0 10 -20q-1 -1 -10.5 -9t-25.5 -22.5t-33 -30.5q-11 -11 -41 -46q-6 -8 -12 -8q-5 0 -12 8q-16 22 -42 47q-22 21 -44.5 40.5t-23.5 20.5q0 20 10 20q9 0 48.5 -21.5t63.5 -38.5q93 60 112 60zM330 618q-86 0 -131.5 -78.5t-45.5 -189.5q0 -75 20.5 -143
t69.5 -117.5t118 -49.5q85 0 131.5 79.5t46.5 189.5q0 77 -20 144.5t-69 116t-120 48.5zM25 328q0 140 94 239.5t226 99.5t226.5 -99.5t94.5 -239.5t-94.5 -239t-226.5 -99t-226 99t-94 239z" />
    <glyph glyph-name="uni01D2" unicode="&#x1d2;" horiz-adv-x="507" 
d="M253 594q25 21 58.5 45.5t41.5 24.5q9 0 9 -23q-1 -1 -9.5 -10t-23 -26t-29.5 -36q-7 -9 -13.5 -18.5t-13 -20t-10.5 -15.5q-6 -9 -10 -9q-6 0 -11 9q-23 36 -38 55q-19 24 -60 71q0 23 9 23q8 0 42.5 -24.5t57.5 -45.5zM240 395q-47 0 -73 -45.5t-26 -108.5
q0 -81 32.5 -141t90.5 -60q47 0 73.5 46t26.5 108q0 52 -13 96.5t-42 74.5t-69 30zM253 442q94 0 160.5 -65.5t66.5 -158.5t-65.5 -159t-160.5 -66t-161 66t-66 159q0 94 65.5 159t160.5 65z" />
    <glyph glyph-name="uni01D3" unicode="&#x1d3;" horiz-adv-x="733" 
d="M478 864q10 0 10 -20q-1 -1 -10.5 -9t-25.5 -22.5t-33 -30.5q-11 -11 -41 -46q-6 -8 -12 -8q-5 0 -12 8q-16 22 -42 47q-22 21 -44.5 40.5t-23.5 20.5q0 20 10 20q9 0 48.5 -21.5t63.5 -38.5q93 60 112 60zM160 656q18 0 128 6q2 -8 2 -16q0 -17 -4 -17q-9 0 -36 -7.5
t-28 -15.5q-8 -30 -8 -88v-230q0 -103 44.5 -164.5t123.5 -61.5q77 0 123.5 50.5t46.5 167.5v244q0 61 -10 80q-6 9 -35.5 17.5t-42.5 8.5q-4 0 -4.5 14t2.5 18q108 -7 126 -7q25 0 66.5 3.5t51.5 3.5q2 -7 2 -16q0 -16 -4 -16q-14 0 -43 -7.5t-38 -20.5q-11 -25 -11 -83
v-235q0 -78 -19 -134.5t-54 -89t-79.5 -47.5t-101.5 -15q-120 0 -189 72.5t-69 233.5v218q0 64 -8 84q-4 8 -28 15.5t-36 7.5q-4 0 -4 15t3 18q127 -6 133 -6z" />
    <glyph glyph-name="uni01D4" unicode="&#x1d4;" horiz-adv-x="555" 
d="M336 594q25 21 58.5 45.5t41.5 24.5q9 0 9 -23q-1 -1 -9.5 -10t-23 -26t-29.5 -36q-7 -9 -13.5 -18.5t-13 -20t-10.5 -15.5q-6 -9 -10 -9q-6 0 -11 9q-23 36 -38 55q-19 24 -60 71q0 23 9 23q8 0 42.5 -24.5t57.5 -45.5zM464 334v-198q0 -48 8 -70q3 -5 11.5 -8t17.5 -4
t16.5 -1t8.5 -1q4 -1 4 -9q0 -4 -2 -13.5t-6 -9.5q-14 0 -35.5 -3.5t-41.5 -7t-38 -7.5t-29 -6l-11 -2q-7 0 -7 16v44q-1 5 -3 5q-23 -25 -61 -45t-79 -20q-34 0 -59.5 17t-40 44t-21 58t-6.5 63v112q0 47 -16 64q-9 10 -23 15t-24 6t-10 3q0 29 5 30q29 2 82 12t79 18
q1 0 4 1t4 1q5 0 7.5 -7t2.5 -11q-9 -68 -9 -88v-120q0 -78 22 -112t71 -34q32 0 54 19.5t22 37.5v165q0 47 -16 64q-8 10 -22.5 15t-24.5 6t-10 3q0 29 6 30q28 2 81 12t79 18q1 0 4.5 1l3.5 1q5 0 8 -7t2 -11q-8 -68 -8 -86z" />
    <glyph glyph-name="uni01D5" unicode="&#x1d5;" horiz-adv-x="733" 
d="M223 917q0 19 4 35t10 16h268q6 0 6 -8q-1 -19 -10 -47h-148h-124q-6 0 -6 4zM408 790q0 26 18 44t44 18t44 -18t18 -44t-18 -44t-44 -18t-44 18t-18 44zM202 790q0 26 18 44t44 18t44 -18t18 -44t-18 -44t-44 -18t-44 18t-18 44zM160 656q18 0 128 6q2 -8 2 -16
q0 -17 -4 -17q-9 0 -36 -7.5t-28 -15.5q-8 -30 -8 -88v-230q0 -103 44.5 -164.5t123.5 -61.5q77 0 123.5 50.5t46.5 167.5v244q0 61 -10 80q-6 9 -35.5 17.5t-42.5 8.5q-4 0 -4.5 14t2.5 18q108 -7 126 -7q25 0 66.5 3.5t51.5 3.5q2 -7 2 -16q0 -16 -4 -16q-14 0 -43 -7.5
t-38 -20.5q-11 -25 -11 -83v-235q0 -78 -19 -134.5t-54 -89t-79.5 -47.5t-101.5 -15q-120 0 -189 72.5t-69 233.5v218q0 64 -8 84q-4 8 -28 15.5t-36 7.5q-4 0 -4 15t3 18q127 -6 133 -6z" />
    <glyph glyph-name="uni01D6" unicode="&#x1d6;" horiz-adv-x="555" 
d="M156 696q2 48 14 48h228q5 0 5 -9q-1 -23 -7 -41l-6 -8h-228l-4 2q-2 2 -2 8zM323 566q0 24 17 41.5t41 17.5t41.5 -17.5t17.5 -41.5t-17.5 -41t-41.5 -17t-41 17t-17 41zM121 566q0 24 17 41.5t41 17.5t41.5 -17.5t17.5 -41.5t-17.5 -41t-41.5 -17t-41 17t-17 41z
M464 334v-198q0 -48 8 -70q3 -5 11.5 -8t17.5 -4t16.5 -1t8.5 -1q4 -1 4 -9q0 -4 -2 -13.5t-6 -9.5q-14 0 -35.5 -3.5t-41.5 -7t-38 -7.5t-29 -6l-11 -2q-7 0 -7 16v44q-1 5 -3 5q-23 -25 -61 -45t-79 -20q-34 0 -59.5 17t-40 44t-21 58t-6.5 63v112q0 47 -16 64
q-9 10 -23 15t-24 6t-10 3q0 29 5 30q29 2 82 12t79 18q1 0 4 1t4 1q5 0 7.5 -7t2.5 -11q-9 -68 -9 -88v-120q0 -78 22 -112t71 -34q32 0 54 19.5t22 37.5v165q0 47 -16 64q-8 10 -22.5 15t-24.5 6t-10 3q0 29 6 30q28 2 81 12t79 18q1 0 4.5 1l3.5 1q5 0 8 -7t2 -11
q-8 -68 -8 -86z" />
    <glyph glyph-name="uni01D7" unicode="&#x1d7;" horiz-adv-x="733" 
d="M355 930q0 6 45.5 50.5t74.5 66.5q6 3 18 3q22 0 38 -9t16 -24q0 -24 -80.5 -64t-99.5 -40q-4 0 -8 5.5t-4 11.5zM408 790q0 26 18 44t44 18t44 -18t18 -44t-18 -44t-44 -18t-44 18t-18 44zM202 790q0 26 18 44t44 18t44 -18t18 -44t-18 -44t-44 -18t-44 18t-18 44z
M160 656q18 0 128 6q2 -8 2 -16q0 -17 -4 -17q-9 0 -36 -7.5t-28 -15.5q-8 -30 -8 -88v-230q0 -103 44.5 -164.5t123.5 -61.5q77 0 123.5 50.5t46.5 167.5v244q0 61 -10 80q-6 9 -35.5 17.5t-42.5 8.5q-4 0 -4.5 14t2.5 18q108 -7 126 -7q25 0 66.5 3.5t51.5 3.5q2 -7 2 -16
q0 -16 -4 -16q-14 0 -43 -7.5t-38 -20.5q-11 -25 -11 -83v-235q0 -78 -19 -134.5t-54 -89t-79.5 -47.5t-101.5 -15q-120 0 -189 72.5t-69 233.5v218q0 64 -8 84q-4 8 -28 15.5t-36 7.5q-4 0 -4 15t3 18q127 -6 133 -6z" />
    <glyph glyph-name="uni01D8" unicode="&#x1d8;" horiz-adv-x="555" 
d="M393 848q16 0 26 -5.5t13 -11t3 -9.5q0 -25 -71 -80.5t-84 -55.5q-5 0 -10 5.5t-5 10.5t34.5 57t59.5 81q8 8 34 8zM323 566q0 24 17 41.5t41 17.5t41.5 -17.5t17.5 -41.5t-17.5 -41t-41.5 -17t-41 17t-17 41zM121 566q0 24 17 41.5t41 17.5t41.5 -17.5t17.5 -41.5
t-17.5 -41t-41.5 -17t-41 17t-17 41zM464 334v-198q0 -48 8 -70q3 -5 11.5 -8t17.5 -4t16.5 -1t8.5 -1q4 -1 4 -9q0 -4 -2 -13.5t-6 -9.5q-14 0 -35.5 -3.5t-41.5 -7t-38 -7.5t-29 -6l-11 -2q-7 0 -7 16v44q-1 5 -3 5q-23 -25 -61 -45t-79 -20q-34 0 -59.5 17t-40 44t-21 58
t-6.5 63v112q0 47 -16 64q-9 10 -23 15t-24 6t-10 3q0 29 5 30q29 2 82 12t79 18q1 0 4 1t4 1q5 0 7.5 -7t2.5 -11q-9 -68 -9 -88v-120q0 -78 22 -112t71 -34q32 0 54 19.5t22 37.5v165q0 47 -16 64q-8 10 -22.5 15t-24.5 6t-10 3q0 29 6 30q28 2 81 12t79 18q1 0 4.5 1
l3.5 1q5 0 8 -7t2 -11q-8 -68 -8 -86z" />
    <glyph glyph-name="uni01D9" unicode="&#x1d9;" horiz-adv-x="733" 
d="M479 1049q10 0 10 -20q-1 -1 -10.5 -9t-25.5 -22.5t-33 -30.5q-11 -11 -41 -46q-6 -8 -12 -8q-5 0 -12 8q-16 22 -42 47q-22 21 -44.5 40.5t-23.5 20.5q0 20 10 20q9 0 48.5 -21.5t63.5 -38.5q93 60 112 60zM408 790q0 26 18 44t44 18t44 -18t18 -44t-18 -44t-44 -18
t-44 18t-18 44zM202 790q0 26 18 44t44 18t44 -18t18 -44t-18 -44t-44 -18t-44 18t-18 44zM160 656q18 0 128 6q2 -8 2 -16q0 -17 -4 -17q-9 0 -36 -7.5t-28 -15.5q-8 -30 -8 -88v-230q0 -103 44.5 -164.5t123.5 -61.5q77 0 123.5 50.5t46.5 167.5v244q0 61 -10 80
q-6 9 -35.5 17.5t-42.5 8.5q-4 0 -4.5 14t2.5 18q108 -7 126 -7q25 0 66.5 3.5t51.5 3.5q2 -7 2 -16q0 -16 -4 -16q-14 0 -43 -7.5t-38 -20.5q-11 -25 -11 -83v-235q0 -78 -19 -134.5t-54 -89t-79.5 -47.5t-101.5 -15q-120 0 -189 72.5t-69 233.5v218q0 64 -8 84
q-4 8 -28 15.5t-36 7.5q-4 0 -4 15t3 18q127 -6 133 -6z" />
    <glyph glyph-name="uni01DA" unicode="&#x1da;" horiz-adv-x="555" 
d="M280 774q25 21 58.5 45.5t41.5 24.5q9 0 9 -23q-1 -1 -9.5 -10t-23 -26t-29.5 -36q-7 -9 -13.5 -18.5t-13 -20t-10.5 -15.5q-6 -9 -10 -9q-6 0 -11 9q-23 36 -38 55q-19 24 -60 71q0 23 9 23q8 0 42.5 -24.5t57.5 -45.5zM323 566q0 24 17 41.5t41 17.5t41.5 -17.5
t17.5 -41.5t-17.5 -41t-41.5 -17t-41 17t-17 41zM121 566q0 24 17 41.5t41 17.5t41.5 -17.5t17.5 -41.5t-17.5 -41t-41.5 -17t-41 17t-17 41zM464 334v-198q0 -48 8 -70q3 -5 11.5 -8t17.5 -4t16.5 -1t8.5 -1q4 -1 4 -9q0 -4 -2 -13.5t-6 -9.5q-14 0 -35.5 -3.5t-41.5 -7
t-38 -7.5t-29 -6l-11 -2q-7 0 -7 16v44q-1 5 -3 5q-23 -25 -61 -45t-79 -20q-34 0 -59.5 17t-40 44t-21 58t-6.5 63v112q0 47 -16 64q-9 10 -23 15t-24 6t-10 3q0 29 5 30q29 2 82 12t79 18q1 0 4 1t4 1q5 0 7.5 -7t2.5 -11q-9 -68 -9 -88v-120q0 -78 22 -112t71 -34
q32 0 54 19.5t22 37.5v165q0 47 -16 64q-8 10 -22.5 15t-24.5 6t-10 3q0 29 6 30q28 2 81 12t79 18q1 0 4.5 1l3.5 1q5 0 8 -7t2 -11q-8 -68 -8 -86z" />
    <glyph glyph-name="uni01DB" unicode="&#x1db;" horiz-adv-x="733" 
d="M379 930q0 -6 -4 -11.5t-8 -5.5q-19 0 -99.5 40t-80.5 64q0 15 16 24t38 9q12 0 18 -3q29 -22 74.5 -66.5t45.5 -50.5zM408 790q0 26 18 44t44 18t44 -18t18 -44t-18 -44t-44 -18t-44 18t-18 44zM202 790q0 26 18 44t44 18t44 -18t18 -44t-18 -44t-44 -18t-44 18t-18 44z
M160 656q18 0 128 6q2 -8 2 -16q0 -17 -4 -17q-9 0 -36 -7.5t-28 -15.5q-8 -30 -8 -88v-230q0 -103 44.5 -164.5t123.5 -61.5q77 0 123.5 50.5t46.5 167.5v244q0 61 -10 80q-6 9 -35.5 17.5t-42.5 8.5q-4 0 -4.5 14t2.5 18q108 -7 126 -7q25 0 66.5 3.5t51.5 3.5q2 -7 2 -16
q0 -16 -4 -16q-14 0 -43 -7.5t-38 -20.5q-11 -25 -11 -83v-235q0 -78 -19 -134.5t-54 -89t-79.5 -47.5t-101.5 -15q-120 0 -189 72.5t-69 233.5v218q0 64 -8 84q-4 8 -28 15.5t-36 7.5q-4 0 -4 15t3 18q127 -6 133 -6z" />
    <glyph glyph-name="uni01DC" unicode="&#x1dc;" horiz-adv-x="555" 
d="M124 822q0 4 3.5 9.5t14 11t26.5 5.5q26 0 34 -8q17 -20 39.5 -53t37.5 -57.5t15 -27.5q0 -5 -4.5 -10.5t-9.5 -5.5q-13 0 -84.5 55.5t-71.5 80.5zM323 566q0 24 17 41.5t41 17.5t41.5 -17.5t17.5 -41.5t-17.5 -41t-41.5 -17t-41 17t-17 41zM121 566q0 24 17 41.5
t41 17.5t41.5 -17.5t17.5 -41.5t-17.5 -41t-41.5 -17t-41 17t-17 41zM464 334v-198q0 -48 8 -70q3 -5 11.5 -8t17.5 -4t16.5 -1t8.5 -1q4 -1 4 -9q0 -4 -2 -13.5t-6 -9.5q-14 0 -35.5 -3.5t-41.5 -7t-38 -7.5t-29 -6l-11 -2q-7 0 -7 16v44q-1 5 -3 5q-23 -25 -61 -45
t-79 -20q-34 0 -59.5 17t-40 44t-21 58t-6.5 63v112q0 47 -16 64q-9 10 -23 15t-24 6t-10 3q0 29 5 30q29 2 82 12t79 18q1 0 4 1t4 1q5 0 7.5 -7t2.5 -11q-9 -68 -9 -88v-120q0 -78 22 -112t71 -34q32 0 54 19.5t22 37.5v165q0 47 -16 64q-8 10 -22.5 15t-24.5 6t-10 3
q0 29 6 30q28 2 81 12t79 18q1 0 4.5 1l3.5 1q5 0 8 -7t2 -11q-8 -68 -8 -86z" />
    <glyph glyph-name="uni01EA" unicode="&#x1ea;" horiz-adv-x="724" 
d="M42 328q0 140 94 239.5t226 99.5t226.5 -99.5t94.5 -239.5q0 -91 -41 -164.5t-109 -121.5q-50 -35 -89 -79.5t-39 -78.5q0 -15 10.5 -26t30.5 -11q14 0 28.5 5t22.5 10t18 12t11 8q1 0 2 -2t2.5 -6t1.5 -8q0 -11 -6 -19q-18 -24 -49.5 -46t-64.5 -22q-32 0 -54 23t-22 54
q0 33 32.5 75t69.5 69q-27 -10 -76 -10q-132 0 -226 99t-94 239zM347 618q-59 0 -100 -40t-59 -99t-18 -129q0 -75 20.5 -143t69.5 -117.5t118 -49.5q85 0 131.5 79.5t46.5 189.5q0 77 -20 144.5t-69 116t-120 48.5z" />
    <glyph glyph-name="uni01EB" unicode="&#x1eb;" horiz-adv-x="511" 
d="M256 443q94 0 160 -66t66 -159t-67 -158q-78 -82 -97 -111q-25 -37 -25 -65q0 -15 10.5 -26.5t30.5 -11.5q14 0 28 5t23 10.5t18.5 12.5t10.5 8q1 0 2 -2t2.5 -6t1.5 -8q0 -11 -6 -19q-18 -24 -49.5 -46t-64.5 -22q-32 0 -54 23t-22 54q0 30 27.5 75.5t58.5 68.5
q-30 -7 -54 -7q-94 0 -160 66t-66 159q0 94 65 159.5t161 65.5zM243 396q-48 0 -73.5 -45.5t-25.5 -108.5q0 -82 32 -142t90 -60q48 0 74.5 46t26.5 108q0 82 -32.5 142t-91.5 60z" />
    <glyph glyph-name="Scommaaccent" unicode="&#x218;" horiz-adv-x="474" 
d="M179 -99q0 23 25.5 38t65.5 15q9 -8 15.5 -25.5t6.5 -32.5q0 -68 -87 -120h-5q-7 0 -15.5 4t-8.5 7q0 1 11 9.5t22 20.5t11 23q0 16 -20.5 30t-20.5 31zM38 490q0 75 63 126.5t142 51.5q28 0 49 -3t58.5 -12.5t51.5 -12.5q12 -68 12 -154q-2 -9 -12 -9q-27 0 -29 9
q-6 46 -43 90t-90 44q-46 0 -70.5 -26t-24.5 -70q0 -15 3.5 -28.5t14 -26.5t17 -21.5t25 -21.5t25 -18t30 -19.5t28.5 -16.5q6 -5 33.5 -21.5t38.5 -24t32 -25.5t30.5 -34t17.5 -40.5t8 -52.5q0 -80 -64.5 -132t-149.5 -52q-60 0 -184 28q-9 36 -16.5 90.5t-7.5 71.5
q1 8 16 8q26 0 29 -8q4 -18 14 -39.5t27.5 -46t47 -40t66.5 -15.5q47 0 78 28t31 84q0 17 -6.5 33t-15 27t-25 24t-27.5 20t-32.5 19.5t-30.5 17.5q-3 3 -11 8q-29 18 -44 28t-38.5 29.5t-35.5 36.5t-21.5 42t-9.5 54z" />
    <glyph glyph-name="scommaaccent" unicode="&#x219;" horiz-adv-x="366" 
d="M113 -99q0 23 25.5 38t65.5 15q9 -8 15.5 -25.5t6.5 -32.5q0 -68 -87 -120h-5q-7 0 -15.5 4t-8.5 7q0 1 11 9.5t22 20.5t11 23q0 16 -20.5 30t-20.5 31zM190 443q56 0 116 -17q10 -45 11 -112q0 -8 -13 -8q-22 0 -24 8q-7 35 -29.5 59.5t-60.5 24.5q-29 0 -45.5 -13
t-16.5 -37q0 -14 5.5 -25.5t18 -21.5t22 -16t28.5 -16q7 -4 10 -5q2 -1 15 -8t16.5 -9t16 -9.5t17.5 -11.5t15.5 -12t15 -14t12 -15.5t10.5 -18t5.5 -19t2.5 -21.5q0 -63 -48.5 -99.5t-117.5 -36.5q-62 0 -129 28q-5 17 -10 55.5t-5 57.5q6 5 14 5q23 0 24 -8
q8 -42 39.5 -67.5t68.5 -25.5q28 0 46 14t18 41q0 10 -2.5 18.5t-9.5 17t-11.5 14t-18 13.5t-20 11.5t-25 13t-25.5 13.5q-46 24 -71 53.5t-25 71.5q0 61 48 94t112 33z" />
    <glyph glyph-name="uni021A" unicode="&#x21a;" horiz-adv-x="664" 
d="M274 -99q0 23 25.5 38t65.5 15q9 -8 15.5 -25.5t6.5 -32.5q0 -68 -87 -120h-5q-7 0 -15.5 4t-8.5 7q0 1 11 9.5t22 20.5t11 23q0 16 -20.5 30t-20.5 31zM331 656q43 0 111 2.5t109 3.5q25 0 69 10l19 -153q-7 -7 -27 -7q-8 0 -10 5q-14 55 -37 74.5t-72 19.5
q-93 0 -97 -17q-9 -29 -9 -94v-361q0 -54 9 -87q1 -7 27 -14.5t35 -7.5q4 0 4 -18q0 -10 -2 -16q-13 1 -38.5 3t-47 3t-41.5 1q-27 0 -74.5 -3t-58.5 -4q-4 4 -4 16q0 18 4 18q12 0 37.5 7t28.5 15q8 27 8 83v362q0 83 -9 97q-8 17 -95 17q-49 0 -72 -19.5t-38 -73.5
q-1 -6 -10 -6q-19 0 -26 8l19 152q44 -10 69 -10q41 -1 108.5 -3.5t110.5 -2.5z" />
    <glyph glyph-name="uni021B" unicode="&#x21b;" horiz-adv-x="350" 
d="M152 -99q0 23 25.5 38t65.5 15q9 -8 15.5 -25.5t6.5 -32.5q0 -68 -87 -120h-5q-7 0 -15.5 4t-8.5 7q0 1 11 9.5t22 20.5t11 23q0 16 -20.5 30t-20.5 31zM85 372h-61q-7 0 -7 26q0 7 1 9q40 18 77 53q13 13 28.5 29.5t26 29.5l10.5 13q10 0 19 -2.5t9 -5.5v-98
q26 0 72.5 -0.5t49.5 -0.5q8 0 8 -9q0 -24 -10 -44h-120v-241q0 -40 17 -61t47 -21q10 0 21 2.5t18 5.5t13 6t7 3q4 1 9 -9t4 -13q-6 -14 -42.5 -32.5t-71.5 -18.5q-52 0 -88.5 33.5t-36.5 103.5v242z" />
    <glyph glyph-name="uni0237" unicode="&#x237;" horiz-adv-x="274" 
d="M200 334v-234q0 -136 -44 -211q-45 -78 -146 -113q-20 9 -20 22q0 5 2 7l6 4q7 4 13.5 8.5t16.5 14.5t19 22.5t18 33t16 44.5t11 58t4 73v226q0 46 -16 64q-8 10 -22.5 14.5t-24.5 5.5t-10 3q0 30 5 30q64 7 162 31q9 3 10 3q7 0 7 -20q0 -6 -3.5 -36.5t-3.5 -49.5z" />
    <glyph glyph-name="uni02BB" unicode="&#x2bb;" horiz-adv-x="192" 
d="M135 590q0 -23 -25.5 -38t-65.5 -15q-9 8 -15.5 25.5t-6.5 32.5q0 68 87 120h5q7 0 15.5 -4t8.5 -7q0 -1 -11 -9.5t-22 -20.5t-11 -23q0 -16 20.5 -30t20.5 -31z" />
    <glyph glyph-name="gravecomb" unicode="&#x300;" horiz-adv-x="247" 
d="M44 660q0 4 3.5 9.5t14 11t26.5 5.5q26 0 34 -8q17 -20 39.5 -53t37.5 -57.5t15 -27.5q0 -5 -4.5 -10.5t-9.5 -5.5q-13 0 -84.5 55.5t-71.5 80.5z" />
    <glyph glyph-name="acutecomb" unicode="&#x301;" horiz-adv-x="234" 
d="M164 686q16 0 26 -5.5t13 -11t3 -9.5q0 -25 -71 -80.5t-84 -55.5q-5 0 -10 5.5t-5 10.5t34.5 57t59.5 81q8 8 34 8z" />
    <glyph glyph-name="uni0302" unicode="&#x302;" horiz-adv-x="354" 
d="M264 492q-8 0 -41.5 24.5t-58.5 45.5q-23 -21 -57.5 -45.5t-42.5 -24.5q-9 0 -9 24q49 56 60 70q15 19 38 55q5 9 11 9q4 0 10 -9q33 -48 37 -53q15 -19 29.5 -36t23 -26t9.5 -10q0 -24 -9 -24z" />
    <glyph glyph-name="tildecomb" unicode="&#x303;" horiz-adv-x="415" 
d="M53 520q-7 0 -7 17q0 16 16 39q30 40 67 40q29 0 74 -26.5t75 -26.5q15 0 35 22.5t22 22.5q5 0 5 -18q0 -20 -14 -40q-28 -39 -66 -39q-30 0 -75 26.5t-75 26.5q-14 0 -34 -22t-23 -22z" />
    <glyph glyph-name="uni0304" unicode="&#x304;" horiz-adv-x="384" 
d="M68 550q2 48 14 48h228q5 0 5 -9q-1 -23 -7 -41l-6 -8h-228l-4 2q-2 2 -2 8z" />
    <glyph glyph-name="uni0305" unicode="&#x305;" horiz-adv-x="565" 
d="M-15 746q0 10 3.5 34t10.5 24h582q6 0 6 -9q0 -19 -8 -51q-1 -3 -3 -5t-4 -3h-1h-580q-6 0 -6 10z" />
    </font>
</defs>
</svg>
